<svg width="209" height="209" viewBox="0 0 209 209" fill="none" xmlns="http://www.w3.org/2000/svg">
<path d="M8.59346 167.416H70.0027L71.9776 128.597H6.61855L8.59346 167.416Z" fill="#EBEBEB"/>
<path d="M65.5016 146.352H11.4264L10.6834 132.876H66.3693L65.5016 146.352ZM11.877 145.874H65.051L65.8611 133.353H11.1819L11.877 145.874Z" fill="#DBDBDB"/>
<path d="M64.7682 161.872H12.9987L12.3851 149.695H65.5304L64.7682 161.872ZM13.4301 161.395H64.3176L65.0223 150.172H12.8644L13.4301 161.395Z" fill="#DBDBDB"/>
<path d="M44.6788 141.099H33.2176L32.7957 137.847H45.1006L44.6788 141.099ZM33.6538 140.621H44.2617L44.5589 138.324H33.3422L33.6538 140.621Z" fill="#DBDBDB"/>
<path d="M44.6788 157.412H33.2176L32.7957 154.165H45.1006L44.6788 157.412ZM33.6538 156.934H44.2617L44.5589 154.642H33.3422L33.6538 156.934Z" fill="#DBDBDB"/>
<path d="M17.1115 167.417L16.5171 171.643L15.3139 180.143H12.9699V167.417H17.1115Z" fill="#EBEBEB"/>
<path d="M17.1115 167.417L16.5171 171.643H12.9699V167.417H17.1115Z" fill="#DBDBDB"/>
<path d="M61.4895 167.417L62.0839 171.643L63.2823 180.143H65.6263V167.417H61.4895Z" fill="#EBEBEB"/>
<path d="M61.4895 167.417L62.0839 171.643H65.6263V167.417H61.4895Z" fill="#DBDBDB"/>
<path d="M126.633 15.5857H103.998V46.5879H126.633V15.5857Z" fill="#EBEBEB"/>
<path d="M151.818 15.5857H129.183V46.5879H151.818V15.5857Z" fill="#EBEBEB"/>
<path d="M126.633 49.1285H103.998V80.1308H126.633V49.1285Z" fill="#EBEBEB"/>
<path d="M151.818 49.1285H129.183V80.1308H151.818V49.1285Z" fill="#EBEBEB"/>
<path d="M178.599 15.5857H155.964V46.5879H178.599V15.5857Z" fill="#EBEBEB"/>
<path d="M203.784 15.5857H181.149V46.5879H203.784V15.5857Z" fill="#EBEBEB"/>
<path d="M178.599 49.1285H155.964V80.1308H178.599V49.1285Z" fill="#EBEBEB"/>
<path d="M203.784 49.1285H181.149V80.1308H203.784V49.1285Z" fill="#EBEBEB"/>
<path d="M100.767 60.3496C104.52 34.4977 86.5269 10.5095 60.5774 6.77033C34.6279 3.03119 10.5491 20.9571 6.79586 46.809C3.04261 72.6609 21.0362 96.6492 46.9857 100.388C72.9352 104.127 97.014 86.2015 100.767 60.3496Z" fill="#754DA4"/>
<path opacity="0.1" d="M101.206 56.651C102.324 31.7523 82.969 10.6655 57.9764 9.55231C32.9837 8.43909 11.8174 27.721 10.6999 52.6196C9.5825 77.5183 28.9372 98.6051 53.9298 99.7183C78.9224 100.832 100.089 81.5496 101.206 56.651Z" fill="black"/>
<path d="M98.3301 56.9424C99.6057 33.6281 81.6685 13.6978 58.2661 12.427C34.8637 11.1562 14.8582 29.026 13.5826 52.3404C12.307 75.6548 30.2443 95.585 53.6466 96.8558C77.049 98.1267 97.0545 80.2568 98.3301 56.9424Z" fill="white"/>
<path d="M97.4316 45.6631C78.1043 57.3295 46.3427 76.4648 28.5925 86.9564C23.5742 82.7406 19.6052 77.4232 16.9971 71.4219L75.7076 17.2109C81.1929 20.0874 85.9799 24.1248 89.7328 29.04C93.4856 33.9551 96.1134 39.6289 97.4316 45.6631Z" fill="#EBEBEB"/>
<path d="M98.3616 56.0974C98.2079 60.8014 97.2599 65.4461 95.5574 69.8364L42.6278 94.7786C40.321 94.019 38.0852 93.0602 35.9457 91.9133C51.9319 82.7206 81.1482 65.9731 98.3616 56.0974Z" fill="#EBEBEB"/>
<path d="M56.3659 15.4297H55.5462V21.8383H56.3659V15.4297Z" fill="#C7C7C7"/>
<path d="M36.632 20.4733L35.9221 20.8816L39.1385 26.4317L39.8484 26.0234L36.632 20.4733Z" fill="#C7C7C7"/>
<path d="M22.0711 34.6727L21.6613 35.3799L27.2323 38.5842L27.6421 37.877L22.0711 34.6727Z" fill="#C7C7C7"/>
<path d="M23.0321 54.2302H16.5992V55.0468H23.0321V54.2302Z" fill="#C7C7C7"/>
<path d="M27.2332 70.6864L21.6622 73.8907L22.072 74.5979L27.643 71.3936L27.2332 70.6864Z" fill="#C7C7C7"/>
<path d="M39.1369 82.8404L35.9234 88.3921L36.6335 88.8L39.847 83.2483L39.1369 82.8404Z" fill="#C7C7C7"/>
<path d="M56.3659 87.4387H55.5462V93.8474H56.3659V87.4387Z" fill="#C7C7C7"/>
<path d="M72.7722 82.8404L72.0623 83.2487L75.2788 88.7987L75.9886 88.3904L72.7722 82.8404Z" fill="#C7C7C7"/>
<path d="M84.6707 70.6776L84.2609 71.3848L89.8319 74.5891L90.2417 73.8819L84.6707 70.6776Z" fill="#C7C7C7"/>
<path d="M95.3129 54.2302H88.8801V55.0468H95.3129V54.2302Z" fill="#C7C7C7"/>
<path d="M89.8357 34.6868L84.2646 37.8911L84.6745 38.5983L90.2455 35.394L89.8357 34.6868Z" fill="#C7C7C7"/>
<path d="M75.2809 20.48L72.0674 26.0317L72.7774 26.4397L75.9909 20.8879L75.2809 20.48Z" fill="#C7C7C7"/>
<path d="M56.572 18.3284L57.9669 57.4919L53.9404 57.4394L55.4791 18.3188L56.572 18.3284Z" fill="#754DA4"/>
<path d="M81.0571 40.9784L54.6115 57.7976L52.6893 54.2733L80.5346 40.0233L81.0571 40.9784Z" fill="#263238"/>
<path d="M55.9537 56.0067C56.7135 56.0067 57.3294 55.3931 57.3294 54.6362C57.3294 53.8792 56.7135 53.2656 55.9537 53.2656C55.1939 53.2656 54.5779 53.8792 54.5779 54.6362C54.5779 55.3931 55.1939 56.0067 55.9537 56.0067Z" fill="#754DA4"/>
<path d="M148.862 140.962C151.331 142.19 153.771 143.465 156.206 144.745C158.641 146.024 161.062 147.338 163.492 148.637C165.922 149.935 168.324 151.277 170.725 152.624L174.32 154.654C175.509 155.346 176.717 156.024 177.892 156.731C176.655 156.12 175.437 155.485 174.205 154.859L170.548 152.949C168.108 151.669 165.692 150.351 163.262 149.057C160.832 147.763 158.435 146.411 156.033 145.065C153.632 143.718 151.235 142.362 148.862 140.962Z" fill="#A6A6A6"/>
<path d="M175.845 140.962C173.644 142.223 171.416 143.441 169.187 144.654C166.958 145.867 164.709 147.042 162.476 148.231C160.242 149.42 157.975 150.566 155.707 151.712L152.304 153.417C151.163 153.966 150.027 154.534 148.877 155.074C149.974 154.439 151.091 153.832 152.194 153.207L155.549 151.382C157.783 150.174 160.031 148.995 162.26 147.806C164.489 146.617 166.766 145.47 169.028 144.329C171.291 143.188 173.549 142.051 175.845 140.962Z" fill="#A6A6A6"/>
<path d="M121.463 140.962C123.931 142.19 126.371 143.465 128.806 144.745C131.241 146.024 133.662 147.338 136.092 148.637C138.523 149.935 140.924 151.277 143.321 152.624L146.921 154.654C148.11 155.346 149.318 156.024 150.492 156.731C149.255 156.12 148.038 155.485 146.806 154.859L143.148 152.949C140.709 151.669 138.293 150.351 135.862 149.057C133.432 147.763 131.03 146.411 128.634 145.065C126.237 143.718 123.835 142.362 121.463 140.962Z" fill="#A6A6A6"/>
<path d="M148.44 140.962C146.24 142.223 144.011 143.441 141.782 144.654C139.553 145.867 137.3 147.042 135.071 148.231C132.842 149.42 130.57 150.566 128.303 151.712L124.9 153.417C123.759 153.966 122.623 154.534 121.472 155.074C122.57 154.439 123.687 153.832 124.789 153.207L128.145 151.382C130.379 150.174 132.627 148.995 134.856 147.806C137.085 146.617 139.362 145.47 141.624 144.329C143.887 143.188 146.149 142.051 148.44 140.962Z" fill="#A6A6A6"/>
<path d="M126.472 137.185L125.019 145.857L115.188 198.764H113.601L120.753 145.857L121.808 137.185H126.472Z" fill="#A6A6A6"/>
<path d="M121.808 137.185H126.472L125.019 145.857H120.753L121.808 137.185Z" fill="#263238"/>
<path d="M157.356 198.764H155.77L145.938 145.857L144.486 137.185H149.15L150.204 145.857L157.356 198.764Z" fill="#A6A6A6"/>
<path d="M149.15 137.185L150.204 145.857H145.938L144.486 137.185H149.15Z" fill="#263238"/>
<path d="M186.855 198.764H185.269L175.432 145.857L173.98 137.185H178.644L179.703 145.857L186.855 198.764Z" fill="#A6A6A6"/>
<path d="M179.703 145.857H175.432L173.98 137.185H178.644L179.703 145.857Z" fill="#263238"/>
<path d="M184.339 141.258H112.278V133.694H139.251L148.321 75.553H181.592L184.339 141.258Z" fill="#A6A6A6"/>
<path d="M184.339 141.258H180.413L177.853 75.553H181.592L184.339 141.258Z" fill="#DBDBDB"/>
<path d="M134.28 92.2583C137.769 95.4531 143.105 96.0786 147.63 95.7014C152.246 95.3098 157.322 94.1064 161.133 91.3701C162.853 90.193 164.21 88.5627 165.054 86.6615C165.902 84.608 165.739 82.6119 164.249 81.0312C163.05 79.7562 160.749 79.0637 160.548 77.76C160.347 76.4563 161.248 75.2672 161.353 73.9731C161.526 71.7573 160.131 70.3294 158.429 69.1642C154.398 66.3992 154.695 61.9055 151.901 58.1329C150.314 55.9887 146.172 52.2113 140.233 55.1148C137.971 56.2179 136.676 58.6343 136.053 61.0268C135.32 63.8396 136.657 67.1919 135.655 69.9426C134.797 72.2873 133.11 72.8938 132.3 75.3389C131.96 76.399 131.897 77.5833 133.297 79.7514C133.805 80.5345 134.404 81.7571 134.208 82.8077C133.935 84.269 132.396 85.1524 132.08 86.6806C131.663 88.7818 132.741 90.8495 134.28 92.2583Z" fill="#263238"/>
<path d="M163.745 87.4207C165.835 86.7426 166.3 83.6338 164.704 82.3253C163.697 81.4944 162.341 81.246 161.348 80.4151C159.69 79.0541 160.74 77.44 161.267 75.7782C162.413 72.1727 159.8 70.253 157.087 68.5481C155.026 67.2492 154.384 65.5062 153.909 63.2044C153.909 63.171 153.957 63.1566 153.967 63.2044C154.398 64.8853 154.892 66.5233 156.282 67.679C157.413 68.6341 158.808 69.1641 159.915 70.1479C161.77 71.7954 162.274 73.8154 161.502 76.1363C161.281 76.8049 160.788 77.5976 160.764 78.2948C160.711 79.9328 162.029 80.5727 163.28 81.1601C164.239 81.6376 165.308 82.1534 165.797 83.1658C166.54 84.6987 165.442 87.1055 163.812 87.5305C163.712 87.5687 163.664 87.4494 163.745 87.4207Z" fill="#263238"/>
<path d="M162.834 89.2259C164.023 88.223 165.337 87.2823 165.893 85.7637C166.712 83.5192 165.044 82.1821 163.496 80.9214C162.825 80.3817 162.25 79.8278 162.139 78.9348C161.981 77.6024 162.767 76.3369 162.724 74.995C162.614 71.7955 159.235 70.3724 157.322 68.3094C155.409 66.2464 154.446 63.5339 153.42 60.8931C153.42 60.8358 153.487 60.8024 153.506 60.8597C154.81 64.2025 156.339 67.3257 159.201 69.6274C161.2 71.232 163.333 72.9702 162.964 75.8021C162.873 76.4945 162.576 77.1631 162.485 77.8508C162.336 79.2261 162.825 80.0236 163.836 80.8354C164.848 81.6472 165.921 82.3922 166.276 83.6529C166.971 86.1027 164.752 88.1466 162.964 89.4074C162.94 89.4168 162.914 89.418 162.889 89.4107C162.864 89.4034 162.843 89.3881 162.828 89.3672C162.813 89.3463 162.805 89.321 162.807 89.2954C162.808 89.2698 162.818 89.2453 162.834 89.2259Z" fill="#263238"/>
<path d="M131.404 85.9833C132.214 84.2976 133.8 83.2709 132.981 81.1792C132.429 79.7466 131.428 78.6769 131.466 77.0485C131.561 75.7348 132.104 74.4929 133.005 73.529C134.074 72.23 135.306 71.1412 135.981 69.551C136.715 67.8318 136.863 65.936 137.031 64.1022C137.031 64.064 137.093 64.0688 137.093 64.1022C137.007 66.5711 136.825 69.1212 135.32 71.2081C134.534 72.2921 133.508 73.1899 132.736 74.2835C131.346 76.2557 131.672 78.1038 132.736 80.1095C133.216 81.0312 133.695 81.9576 133.412 83.0226C133.129 84.0875 132.3 84.8563 131.782 85.7923C129.587 89.775 134.62 93.5286 138.263 93.5859C138.426 93.5859 138.45 93.839 138.263 93.839C135.55 93.8772 132.343 91.9288 131.317 89.4169C131.09 88.8704 130.98 88.2825 130.995 87.691C131.009 87.0995 131.149 86.5178 131.404 85.9833Z" fill="#263238"/>
<path d="M131.84 87.8506C131.6 86.2651 132.429 85.2289 132.976 83.8678C133.834 81.7237 132.276 80.0141 131.778 77.9845C131.631 77.3166 131.62 76.6263 131.744 75.954C131.868 75.2817 132.126 74.6408 132.501 74.0686C133.46 72.4641 134.793 71.2033 135.488 69.4317C136.212 67.5296 136.362 65.4578 135.919 63.4719C135.919 63.4337 135.967 63.4337 135.977 63.4719C136.334 64.804 136.407 66.1959 136.191 67.5579C135.976 68.92 135.477 70.2219 134.726 71.38C133.767 72.8557 132.329 74.1689 131.96 75.9931C131.567 77.9033 132.765 79.4315 133.321 81.1984C133.496 81.7168 133.565 82.2649 133.524 82.8104C133.483 83.3558 133.332 83.8875 133.081 84.3741C132.645 85.098 132.322 85.8837 132.123 86.7045C132.015 87.8914 132.338 89.0776 133.033 90.0473C135.023 93.1179 138.853 94.6078 142.251 94.584C142.371 94.584 142.395 94.775 142.251 94.775C140.711 94.8074 139.18 94.5358 137.747 93.976C136.313 93.4162 135.004 92.5793 133.896 91.5134C132.834 90.544 132.113 89.2598 131.84 87.8506Z" fill="#263238"/>
<path d="M110.317 198.952C111.597 199.391 148.286 199.649 149.691 198.78C150.223 198.455 151.249 183.832 150.947 182.405C149.93 177.557 145.075 162.868 145.075 162.868L120.532 162.625L127.08 182.171L127.161 186.468C127.161 186.468 113.049 192.61 111.611 193.732C110.173 194.854 109.037 198.517 110.317 198.952Z" fill="#AD6359"/>
<path d="M110.202 199.004C111.492 199.443 148.382 199.706 149.796 198.832C150.453 198.426 150.836 190.614 151.062 182.362L127.066 182.123L127.142 186.421C127.142 186.421 112.973 192.629 111.525 193.741C110.077 194.854 108.917 198.565 110.202 199.004Z" fill="#754DA4"/>
<path d="M110.744 197.538C116.927 197.433 141.901 197.581 148.013 197.944C148.061 197.944 148.061 197.977 148.013 197.982C141.882 198.221 116.927 197.872 110.744 197.638C110.614 197.633 110.614 197.538 110.744 197.538Z" fill="#263238"/>
<path d="M126.279 185.06C128.719 184.625 131.691 185.017 133.537 186.76C133.609 186.827 133.513 186.927 133.436 186.903C131.116 186.136 128.72 185.62 126.289 185.365C126.248 185.367 126.209 185.352 126.179 185.324C126.149 185.296 126.132 185.258 126.131 185.217C126.13 185.177 126.144 185.137 126.172 185.108C126.2 185.078 126.239 185.061 126.279 185.06Z" fill="#263238"/>
<path d="M124.515 186.101C126.951 185.666 129.927 186.058 131.773 187.801C131.845 187.868 131.749 187.968 131.667 187.944C129.348 187.179 126.954 186.663 124.525 186.406C124.484 186.408 124.445 186.393 124.415 186.365C124.385 186.337 124.368 186.299 124.367 186.258C124.366 186.218 124.38 186.178 124.408 186.149C124.436 186.119 124.475 186.102 124.515 186.101Z" fill="#263238"/>
<path d="M122.751 187.142C125.186 186.707 128.163 187.104 130.009 188.842C130.081 188.909 129.985 189.009 129.903 188.985C127.584 188.221 125.19 187.708 122.761 187.452C122.724 187.447 122.69 187.429 122.665 187.401C122.64 187.374 122.626 187.338 122.625 187.301C122.624 187.264 122.636 187.228 122.659 187.198C122.682 187.169 122.715 187.149 122.751 187.142Z" fill="#263238"/>
<path d="M120.987 188.188C123.423 187.748 126.399 188.145 128.245 189.883C128.317 189.954 128.221 190.055 128.139 190.026C125.82 189.262 123.426 188.749 120.997 188.493C120.956 188.494 120.917 188.48 120.887 188.452C120.857 188.424 120.84 188.386 120.839 188.345C120.838 188.305 120.852 188.265 120.88 188.236C120.908 188.206 120.947 188.189 120.987 188.188Z" fill="#263238"/>
<path d="M122.89 182.882C124.602 184.229 126.84 184.792 128.844 185.542C129.05 185.623 129.218 185.427 129.227 185.241C129.238 185.241 129.248 185.239 129.257 185.234C129.266 185.229 129.274 185.222 129.279 185.213C129.285 185.205 129.288 185.195 129.289 185.185C129.29 185.175 129.289 185.165 129.285 185.155C128.564 183.004 127.286 181.08 125.58 179.577C124.568 178.718 122.79 178.116 121.826 179.42C120.863 180.724 121.893 182.094 122.89 182.882ZM122.286 180.924C121.874 178.264 124.731 179.678 125.45 180.342C125.91 180.777 126.338 181.244 126.73 181.741C127.531 182.771 128.279 183.842 128.969 184.95C128.01 184.52 127.018 184.176 126.04 183.78C124.875 183.307 122.512 182.395 122.286 180.924Z" fill="#263238"/>
<path d="M137.439 181.521C136.859 180.003 134.984 180.088 133.781 180.662C131.734 181.651 129.983 183.16 128.705 185.036C128.699 185.044 128.695 185.053 128.694 185.063C128.692 185.073 128.692 185.083 128.695 185.093C128.698 185.102 128.703 185.111 128.709 185.119C128.716 185.126 128.724 185.132 128.734 185.136C128.72 185.182 128.718 185.229 128.726 185.276C128.734 185.323 128.754 185.367 128.782 185.405C128.81 185.442 128.847 185.473 128.889 185.495C128.932 185.516 128.979 185.527 129.026 185.528C131.159 185.337 133.465 185.394 135.478 184.573C136.653 184.081 137.976 182.954 137.439 181.521ZM132.223 184.587C131.178 184.706 130.129 184.773 129.088 184.931C130.052 184.05 131.06 183.218 132.108 182.438C132.622 182.069 133.16 181.734 133.719 181.435C134.591 180.991 137.726 180.389 136.595 182.868C135.972 184.2 133.45 184.444 132.223 184.587Z" fill="#263238"/>
<path d="M167.642 126.489C163.141 130.944 156.871 133.757 151.536 136.517C146.954 138.867 143.066 141.159 141.595 144.387C140.305 147.252 151.004 178.68 151.004 178.68L125.033 181.02C125.033 181.02 113.735 150.266 116.563 137.028C117.042 134.855 119.204 132.043 122.315 128.972C133.431 118.036 156.478 103.824 156.478 103.824H170.633C170.633 103.824 176.505 117.702 167.642 126.489Z" fill="#455A64"/>
<path d="M169.037 106.895C168.98 106.255 168.913 105.615 168.85 104.985C168.85 104.923 168.745 104.923 168.754 104.985C169.339 110.123 169.823 115.758 167.393 120.529C165.054 125.113 160.366 127.874 156.191 130.596L148.617 135.61L144.821 138.103C143.78 138.756 142.773 139.462 141.805 140.218C140.922 140.899 140.176 141.74 139.605 142.697C139.021 143.78 138.771 145.011 138.886 146.235C139.505 154.497 147.716 176.378 147.908 177.085C147.922 177.116 147.947 177.142 147.979 177.156C148.011 177.171 148.047 177.173 148.08 177.163C148.113 177.153 148.142 177.132 148.161 177.102C148.179 177.073 148.186 177.038 148.181 177.004C146.398 171.493 141.59 159.229 139.438 148.169C139.164 146.737 138.958 145.252 139.404 143.843C139.797 142.722 140.478 141.722 141.379 140.944C142.257 140.167 143.198 139.465 144.193 138.843L148.027 136.302L155.548 131.35C159.656 128.643 164.287 126.016 166.957 121.737C169.761 117.286 169.493 111.909 169.037 106.895Z" fill="#263238"/>
<path d="M167.642 126.489C163.141 130.944 156.871 133.757 151.536 136.517C142.107 134.053 130.2 130.973 122.296 128.991C133.412 118.055 156.459 103.844 156.459 103.844H170.614C170.614 103.844 176.505 117.702 167.642 126.489Z" fill="#263238"/>
<path d="M62.2385 180.437C63.3315 181.23 98.2807 192.352 99.8817 191.936C100.491 191.784 102.413 186.808 104.565 180.728C105.044 179.415 105.524 178.059 105.974 176.674C109.047 167.706 112.096 158.117 112.096 158.117L88.7369 150.61L83.2532 169.372L82.05 173.494C82.05 173.494 66.754 175.198 65.0475 175.843C63.341 176.488 61.1456 179.64 62.2385 180.437Z" fill="#AD6359"/>
<path d="M62.1139 180.451C63.2116 181.254 98.3574 192.433 99.9824 192.018C100.725 191.827 103.424 184.477 106.108 176.669L83.2627 169.329L82.05 173.47C82.05 173.47 66.6725 175.184 64.9564 175.829C63.2404 176.473 61.0162 179.654 62.1139 180.451Z" fill="#754DA4"/>
<path d="M63.0678 179.21C69.0021 180.943 92.7874 188.479 98.5396 190.642C98.5875 190.642 98.5779 190.69 98.5396 190.676C92.6148 189.09 68.8919 181.359 63.0678 179.31C62.9096 179.262 62.9384 179.176 63.0678 179.21Z" fill="#263238"/>
<path d="M81.6233 171.903C84.0824 172.209 86.8051 173.465 88.0466 175.676C88.0945 175.762 87.9747 175.829 87.9028 175.781C85.9165 174.364 83.7841 173.161 81.5419 172.195C81.5082 172.18 81.481 172.153 81.4653 172.12C81.4496 172.087 81.4464 172.049 81.4563 172.014C81.4661 171.979 81.4885 171.948 81.5191 171.928C81.5498 171.907 81.5868 171.899 81.6233 171.903Z" fill="#263238"/>
<path d="M79.6293 172.376C82.0835 172.682 84.8062 173.938 86.0525 176.149C86.1005 176.23 85.9758 176.297 85.9087 176.254C83.9214 174.835 81.7873 173.633 79.543 172.667C79.5082 172.653 79.4801 172.626 79.4639 172.592C79.4478 172.558 79.4448 172.519 79.4554 172.483C79.4661 172.447 79.4897 172.416 79.5218 172.397C79.5539 172.377 79.5921 172.37 79.6293 172.376Z" fill="#263238"/>
<path d="M77.6352 172.844C80.0894 173.154 82.8121 174.41 84.0537 176.617C84.1064 176.703 83.9818 176.769 83.9146 176.722C81.926 175.307 79.7921 174.106 77.5489 173.14C77.517 173.123 77.4919 173.096 77.4778 173.062C77.4637 173.029 77.4616 172.992 77.4717 172.957C77.4818 172.923 77.5036 172.892 77.5333 172.872C77.5631 172.851 77.599 172.841 77.6352 172.844Z" fill="#263238"/>
<path d="M75.6603 173.317C78.1193 173.622 80.842 174.883 82.0835 177.089C82.1315 177.175 82.0116 177.242 81.9397 177.194C79.9539 175.778 77.8214 174.577 75.5788 173.613C75.5473 173.596 75.5226 173.569 75.5086 173.536C75.4945 173.503 75.492 173.467 75.5015 173.433C75.5109 173.398 75.5318 173.368 75.5606 173.347C75.5894 173.326 75.6246 173.315 75.6603 173.317Z" fill="#263238"/>
<path d="M79.0397 168.799C80.2716 170.59 82.2417 171.789 83.929 173.097C83.9685 173.124 84.0139 173.141 84.0614 173.146C84.1088 173.152 84.1569 173.146 84.2016 173.129C84.2463 173.112 84.2863 173.085 84.3181 173.05C84.3499 173.014 84.3726 172.971 84.3844 172.925C84.3943 172.927 84.4046 172.927 84.4145 172.925C84.4244 172.923 84.4336 172.918 84.4414 172.912C84.4493 172.905 84.4556 172.897 84.4598 172.888C84.464 172.879 84.4661 172.868 84.4659 172.858C84.4165 170.591 83.7702 168.376 82.5916 166.435C81.8822 165.318 80.3675 164.215 79.054 165.175C77.7406 166.135 78.3206 167.772 79.0397 168.799ZM79.0397 166.751C79.4423 164.086 81.748 166.273 82.2369 167.133C82.5458 167.684 82.8149 168.257 83.0422 168.847C83.4979 170.07 83.8915 171.314 84.2214 172.577C83.4305 171.879 82.5868 171.254 81.7719 170.59C80.8085 169.812 78.824 168.24 79.0445 166.77L79.0397 166.751Z" fill="#263238"/>
<path d="M93.3338 171.827C93.2332 170.208 91.4164 169.754 90.0982 169.917C87.8443 170.265 85.7217 171.197 83.9434 172.62C83.9354 172.626 83.929 172.634 83.9246 172.643C83.9201 172.652 83.9178 172.662 83.9178 172.672C83.9178 172.682 83.9201 172.692 83.9246 172.701C83.929 172.71 83.9354 172.718 83.9434 172.725C83.9123 172.764 83.8914 172.81 83.8827 172.859C83.8739 172.908 83.8775 172.959 83.8932 173.006C83.9089 173.053 83.9361 173.096 83.9725 173.13C84.0089 173.165 84.0533 173.189 84.1016 173.202C86.1964 173.651 88.3822 174.391 90.5536 174.191C91.8191 174.052 93.4249 173.36 93.3338 171.827ZM87.4187 173.207C86.3833 173.006 85.3623 172.763 84.3221 172.605C85.5048 172.047 86.716 171.552 87.9508 171.12C88.5508 170.919 89.1643 170.759 89.7867 170.643C90.7454 170.475 93.9234 170.834 92.1259 172.849C91.1336 173.952 88.6506 173.441 87.4187 173.207Z" fill="#263238"/>
<path d="M82.2417 167.152L108.127 174.74L116.151 145.309C116.851 135.581 118.61 130.863 124.352 129.072C134.131 126.054 158.022 137.191 168.841 129.722C177.627 123.647 170.619 103.801 170.619 103.801H145.214C145.214 103.801 142.146 107.521 141.58 109.708C141.58 109.708 110.121 107.291 103.079 116.183C93.6694 128.122 82.2417 167.152 82.2417 167.152Z" fill="#455A64"/>
<path d="M128.762 128.647C127.248 128.517 125.723 128.634 124.247 128.996C122.845 129.372 121.538 130.04 120.412 130.954C119.321 131.838 118.438 132.95 117.824 134.211C117.105 135.686 116.865 137.358 116.611 138.986C116.472 139.941 116.381 140.896 116.328 141.851C116.275 142.806 116.237 144.134 116.237 144.951C116.237 145.022 116.333 145.027 116.333 144.951C116.347 144.092 116.419 143.235 116.549 142.386C116.654 141.579 116.798 140.777 116.937 139.975C117.167 138.377 117.541 136.802 118.054 135.271C118.549 133.959 119.31 132.764 120.291 131.759C121.272 130.755 122.451 129.964 123.753 129.435C124.542 129.118 125.366 128.896 126.208 128.776C127.059 128.685 127.916 128.658 128.772 128.695C128.772 128.695 128.782 128.647 128.762 128.647Z" fill="#263238"/>
<path d="M165.178 113.404C164.296 113.205 163.442 112.901 162.633 112.497C161.825 112.128 161.093 111.615 160.471 110.983C160.002 110.371 159.688 109.655 159.556 108.896C159.455 108.485 159.398 108.065 159.33 107.65C159.263 107.234 159.143 106.737 159.11 106.279C159.11 106.222 159.009 106.226 159.014 106.279C159.23 108.008 158.741 109.937 160.035 111.408C160.695 112.078 161.498 112.592 162.384 112.912C163.261 113.295 164.199 113.521 165.155 113.581C165.176 113.58 165.196 113.571 165.211 113.557C165.227 113.542 165.237 113.523 165.24 113.502C165.243 113.481 165.238 113.46 165.227 113.442C165.216 113.424 165.199 113.411 165.178 113.404Z" fill="#263238"/>
<path d="M169.934 109.417C169.704 108.484 169.435 107.564 169.128 106.656C169.128 106.599 169.013 106.623 169.037 106.685C170.279 110.471 170.825 114.449 170.648 118.428C170.625 120.31 170.369 122.182 169.886 124.001C169.422 125.739 168.291 127.226 166.736 128.141C165.133 128.975 163.393 129.517 161.598 129.741C159.586 130.054 157.551 130.196 155.515 130.166C151.368 130.128 147.251 129.569 143.143 129.087C139.159 128.609 135.176 128.069 131.183 127.711C127.914 127.42 124.429 127.387 121.404 128.829C118.528 130.209 116.649 132.84 115.422 135.701C114.042 138.934 113.26 142.42 112.326 145.796C111.214 149.822 105.471 171.774 105.385 172.715C105.385 172.806 105.514 172.801 105.524 172.715C105.725 170.652 110.696 152.496 111.813 148.442L113.495 142.367C113.941 140.748 114.382 139.125 114.933 137.539C115.997 134.516 117.56 131.484 120.326 129.679C123.274 127.769 126.946 127.611 130.354 127.859C132.271 127.993 134.189 128.251 136.106 128.475L142.4 129.22C146.417 129.698 150.439 130.257 154.484 130.381C156.507 130.457 158.533 130.376 160.543 130.137C162.362 129.961 164.147 129.536 165.85 128.877C167.356 128.295 168.623 127.225 169.445 125.839C170.288 124.335 170.576 122.592 170.763 120.906C171.16 117.057 170.88 113.169 169.934 109.417Z" fill="#263238"/>
<path d="M151.292 80.2718C147.936 91.2554 145.127 99.7796 141.877 101.761C139.255 103.371 122.958 106.37 119.789 106.537C118.538 106.604 117.498 106.642 116.76 106.671C114.938 106.733 112.297 94.6651 113.629 93.242C113.936 92.9173 115.144 92.6928 116.836 92.5304C122.526 91.9813 133.69 92.1341 134.376 91.5228C135.061 90.9116 138.814 86.2412 143.876 80.1429C147.366 75.931 150.161 74.7419 151.253 75.9739C151.877 76.6855 151.939 78.1515 151.292 80.2718Z" fill="#AD6359"/>
<path d="M119.784 106.556C117.86 107.344 115.885 108.006 113.874 108.538C112.273 108.886 107.642 109.775 107.067 108.06C106.684 106.89 109.349 106.045 111.223 105.41C112.206 105.076 113.457 104.149 113.212 103.5C112.791 102.392 110.25 103.313 108.558 104.149C105.298 105.763 100.888 108.762 99.0764 107.048C98.391 106.398 99.3065 105.362 100.61 104.369C98.5252 105.486 96.325 106.374 95.534 105.682C95.0835 105.29 95.093 104.794 95.395 104.249C95.1341 104.346 94.8507 104.364 94.5793 104.303C94.3079 104.242 94.0601 104.104 93.8659 103.906C93.2619 103.184 93.6454 102.206 94.422 101.227C94.3007 101.205 94.1863 101.155 94.088 101.082C93.9897 101.008 93.9103 100.912 93.8563 100.802C92.6196 98.6191 99.9057 93.0653 102.331 92.6594C109.454 91.456 116.875 92.5495 116.875 92.5495C119.482 94.9277 119.794 106.551 119.784 106.556Z" fill="#AD6359"/>
<path d="M109.9 99.369C108.211 99.5038 106.574 100.011 105.107 100.854C103.395 101.867 101.996 103.314 100.399 104.479C100.356 104.512 100.399 104.579 100.447 104.546C101.205 103.939 102.024 103.404 102.801 102.826C103.577 102.249 104.311 101.666 105.111 101.16C106.553 100.215 108.193 99.6123 109.905 99.3976C109.905 99.3976 109.919 99.3642 109.9 99.369Z" fill="#263238"/>
<path d="M108.788 96.3174C106.886 96.635 105.021 97.1455 103.223 97.8408C101.305 98.6669 99.7187 100.123 98.18 101.518C97.2597 102.358 96.3553 103.218 95.4669 104.097C95.4286 104.135 95.4669 104.197 95.5197 104.163C97.0823 102.718 98.6802 101.32 100.313 99.9706C101.84 98.7025 103.605 97.7496 105.504 97.1674C106.588 96.8379 107.69 96.5896 108.793 96.3413L108.788 96.3174Z" fill="#263238"/>
<path d="M106.99 93.5955C105.179 93.8438 103.592 94.073 101.943 94.9087C99.7619 96.0357 97.5952 98.0366 96.8331 98.7291C95.9942 99.5122 95.1793 100.324 94.3788 101.145C94.3452 101.179 94.3788 101.236 94.4363 101.203C96.2674 99.4175 98.2111 97.7506 100.256 96.2124C101.221 95.4615 102.296 94.8623 103.443 94.4359C104.602 94.0685 105.791 93.8001 106.995 93.6337C106.995 93.6337 107 93.5955 106.99 93.5955Z" fill="#263238"/>
<path d="M152.308 78.4381C151.886 81.5564 149.504 87.5449 149.504 87.5449L137.779 86.2125C137.779 86.2125 144.078 78.1802 148.828 75.229C150.736 74.0494 152.739 75.2863 152.308 78.4381Z" fill="#754DA4"/>
<path d="M149.604 85.9546C147.874 85.6442 146.148 85.3577 144.404 85.1476C143.531 85.0425 142.664 84.9518 141.791 84.8706C140.919 84.7894 140.037 84.8037 139.169 84.713C139.121 84.713 139.116 84.7846 139.169 84.7894C140.037 84.8324 140.914 84.9995 141.782 85.0903C142.649 85.181 143.522 85.2813 144.394 85.3816C146.129 85.5869 147.869 85.7875 149.604 86.031C149.648 86.0358 149.648 85.9642 149.604 85.9546Z" fill="#263238"/>
<path d="M147.984 79.0733C148.478 78.6325 149.072 78.3179 149.715 78.1564C149.471 78.3792 149.199 78.5687 148.905 78.7199C148.614 78.8766 148.305 78.9954 147.984 79.0733ZM146.47 84.5985C146.159 84.5012 145.836 84.4434 145.511 84.4265C145.791 84.6008 146.095 84.7358 146.412 84.8277C146.722 84.9272 147.045 84.985 147.371 84.9996C147.09 84.8254 146.787 84.6904 146.47 84.5985ZM144.044 79.632C143.944 79.9412 143.886 80.2624 143.871 80.5871C144.045 80.3074 144.179 80.0053 144.269 79.6893C144.37 79.3801 144.428 79.0588 144.442 78.7342C144.272 79.0154 144.138 79.3171 144.044 79.632Z" fill="white"/>
<path d="M152.308 78.4381C152.308 78.61 152.26 78.7962 152.222 78.9777C152.183 79.1592 152.164 79.269 152.126 79.4266C151.468 82.1973 150.591 84.9118 149.504 87.5449L149.024 87.4923L148.569 87.4398L144.883 87.0196L144.336 86.9623L140.66 86.5468L140.18 86.4895L138.829 86.3367L148.809 75.229C150.918 74.4076 152.73 75.2863 152.308 78.4381Z" fill="#263238"/>
<path d="M140.995 109.956C140.995 109.956 152.135 111.67 172.704 108.237C172.704 108.237 162.542 83.1276 155.448 76.7189C152.227 73.7964 149.365 74.5079 147.069 76.7189C146.498 77.2729 139.663 87.4924 139.284 90.8973C138.953 93.9058 141.633 97.0003 141.633 97.0003L140.995 109.956Z" fill="#754DA4"/>
<path d="M161.425 98.0557C161.202 97.8128 161.011 97.5414 160.86 97.2486C160.698 96.9612 160.579 96.6525 160.505 96.3317C160.728 96.5746 160.919 96.846 161.07 97.1388C161.228 97.4279 161.347 97.7361 161.425 98.0557ZM151.273 86.8095C151.121 86.5155 150.929 86.2439 150.702 86.0024C150.78 86.322 150.9 86.6302 151.057 86.9193C151.209 87.2121 151.399 87.4835 151.623 87.7264C151.549 87.406 151.431 87.0974 151.273 86.8095ZM168.913 106.566C168.759 106.275 168.569 106.005 168.347 105.763C168.425 106.083 168.544 106.391 168.702 106.68C168.853 106.973 169.044 107.244 169.267 107.487C169.19 107.166 169.071 106.856 168.913 106.566ZM148.521 100.773C148.369 100.48 148.179 100.209 147.956 99.9658C148.034 100.285 148.153 100.594 148.31 100.883C148.462 101.176 148.652 101.447 148.876 101.69C148.799 101.37 148.68 101.062 148.521 100.773ZM153.056 76.1172C152.907 75.8224 152.717 75.5506 152.49 75.3102C152.652 75.9506 152.968 76.5422 153.41 77.0341C153.336 76.7127 153.215 76.4038 153.051 76.1172H153.056ZM154.273 96.8714C154.567 96.7191 154.839 96.5297 155.083 96.3078C154.761 96.3846 154.45 96.5034 154.158 96.6612C153.865 96.8135 153.593 97.0029 153.348 97.2247C153.671 97.148 153.982 97.0292 154.273 96.8714ZM143.45 92.5161C143.741 92.3635 144.012 92.1742 144.255 91.9526C143.933 92.026 143.623 92.145 143.335 92.306C143.041 92.4572 142.768 92.6467 142.524 92.8695C142.852 92.794 143.168 92.6751 143.464 92.5161H143.45ZM148.89 78.7199C149.184 78.5686 149.457 78.3792 149.7 78.1564C149.057 78.3179 148.464 78.6325 147.97 79.0732C148.296 78.9966 148.61 78.8778 148.905 78.7199H148.89ZM150.717 107.75C151.015 107.603 151.292 107.416 151.541 107.196C150.898 107.357 150.304 107.672 149.811 108.113C150.132 108.032 150.441 107.91 150.731 107.75H150.717ZM160.246 84.4026C160.538 84.25 160.808 84.0607 161.051 83.8391C160.408 84.0007 159.815 84.3153 159.321 84.756C159.648 84.6805 159.964 84.5616 160.26 84.4026H160.246ZM163.654 103.934C163.948 103.783 164.221 103.594 164.464 103.371C164.142 103.443 163.832 103.562 163.544 103.724C163.25 103.875 162.978 104.065 162.734 104.288C163.06 104.211 163.374 104.092 163.669 103.934H163.654ZM156.512 101.862C156.201 101.762 155.879 101.704 155.553 101.69C155.834 101.864 156.137 101.999 156.454 102.091C156.765 102.188 157.087 102.246 157.413 102.263C157.137 102.09 156.839 101.955 156.526 101.862H156.512ZM143.033 98.4711C142.722 98.3716 142.4 98.3138 142.074 98.2992C142.354 98.4735 142.658 98.6084 142.975 98.7004C143.286 98.7976 143.608 98.8554 143.934 98.8723C143.658 98.6992 143.359 98.5643 143.047 98.4711H143.033ZM156.905 89.8037C156.595 89.7038 156.272 89.6459 155.946 89.6318C156.229 89.8052 156.534 89.9401 156.852 90.0329C157.163 90.1306 157.485 90.1883 157.811 90.2048C157.533 90.0325 157.233 89.8977 156.919 89.8037H156.905ZM146.455 84.5984C146.144 84.5012 145.822 84.4434 145.496 84.4265C145.777 84.6008 146.08 84.7357 146.398 84.8277C146.708 84.9272 147.031 84.985 147.356 84.9996C147.08 84.8265 146.782 84.6916 146.47 84.5984H146.455ZM167.302 98.7863C166.992 98.6864 166.669 98.6286 166.343 98.6144C166.625 98.7869 166.928 98.9218 167.244 99.0155C167.556 99.1124 167.878 99.1702 168.203 99.1874C167.927 99.0144 167.629 98.8794 167.316 98.7863H167.302ZM163.496 91.074C163.396 91.3833 163.338 91.7045 163.323 92.029C163.498 91.7496 163.634 91.4475 163.726 91.1313C163.824 90.8215 163.882 90.5005 163.899 90.1762C163.73 90.4568 163.599 90.7588 163.51 91.074H163.496ZM148.909 93.5954C148.81 93.9047 148.751 94.2259 148.737 94.5505C148.912 94.271 149.047 93.9689 149.14 93.6527C149.238 93.3432 149.294 93.022 149.307 92.6976C149.141 92.979 149.012 93.2808 148.924 93.5954H148.909ZM144.408 106.718C144.308 107.028 144.25 107.349 144.236 107.673C144.41 107.392 144.545 107.088 144.638 106.771C144.736 106.461 144.794 106.14 144.811 105.816C144.636 106.097 144.5 106.4 144.408 106.718ZM158.746 107.673C158.646 107.983 158.588 108.304 158.573 108.629C158.746 108.349 158.88 108.047 158.971 107.731C159.071 107.422 159.129 107.1 159.143 106.776C158.974 107.057 158.84 107.359 158.746 107.673ZM155.151 81.2126C155.05 81.5218 154.992 81.8431 154.978 82.1677C155.151 81.8874 155.286 81.5855 155.381 81.27C155.478 80.96 155.536 80.6391 155.553 80.3149C155.379 80.5928 155.243 80.8933 155.151 81.2079V81.2126ZM141.46 87.33C141.36 87.6392 141.302 87.9605 141.288 88.2851C141.462 88.0035 141.597 87.7 141.69 87.3825C141.791 87.0733 141.849 86.7521 141.863 86.4274C141.689 86.709 141.553 87.0126 141.46 87.33Z" fill="white"/>
<path d="M151.8 75.7161C151.8 76.2892 150.184 80.4916 147.682 81.0169C146.867 81.1936 145.703 76.8097 145.703 76.8097L145.544 76.5041L143.301 72.2444L147.725 67.3973L148.377 66.7383C148.377 66.7383 148.914 67.9417 149.566 69.4507L149.657 69.6656C149.696 69.7516 149.734 69.828 149.767 69.9092C149.868 70.1336 149.969 70.3867 150.065 70.5921C150.161 70.7974 150.213 70.9407 150.285 71.1269C150.357 71.3132 150.429 71.4946 150.506 71.6761C151.029 72.9918 151.461 74.3416 151.8 75.7161Z" fill="#AD6359"/>
<path d="M149.566 69.4698C149.45 70.8659 149.03 72.22 148.336 73.4381C147.641 74.6561 146.689 75.7089 145.544 76.5231L143.301 72.2634L147.725 67.4163L148.377 66.7573C148.377 66.7573 148.914 67.9416 149.566 69.4698Z" fill="#263238"/>
<path d="M135.013 66.5759C135.972 74.9616 141.115 75.3437 142.932 75.1383C144.581 74.9473 150.165 74.1021 150.089 65.6638C150.012 57.2256 145.798 55.0098 142.007 55.239C138.215 55.4682 134.064 58.1855 135.013 66.5759Z" fill="#AD6359"/>
<path d="M136.058 64.9952C136.25 64.9426 136.422 64.8662 136.609 64.7994C136.813 64.7552 136.996 64.6462 137.132 64.489C137.166 64.4319 137.18 64.3651 137.171 64.2992C137.162 64.2334 137.132 64.1724 137.084 64.126C136.976 64.0481 136.85 64.0003 136.717 63.9877C136.585 63.9751 136.452 63.9982 136.331 64.0544C136.068 64.129 135.842 64.2994 135.699 64.5319C135.671 64.5866 135.66 64.648 135.665 64.7089C135.671 64.7698 135.694 64.8278 135.732 64.8763C135.77 64.9247 135.82 64.9615 135.878 64.9826C135.936 65.0036 135.998 65.008 136.058 64.9952Z" fill="#263238"/>
<path d="M141.81 64.2168C141.615 64.2145 141.419 64.2002 141.225 64.1738C141.017 64.1867 140.81 64.1313 140.636 64.0162C140.589 63.9694 140.559 63.9085 140.55 63.8428C140.541 63.7772 140.555 63.7106 140.588 63.6533C140.672 63.5501 140.782 63.471 140.906 63.424C141.031 63.377 141.166 63.3639 141.297 63.3858C141.57 63.3866 141.832 63.4908 142.031 63.6772C142.073 63.7218 142.102 63.7776 142.113 63.838C142.125 63.8984 142.118 63.9608 142.095 64.0177C142.072 64.0746 142.032 64.1237 141.982 64.159C141.932 64.1943 141.872 64.2143 141.81 64.2168Z" fill="#263238"/>
<path d="M140.741 66.4326C140.741 66.4326 140.789 66.4326 140.794 66.4756C140.837 67.0486 140.986 67.6981 141.527 67.8318V67.8653C140.88 67.8462 140.693 66.9818 140.741 66.4326Z" fill="#263238"/>
<path d="M141.187 65.7785C142.103 65.6065 142.381 67.4403 141.532 67.5979C140.684 67.7555 140.42 65.9217 141.187 65.7785Z" fill="#263238"/>
<path d="M141.561 65.8213C141.738 65.8977 141.925 66.0601 142.122 66.0505C142.318 66.041 142.491 65.8213 142.601 65.6112C142.601 65.6112 142.63 65.6112 142.635 65.6112C142.689 65.7748 142.678 65.9527 142.605 66.1088C142.532 66.2649 142.402 66.3875 142.242 66.4517C141.901 66.552 141.609 66.275 141.465 65.9359C141.451 65.893 141.494 65.7879 141.561 65.8213Z" fill="#263238"/>
<path d="M137.554 66.7908C137.554 66.7908 137.511 66.8242 137.515 66.8481C137.626 67.4116 137.654 68.0754 137.17 68.3476C137.17 68.3476 137.17 68.381 137.17 68.3762C137.793 68.19 137.745 67.3065 137.554 66.7908Z" fill="#263238"/>
<path d="M136.95 66.2751C136.02 66.3515 136.245 68.1853 137.103 68.1232C137.961 68.0611 137.726 66.213 136.95 66.2751Z" fill="#263238"/>
<path d="M136.581 66.4422C136.446 66.5616 136.322 66.7526 136.149 66.786C135.977 66.8194 135.775 66.6428 135.622 66.4661H135.593C135.627 66.8194 135.79 67.1728 136.135 67.2015C136.48 67.2301 136.643 66.8959 136.686 66.5329C136.696 66.4899 136.633 66.3992 136.581 66.4422Z" fill="#263238"/>
<path d="M138.838 69.36C138.838 69.36 138.838 70.2244 138.896 70.6255C138.896 70.6637 139.001 70.6685 139.14 70.659C139.493 70.6768 139.845 70.5971 140.155 70.4285C140.466 70.26 140.723 70.0092 140.9 69.7039C140.924 69.6609 140.866 69.6275 140.832 69.6609C140.367 70.0794 139.779 70.3388 139.155 70.4011C139.112 70.2913 139.203 68.9159 139.155 68.9207C138.845 68.9898 138.546 69.1023 138.268 69.255C138.21 67.4499 138.45 65.6495 138.369 63.854C138.369 63.7871 138.268 63.7823 138.258 63.854C137.945 65.7745 137.826 67.7215 137.904 69.6657C137.904 69.8662 138.69 69.4699 138.838 69.36Z" fill="#263238"/>
<path d="M139.169 70.4583C139.438 70.7595 139.78 70.9879 140.161 71.1221C140.37 71.189 140.595 71.189 140.804 71.1221C141.283 70.9741 141.245 70.549 141.134 70.1909C141.074 70.0009 140.992 69.8182 140.89 69.6465C140.418 70.0929 139.815 70.3774 139.169 70.4583Z" fill="#263238"/>
<path d="M140.161 71.1221C140.37 71.189 140.595 71.189 140.804 71.1221C141.283 70.9741 141.245 70.5491 141.134 70.1909C140.891 70.2144 140.662 70.3191 140.485 70.4881C140.309 70.6571 140.195 70.8805 140.161 71.1221Z" fill="#FF9CBD"/>
<path d="M149.537 66.3801C148.617 66.3801 146.033 64.0592 145.621 59.6467C145.621 59.6467 146.263 63.5864 146.609 64.1452C146.954 64.7039 145.171 62.8271 144.777 59.2742C143.714 60.1644 142.527 60.8978 141.254 61.4518C139.6 62.0487 138.565 62.1156 138.436 62.001C138.306 61.8864 140.732 60.917 141.345 60.0908C141.345 60.0908 137.031 62.512 134.951 62.8271C134.716 62.8653 134.05 57.98 137.094 55.664C140.137 53.3479 145.381 55.1864 146.848 56.4089C146.848 56.4089 148.464 56.514 150.386 58.7441C152.308 60.9743 150.534 66.3657 149.537 66.3801Z" fill="#263238"/>
<path d="M142.074 69.0782C141.369 69.0744 140.694 68.7924 140.197 68.2938C139.7 67.7952 139.422 67.1208 139.423 66.4183C139.425 65.9221 139.566 65.4364 139.831 65.0162C140.096 64.5961 140.474 64.2585 140.922 64.0419C141.37 63.8253 141.87 63.7382 142.365 63.7908C142.86 63.8433 143.331 64.0333 143.723 64.3391C144.115 64.6449 144.413 65.0542 144.584 65.5205C144.754 65.9867 144.789 66.4913 144.686 66.9766C144.582 67.4619 144.344 67.9086 143.999 68.2658C143.653 68.623 143.214 68.8763 142.731 68.997C142.516 69.0507 142.295 69.078 142.074 69.0782ZM139.778 66.4183C139.776 66.8728 139.909 67.3176 140.161 67.6965C140.413 68.0754 140.773 68.3713 141.193 68.5468C141.614 68.7222 142.078 68.7694 142.526 68.6822C142.973 68.595 143.385 68.3775 143.709 68.0571C144.032 67.7367 144.253 67.3279 144.344 66.8824C144.434 66.4369 144.389 65.9747 144.216 65.5543C144.042 65.134 143.748 64.7743 143.369 64.521C142.99 64.2676 142.545 64.1318 142.088 64.1308C141.897 64.1299 141.707 64.154 141.523 64.2025C141.026 64.3257 140.584 64.6106 140.268 65.0119C139.952 65.4133 139.78 65.9082 139.778 66.4183Z" fill="#754DA4"/>
<path d="M136.499 69.7802C135.421 69.9187 134.385 68.8538 134.198 67.3925C134.1 66.7385 134.21 66.0701 134.515 65.4823C134.63 65.2224 134.81 64.9964 135.039 64.8263C135.267 64.6561 135.536 64.5476 135.819 64.5111C136.102 64.4746 136.389 64.5114 136.654 64.618C136.918 64.7245 137.151 64.8972 137.328 65.1194C137.772 65.6116 138.05 66.2292 138.124 66.8863C138.301 68.2568 137.645 69.4841 136.686 69.7516L136.499 69.7802ZM134.826 65.6494C134.558 66.1701 134.461 66.7614 134.548 67.34C134.711 68.5959 135.569 69.5223 136.466 69.4077C137.362 69.2931 137.942 68.1804 137.779 66.9245C137.713 66.343 137.469 65.7958 137.079 65.3581C136.932 65.1853 136.746 65.0498 136.536 64.9626C136.326 64.8755 136.098 64.8392 135.871 64.8567L135.742 64.8806C135.544 64.9377 135.36 65.0356 135.202 65.1681C135.044 65.3005 134.916 65.4645 134.826 65.6494Z" fill="#754DA4"/>
<path d="M139.548 66.7096L139.74 66.4135C139.299 66.127 138.301 65.7974 137.76 66.5663L138.047 66.7764C138.546 66.084 139.509 66.6857 139.548 66.7096Z" fill="#754DA4"/>
<path d="M151.397 65.8691L151.69 65.6638C151.594 65.5301 150.731 64.341 149.94 64.3123C149.149 64.2837 144.519 65.3438 144.322 65.3868L144.399 65.7354C145.741 65.4298 149.346 64.6466 149.93 64.6657C150.515 64.6848 151.158 65.5396 151.397 65.8691Z" fill="#754DA4"/>
<path d="M150.439 68.7535C150.323 68.823 150.201 68.8821 150.074 68.9302C149.948 68.9778 149.816 69.0067 149.681 69.0162C149.51 69.0348 149.336 69.0152 149.173 68.9589C149.045 68.9155 148.922 68.8561 148.809 68.7822C148.65 68.6733 148.512 68.5375 148.401 68.381V66.0793C148.401 66.0793 149.691 63.128 150.995 63.5387C152.298 63.9494 151.738 67.9656 150.439 68.7535Z" fill="#AD6359"/>
<path d="M150.827 64.6943C150.851 64.6943 150.86 64.7182 150.827 64.7278C149.935 65.3151 149.604 66.3132 149.437 67.3113C149.473 67.2035 149.533 67.1049 149.612 67.0223C149.691 66.9397 149.786 66.8751 149.892 66.8328C149.999 66.7906 150.113 66.7718 150.227 66.7778C150.341 66.7837 150.452 66.8142 150.554 66.8672C150.582 66.8672 150.554 66.9245 150.554 66.9245C150.374 66.9032 150.192 66.9377 150.032 67.0231C149.873 67.1086 149.743 67.2409 149.662 67.402C149.532 67.6752 149.432 67.9619 149.365 68.2568C149.336 68.3523 149.168 68.338 149.183 68.2329C148.919 66.9866 149.528 65.0764 150.827 64.6943Z" fill="#263238"/>
<path d="M150.271 68.4288C150.271 68.5063 150.248 68.582 150.205 68.6464C150.161 68.7108 150.1 68.761 150.028 68.7906C149.956 68.8202 149.877 68.828 149.801 68.8129C149.725 68.7978 149.655 68.7605 149.6 68.7057C149.545 68.6509 149.507 68.5812 149.492 68.5052C149.477 68.4293 149.485 68.3505 149.515 68.279C149.544 68.2074 149.595 68.1463 149.659 68.1032C149.724 68.0602 149.8 68.0372 149.878 68.0372C149.982 68.0372 150.082 68.0785 150.156 68.1519C150.229 68.2254 150.271 68.325 150.271 68.4288Z" fill="white"/>
<path d="M150.947 67.6886C150.947 67.7434 150.93 67.7969 150.9 67.8425C150.869 67.888 150.826 67.9235 150.775 67.9445C150.724 67.9655 150.668 67.9709 150.614 67.9602C150.56 67.9496 150.511 67.9232 150.472 67.8844C150.433 67.8457 150.407 67.7964 150.396 67.7426C150.385 67.6889 150.391 67.6332 150.412 67.5826C150.433 67.532 150.468 67.4887 150.514 67.4583C150.56 67.4279 150.614 67.4116 150.669 67.4116C150.742 67.4116 150.813 67.4408 150.865 67.4927C150.917 67.5447 150.947 67.6151 150.947 67.6886Z" fill="white"/>
<path d="M156.967 78.1086C163.266 86.6519 171.75 101.074 167.796 104.178C161.296 109.273 142.548 111.909 138.254 112.339C136.398 112.521 132.938 100.4 134.203 98.8675C135.469 97.3346 155.246 96.6326 155.409 95.4292C155.5 94.7463 154.014 88.839 152.236 81.4896C150.18 73.0132 155.16 75.6779 156.967 78.1086Z" fill="#AD6359"/>
<path d="M137.463 97.9411C137.463 97.9411 131.792 97.7835 128.082 97.8551C126.011 97.8933 122.469 98.2801 120.959 99.0012C118.706 100.08 109.967 106.031 111.372 108.175C112.642 110.114 119.521 104.049 119.521 104.049C119.521 104.049 112.033 109.584 114.008 111.613C115.983 113.643 122.799 105.792 122.799 105.792C122.799 105.792 115.259 111.623 117.618 113.433C119.401 114.794 125.992 108.008 125.992 108.008C125.992 108.008 119.549 113.065 121.318 114.541C123.279 116.174 129.755 110.29 129.755 110.29C134.893 113.289 138.575 112.626 141.134 111.842C141.743 111.642 137.463 97.9411 137.463 97.9411Z" fill="#AD6359"/>
<path d="M121.956 101.981C121.055 102.597 120.139 103.213 119.295 103.891C118.452 104.569 117.637 105.324 116.86 106.074C115.833 107.061 114.919 108.16 114.138 109.35C115.676 107.334 118.653 104.808 119.497 104.097C120.34 103.385 121.141 102.664 121.98 101.976C122.004 101.995 121.975 101.967 121.956 101.981Z" fill="#263238"/>
<path d="M124.52 104.966C123.408 105.797 122.267 106.589 121.189 107.473C120.11 108.356 119.175 109.283 118.169 110.233C118.087 110.31 118.169 110.324 118.236 110.233C119.281 109.326 120.321 108.562 121.376 107.664C122.43 106.766 123.456 105.825 124.544 104.971L124.52 104.966Z" fill="#263238"/>
<path d="M127.185 107.129C125.446 108.369 123.839 109.786 122.392 111.355C122.32 111.432 122.392 111.441 122.488 111.355C124.055 109.923 125.273 108.786 127.233 107.177C127.257 107.167 127.224 107.105 127.185 107.129Z" fill="#263238"/>
<path d="M141.705 97.411C140.909 97.411 139.227 97.6784 137.362 97.7214C133.168 97.8074 127.243 97.6689 125.129 97.7214C119.415 97.8933 115.858 102.019 114.229 103.452C113.254 104.319 112.366 105.279 111.578 106.317C111.17 106.886 110.773 107.693 111.29 108.342C111.918 109.13 114.358 108.342 116.923 106.141C117.014 106.059 116.956 106.007 116.86 106.078C113.275 108.858 111.875 108.504 111.516 107.989C111.285 107.669 111.516 107.124 111.746 106.714C112.105 106.119 112.536 105.57 113.03 105.08C114.682 103.382 116.503 101.855 118.466 100.525C120.575 99.0217 123.068 98.1457 125.656 97.9984C127.497 97.8838 133.144 98.0509 137.372 97.9268C139.222 97.8695 140.9 97.5399 141.686 97.4779C141.772 97.5017 141.762 97.411 141.705 97.411Z" fill="#263238"/>
<path d="M165.016 88.9536L152.979 88.648C152.979 88.648 151.685 82.7599 151.426 79.4027C151.086 74.9568 152.663 73.7868 156.579 77.6167C159.196 80.1811 165.016 88.9536 165.016 88.9536Z" fill="#754DA4"/>
<path d="M153.406 77.0341C152.963 76.5422 152.647 75.9506 152.485 75.3102C152.928 75.8021 153.244 76.3937 153.406 77.0341ZM160.26 84.4026C160.552 84.25 160.823 84.0607 161.066 83.8391C160.423 84.0007 159.829 84.3153 159.335 84.756C159.658 84.6793 159.969 84.5605 160.26 84.4026ZM155.151 81.2079C155.05 81.5171 154.992 81.8383 154.978 82.163C155.151 81.8826 155.286 81.5807 155.381 81.2652C155.478 80.9552 155.536 80.6344 155.553 80.3101C155.378 80.5895 155.243 80.8916 155.151 81.2079Z" fill="white"/>
<path d="M154.451 88.6911C154.321 88.6624 153.085 88.5908 153.013 88.6099C152.878 87.9127 152.754 87.2155 152.61 86.523C152.538 86.1744 152.461 85.8258 152.38 85.482C152.298 85.1381 152.203 84.6654 152.126 84.3311C152.126 84.2785 152.044 84.2881 152.049 84.3311C152.111 84.78 152.169 85.1095 152.227 85.4963C152.284 85.8831 152.332 86.1887 152.399 86.5326C152.533 87.2584 152.648 88.0368 152.821 88.7579C153.371 88.7815 153.921 88.7704 154.47 88.7245L154.451 88.6911Z" fill="#263238"/>
<path d="M163.822 87.7837C162.072 87.6214 160.327 87.4781 158.573 87.416C157.696 87.3874 156.823 87.3682 155.946 87.3635C155.069 87.3587 154.192 87.4447 153.319 87.4256C153.309 87.4256 153.299 87.4296 153.292 87.4367C153.285 87.4439 153.281 87.4536 153.281 87.4638C153.281 87.4739 153.285 87.4836 153.292 87.4908C153.299 87.4979 153.309 87.502 153.319 87.502C154.192 87.4733 155.079 87.564 155.951 87.5831L158.578 87.65C160.327 87.7073 162.077 87.7598 163.827 87.8601C163.86 87.8601 163.86 87.7885 163.822 87.7837Z" fill="#263238"/>
<path d="M106.182 111.55H132.733V109.497L106.182 108.642V111.55Z" fill="#455A64"/>
<path d="M85.311 111.517H102.831C104.322 111.517 102.16 107.276 96.7051 105.648C91.2502 104.02 83.5902 109.927 85.311 111.517Z" fill="#37474F"/>
<path d="M92.1849 111.517C91.8998 110.623 91.5173 109.763 91.044 108.953C90.809 108.558 90.5361 108.187 90.2291 107.845C89.9109 107.5 89.5663 107.181 89.1985 106.89C89.6733 107.03 90.1128 107.269 90.488 107.592C90.8698 107.91 91.194 108.291 91.4467 108.719C91.7026 109.143 91.8978 109.601 92.0267 110.08C92.1588 110.547 92.2123 111.033 92.1849 111.517Z" fill="#263238"/>
<path d="M90.1093 107.482C89.189 108.074 88.2686 108.613 87.4058 109.23C86.9718 109.525 86.5644 109.857 86.1882 110.223C85.7974 110.579 85.4968 111.023 85.311 111.517C85.3199 110.948 85.5324 110.401 85.9102 109.974C86.2582 109.538 86.6684 109.155 87.1278 108.838C87.582 108.523 88.0632 108.248 88.5658 108.017C89.0599 107.784 89.5773 107.605 90.1093 107.482Z" fill="#263238"/>
<path d="M72.7425 103.308H115.323L108.555 71.7231H65.9694L72.7425 103.308Z" fill="#455A64"/>
<path d="M71.1703 103.308H113.751L106.978 71.7231H64.3971L71.1703 103.308Z" fill="#37474F"/>
<path d="M94.1358 91.9855H95.1329L93.6181 84.8987H92.6163L94.1358 91.9855Z" fill="#263238"/>
<path d="M92.1657 91.9855H93.1628L91.648 84.8987H90.6462L92.1657 91.9855Z" fill="#263238"/>
<path d="M90.1956 91.9855H91.1926L89.6779 84.8987H88.6761L90.1956 91.9855Z" fill="#263238"/>
<path d="M88.2255 91.9855H89.2225L87.7078 84.8987H86.7059L88.2255 91.9855Z" fill="#263238"/>
<path d="M86.2506 91.9855H87.2524L85.7329 84.8987H84.7358L86.2506 91.9855Z" fill="#263238"/>
<path d="M84.2805 91.9855H85.2823L83.7628 84.8987H82.7657L84.2805 91.9855Z" fill="#263238"/>
<path d="M82.3103 91.9855H83.3122L81.7926 84.8987H80.7956L82.3103 91.9855Z" fill="#263238"/>
<path d="M83.2115 111.555H104.154V109.936L83.2115 109.258V111.555Z" fill="#455A64"/>
<path d="M77.5168 111.55H88.7624L95.5355 93.8574H84.29L77.5168 111.55Z" fill="#455A64"/>
<path d="M75.6666 111.55H86.9121L93.6805 93.8574H82.4398L75.6666 111.55Z" fill="#263238"/>
<path d="M176.546 111.552H25.58V114.288H176.546V111.552Z" fill="#37474F"/>
<path d="M172.951 114.288H29.1751V121.155H172.951V114.288Z" fill="#37474F"/>
<path d="M172.951 114.288H29.1751V117.722H172.951V114.288Z" fill="#263238"/>
<path d="M48.6654 174.831H35.7805V177.09H48.6654V174.831Z" fill="#37474F"/>
<path d="M55.6543 207.858H54.2642L42.9132 155.075L42.2661 152.067L40.2289 142.592L39.4715 139.058L36.6146 125.802L35.6176 121.155H40.574L41.3841 125.802L41.9114 128.848L42.2661 130.878L44.3033 142.592L44.96 146.365L55.6543 207.858Z" fill="#37474F"/>
<path d="M40.574 121.155L41.3841 125.802H36.6146L35.6176 121.155H40.574Z" fill="#263238"/>
<path d="M44.96 146.365L42.9132 155.075L42.2661 152.067L40.2289 142.592L39.4715 139.058L41.9114 128.848L42.2661 130.878L44.3033 142.592L44.96 146.365Z" fill="#263238"/>
<path d="M48.9147 121.155L47.9176 125.802L44.3033 142.592L42.2661 152.067L30.268 207.858H28.8779L40.2289 142.592L42.2661 130.878L43.1481 125.802L43.9534 121.155H48.9147Z" fill="#37474F"/>
<path d="M48.9147 121.155L47.9176 125.802H43.1481L43.9534 121.155H48.9147Z" fill="#263238"/>
<path d="M166.259 174.831H153.374V177.09H166.259V174.831Z" fill="#37474F"/>
<path d="M173.248 207.858H171.853L160.507 155.075L159.86 152.067L157.818 142.592L157.06 139.058L154.208 125.802L153.206 121.155H158.168L158.973 125.802L159.505 128.848L159.86 130.878L161.892 142.592L162.549 146.365L173.248 207.858Z" fill="#37474F"/>
<path d="M158.168 121.155L158.973 125.802H154.208L153.206 121.155H158.168Z" fill="#263238"/>
<path d="M162.549 146.365L160.507 155.075L159.86 152.067L157.818 142.592L157.06 139.058L159.505 128.848L159.86 130.878L161.892 142.592L162.549 146.365Z" fill="#263238"/>
<path d="M166.503 121.155L165.506 125.802L161.892 142.592L159.86 152.067L147.857 207.858H146.472L157.818 142.592L159.86 130.878L160.737 125.802L161.547 121.155H166.503Z" fill="#37474F"/>
<path d="M166.503 121.155L165.506 125.802H160.737L161.547 121.155H166.503Z" fill="#263238"/>
<path d="M38.361 108.844L37.4119 108.72L41.5391 77.4169L53.7049 69.6807L57.6308 72.2403L57.1083 73.0378L53.6953 70.8172L42.4306 77.9804L38.361 108.844Z" fill="#263238"/>
<path d="M41.1795 77.6986C41.1786 77.8587 41.2254 78.0154 41.3141 78.1488C41.4027 78.2823 41.5292 78.3864 41.6774 78.4481C41.8256 78.5098 41.9889 78.5262 42.1465 78.4952C42.3041 78.4642 42.4489 78.3872 42.5625 78.2741C42.676 78.1609 42.7533 78.0167 42.7844 77.8597C42.8155 77.7027 42.7991 77.54 42.7372 77.3924C42.6752 77.2447 42.5707 77.1187 42.4367 77.0304C42.3028 76.9421 42.1455 76.8954 41.9849 76.8964C41.7713 76.8964 41.5664 76.9809 41.4154 77.1314C41.2644 77.2818 41.1795 77.4859 41.1795 77.6986Z" fill="#754DA4"/>
<path d="M53.6618 71.0512C54.1065 71.0512 54.4671 70.692 54.4671 70.2489C54.4671 69.8059 54.1065 69.4467 53.6618 69.4467C53.217 69.4467 52.8564 69.8059 52.8564 70.2489C52.8564 70.692 53.217 71.0512 53.6618 71.0512Z" fill="#754DA4"/>
<path d="M64.3704 73.3386L59.0065 79.3032L56.533 76.2564L55.0279 74.3988L59.0448 69.9337L61.0629 71.2279L64.3704 73.3386Z" fill="#754DA4"/>
<path opacity="0.1" d="M64.3704 73.3387L59.0065 79.3032L56.5331 76.2565L61.0629 71.2279L64.3704 73.3387Z" fill="black"/>
<path d="M72.1406 76.2803L62.7933 86.6717L56.5858 78.7826L63.5891 70.9987L72.1406 76.2803Z" fill="#754DA4"/>
<path d="M45.2252 111.561H31.3961L32.2445 107.235H44.3768L45.2252 111.561Z" fill="#754DA4"/>
<path d="M185.014 151.733C184.611 154.531 184.755 157.38 185.441 160.123C185.765 161.394 186.196 162.635 186.73 163.834C187.401 165.367 188.101 166.866 187.933 168.547C187.77 168.657 188.331 168.638 188.345 168.476C192.851 165.921 198.632 165.453 202.098 161.274C203.742 159.292 204.571 156.785 204.974 154.278C205.401 151.547 205.516 148.548 204.811 145.83C204.212 143.552 202.894 141.356 200.732 140.238C198.57 139.121 195.612 139.188 193.278 139.909C188.23 141.47 185.728 146.881 185.014 151.733Z" fill="#754DA4"/>
<path d="M182.704 184.96C183.317 182.921 183.931 180.877 184.563 178.843C185.8 174.851 187.085 170.877 188.508 166.947C189.362 164.598 190.26 162.269 191.202 159.961C191.102 158.505 190.923 157.056 190.665 155.62C190.292 153.882 189.74 152.201 189.227 150.496C189.219 150.472 189.221 150.445 189.232 150.423C189.243 150.4 189.263 150.382 189.287 150.374C189.312 150.366 189.338 150.368 189.361 150.379C189.384 150.39 189.401 150.41 189.41 150.434C190.421 152.783 191.744 155.782 191.773 158.552C192.875 155.94 194.05 153.366 195.315 150.83C195.46 148.685 195.394 146.53 195.119 144.398C195.115 144.377 195.119 144.356 195.131 144.339C195.143 144.322 195.161 144.311 195.181 144.307C195.201 144.303 195.222 144.307 195.239 144.319C195.256 144.331 195.268 144.349 195.272 144.369C195.654 146.236 195.802 148.143 195.713 150.047C196.672 148.137 197.698 146.26 198.786 144.407C198.881 144.24 199.116 144.407 199.03 144.574C197.338 147.822 195.766 151.141 194.289 154.498C196.365 152.708 198.763 151.326 201.355 150.424C201.47 150.386 201.551 150.548 201.436 150.591C198.609 151.806 196.021 153.514 193.796 155.634C192.738 158.095 191.73 160.575 190.771 163.074C193.59 160.319 197.448 158.509 201.178 157.54C201.307 157.506 201.341 157.697 201.216 157.735C196.902 159.03 193.546 161.47 190.258 164.421C189.875 165.43 189.501 166.443 189.136 167.458C187.74 171.301 186.414 175.171 185.158 179.067C184.554 180.93 183.955 182.802 183.37 184.669C182.742 186.684 182.248 188.809 181.452 190.753C181.376 190.939 181.04 190.896 181.083 190.672C181.526 188.742 182.067 186.836 182.704 184.96Z" fill="#263238"/>
<path d="M190.177 147.788C190.977 149.014 191.529 150.383 191.802 151.819C191.802 151.857 191.749 151.876 191.734 151.819C191.231 150.466 190.643 149.145 189.975 147.865C189.908 147.788 190.1 147.688 190.177 147.788Z" fill="#263238"/>
<path d="M198.215 157.158C199.468 156.464 200.837 156.004 202.256 155.801C202.294 155.801 202.318 155.849 202.256 155.863C201.604 156.136 200.924 156.341 200.267 156.575C199.61 156.809 198.958 157.134 198.292 157.363C198.267 157.364 198.243 157.358 198.222 157.345C198.202 157.331 198.186 157.311 198.177 157.289C198.169 157.266 198.168 157.24 198.175 157.217C198.181 157.193 198.196 157.173 198.215 157.158Z" fill="#263238"/>
<path d="M200.478 145.907C200.886 145.599 201.323 145.33 201.782 145.104C201.797 145.095 201.815 145.092 201.833 145.096C201.85 145.1 201.865 145.111 201.875 145.126C201.885 145.141 201.888 145.159 201.884 145.177C201.88 145.194 201.869 145.209 201.853 145.219C201.454 145.535 201.025 145.813 200.574 146.05C200.492 146.098 200.396 145.959 200.478 145.907Z" fill="#263238"/>
<path d="M169.823 166.981C173.069 167.936 176.333 168.824 179.578 169.774C179.861 169.86 185.33 159.388 183.36 153.992C181.529 148.996 177.335 145.262 172.335 143.562C170.02 142.779 167.173 142.129 164.723 142.659C162.547 143.137 161.008 144.913 160.304 146.957C159.345 149.727 159.661 153.036 160.184 155.864C160.603 158.52 161.705 161.024 163.381 163.132C165.097 165.171 167.297 166.231 169.823 166.981Z" fill="#754DA4"/>
<path d="M165.121 157.024C167.172 158.023 169.299 158.858 171.482 159.522C172.938 159.913 174.359 160.425 175.729 161.054C174.363 158.008 172.853 155.028 171.261 152.077C169.162 151.47 166.947 150.529 165.38 149.049C165.362 149.034 165.351 149.012 165.349 148.989C165.347 148.966 165.355 148.943 165.37 148.925C165.386 148.907 165.407 148.896 165.431 148.894C165.454 148.893 165.477 148.9 165.495 148.915C167.225 150.133 169.133 150.864 171.046 151.685C170.614 150.892 170.177 150.096 169.732 149.297C169.613 149.078 169.915 148.858 170.063 149.073C171.768 151.541 173.308 154.117 174.674 156.785C175.024 154.446 175.136 152.079 175.01 149.718C175.008 149.71 175.007 149.703 175.008 149.695C175.009 149.688 175.012 149.681 175.017 149.675C175.021 149.668 175.027 149.664 175.034 149.66C175.04 149.657 175.048 149.655 175.056 149.655C175.063 149.655 175.071 149.657 175.077 149.66C175.084 149.664 175.09 149.668 175.094 149.675C175.099 149.681 175.102 149.688 175.103 149.695C175.104 149.703 175.103 149.71 175.101 149.718C175.507 152.292 175.481 154.916 175.024 157.482C176.16 159.746 177.196 162.067 178.131 164.412C178.5 163.003 178.979 161.613 179.3 160.19C179.795 158.16 179.957 156.064 179.779 153.982C179.779 153.92 179.861 153.915 179.871 153.982C180.448 157.842 179.977 161.786 178.509 165.405C179.051 166.838 179.569 168.237 180.043 169.655C182.491 176.908 183.942 184.458 184.357 192.1C184.357 192.136 184.343 192.172 184.317 192.198C184.29 192.224 184.255 192.238 184.218 192.238C184.181 192.238 184.146 192.224 184.12 192.198C184.094 192.172 184.079 192.136 184.079 192.1C183.231 184.566 181.612 177.138 179.247 169.932C178.289 167.114 177.22 164.378 176.031 161.69C174.114 161.126 172.196 160.362 170.322 159.713C168.448 159.063 166.602 158.342 165.049 157.139C164.987 157.091 165.054 156.991 165.121 157.024Z" fill="#263238"/>
<path d="M162.096 153.996C164.081 154.703 165.96 155.687 167.944 156.384C168.035 156.417 167.983 156.566 167.887 156.546C165.792 156.112 163.712 155.467 162.02 154.097C161.943 154.044 162.024 153.958 162.096 153.996Z" fill="#263238"/>
<path d="M178.298 149.698C178.298 149.593 178.433 149.536 178.461 149.641C179.008 151.465 179.382 153.399 178.854 155.262C178.854 155.333 178.715 155.338 178.711 155.262C178.619 153.395 178.72 151.57 178.298 149.698Z" fill="#263238"/>
<path d="M170.092 145.51C170.724 146.416 171.027 147.509 170.95 148.61C170.95 148.676 170.835 148.719 170.816 148.61C170.576 147.569 170.173 146.618 169.857 145.606C169.855 145.578 169.863 145.551 169.878 145.527C169.893 145.504 169.914 145.485 169.94 145.475C169.966 145.464 169.995 145.462 170.022 145.468C170.049 145.475 170.073 145.489 170.092 145.51Z" fill="#263238"/>
<path d="M208.44 171.599C207.481 174.607 205.228 178.762 201.647 178.8C199.327 178.8 196.988 178.547 194.663 178.513C192.171 178.475 189.678 178.48 187.19 178.628C186.989 178.628 187.487 171.197 193.474 167.573C195.152 166.556 197.204 166.236 199.107 165.825C201.286 165.312 203.522 165.079 205.76 165.133C207.136 165.19 208.282 165.481 208.77 166.88C209.259 168.28 208.881 170.171 208.44 171.599Z" fill="#754DA4"/>
<path d="M205.851 167.845C204.413 168.218 202.927 168.643 201.465 169.106C201.846 168.694 202.25 168.304 202.673 167.936C203.301 167.415 203.991 166.981 204.662 166.546C204.72 166.508 204.686 166.398 204.614 166.427C203.198 167.013 201.974 167.982 201.082 169.225C199.265 169.813 197.463 170.457 195.727 171.169C194.528 171.657 193.379 172.258 192.295 172.964C192.643 172.212 193.059 171.493 193.537 170.815C194.332 169.789 195.406 169.216 196.446 168.49C196.467 168.477 196.482 168.457 196.488 168.433C196.494 168.409 196.49 168.384 196.478 168.363C196.465 168.342 196.444 168.327 196.421 168.322C196.397 168.316 196.372 168.32 196.351 168.332C195.26 168.799 194.279 169.488 193.472 170.355C192.664 171.221 192.048 172.247 191.663 173.366C190.431 174.261 189.305 175.292 188.307 176.441C184.343 180.925 181.222 186.89 181.213 192.974C181.213 193.122 181.448 193.16 181.476 193.012C182.492 187.044 185.101 181.459 189.031 176.842C189.314 176.513 189.606 176.202 189.899 175.887C190.984 175.741 192.077 175.66 193.172 175.643C194.448 175.643 195.713 175.83 196.983 175.935C199.073 176.102 201.384 176.131 203.268 175.08C203.286 175.07 203.301 175.053 203.308 175.033C203.315 175.013 203.314 174.99 203.306 174.971C203.298 174.951 203.282 174.935 203.263 174.926C203.243 174.917 203.221 174.916 203.2 174.922C199.001 176.446 194.572 174.516 190.378 175.424C192.182 173.711 194.297 172.357 196.609 171.432L196.998 171.279C199.696 171.599 202.544 172.301 205.171 171.427C205.187 171.422 205.201 171.412 205.21 171.397C205.218 171.382 205.221 171.364 205.216 171.348C205.212 171.331 205.201 171.317 205.186 171.309C205.171 171.3 205.154 171.298 205.137 171.303C202.596 171.933 200.161 171.14 197.659 171.016C200.387 169.956 203.167 169.106 205.904 168.065C206.096 167.979 206.1 167.769 205.851 167.845Z" fill="#263238"/>
<path d="M207.04 170.481C205.738 170.649 204.427 170.748 203.114 170.777C203.085 170.777 203.076 170.825 203.114 170.83C204.436 171.075 205.798 170.99 207.078 170.581C207.131 170.562 207.102 170.472 207.04 170.481Z" fill="#263238"/>
<path d="M198.172 167.902C197.447 168.226 196.789 168.681 196.231 169.244C196.159 169.306 196.255 169.431 196.327 169.373C196.657 169.135 196.998 168.896 197.338 168.69C197.668 168.509 197.988 168.31 198.297 168.094C198.373 168.022 198.278 167.845 198.172 167.902Z" fill="#263238"/>
<path d="M177.033 177.587C177.076 177.683 176.932 177.778 176.875 177.673C176.865 177.689 176.851 177.702 176.836 177.712C176.82 177.722 176.802 177.728 176.784 177.73C174.374 178.305 171.931 178.73 169.469 179.005C167.489 179.177 165.207 179.287 163.472 178.146C161.123 176.594 159.58 172.444 160.85 169.808C162.35 166.68 166.875 168.375 169.148 169.493C172.643 171.192 175.432 174.055 177.033 177.587Z" fill="#754DA4"/>
<path d="M178.787 179.034C177.468 177.762 176.002 176.649 174.42 175.72C173.281 173.924 171.772 172.391 169.991 171.221C169.905 171.164 169.833 171.298 169.91 171.36C171.326 172.49 172.582 173.805 173.644 175.271C171.879 174.311 170.046 173.481 168.16 172.788C167.489 171.542 166.466 170.521 165.217 169.851C165.193 169.851 165.164 169.851 165.188 169.889C166.217 170.67 167.115 171.608 167.849 172.668C166.732 172.253 165.61 171.871 164.493 171.498C164.392 171.465 164.354 171.618 164.45 171.656C166.454 172.434 168.496 173.256 170.48 174.201C168.062 174.586 165.598 174.586 163.18 174.201C163.167 174.199 163.154 174.202 163.143 174.209C163.132 174.216 163.124 174.226 163.121 174.239C163.117 174.251 163.118 174.264 163.124 174.276C163.129 174.287 163.139 174.297 163.151 174.302C165.673 175.047 168.353 175.088 170.897 174.421C172.161 175.031 173.387 175.715 174.569 176.47C173.573 176.387 172.571 176.469 171.602 176.713C169.89 177.108 168.139 177.306 166.382 177.301C166.315 177.301 166.3 177.406 166.382 177.415C169.406 177.936 172.268 176.565 175.269 176.938C176.383 177.692 177.429 178.542 178.394 179.478C180.266 181.343 181.807 183.51 182.953 185.887C184.213 188.446 184.899 191.14 185.92 193.804C185.926 193.829 185.942 193.85 185.964 193.863C185.986 193.876 186.013 193.88 186.037 193.874C186.062 193.867 186.083 193.852 186.096 193.83C186.11 193.808 186.113 193.781 186.107 193.757C185.211 188.504 182.603 182.749 178.787 179.034Z" fill="#263238"/>
<path d="M169.656 171.876C169.456 171.514 169.193 171.19 168.879 170.921C168.627 170.645 168.324 170.42 167.988 170.257C167.959 170.257 167.94 170.285 167.959 170.304C168.208 170.586 168.553 170.782 168.822 171.059C169.09 171.336 169.301 171.646 169.584 171.914C169.591 171.918 169.599 171.92 169.607 171.92C169.615 171.92 169.623 171.918 169.63 171.915C169.638 171.911 169.644 171.905 169.648 171.898C169.653 171.892 169.655 171.884 169.656 171.876Z" fill="#263238"/>
<path d="M164.666 173.494C164.215 173.385 163.741 173.394 163.285 173.299C162.831 173.191 162.383 173.058 161.943 172.902C161.931 172.9 161.919 172.902 161.908 172.908C161.898 172.914 161.889 172.923 161.885 172.935C161.88 172.946 161.88 172.958 161.883 172.97C161.887 172.981 161.895 172.991 161.905 172.998C162.731 173.504 163.7 173.729 164.666 173.638C164.68 173.632 164.693 173.623 164.702 173.61C164.711 173.597 164.716 173.582 164.716 173.566C164.716 173.55 164.711 173.535 164.702 173.522C164.693 173.51 164.68 173.5 164.666 173.494Z" fill="#263238"/>
<path d="M193.182 184.554L192.688 190.142L191.015 209H176.189L174.094 190.142L173.476 184.554H193.182Z" fill="#455A64"/>
<path d="M193.182 184.554L192.688 190.142H174.094L173.476 184.554H193.182Z" fill="#263238"/>
<path d="M194.649 183.031H172.009V187.563H194.649V183.031Z" fill="#455A64"/>
</svg>
