<svg width="209" height="209" viewBox="0 0 209 209" fill="none" xmlns="http://www.w3.org/2000/svg">
<path d="M31.5757 130.562C31.7832 130.437 32.0193 130.367 32.2615 130.359C32.5037 130.351 32.744 130.405 32.9593 130.516C33.1725 130.629 33.3773 130.763 33.5905 130.863C33.8145 130.957 34.0231 131.084 34.2091 131.239C34.3864 131.407 34.5175 131.617 34.5895 131.85C34.6457 132.085 34.671 132.327 34.6647 132.569L34.7107 134.015L40.6129 133.81L40.5753 133.848L40.5042 131.95C40.5116 131.616 40.6359 131.295 40.8553 131.043C41.3495 130.63 41.898 130.287 42.4855 130.023C42.8112 129.931 43.1588 129.956 43.4678 130.094L45.1398 130.976L45.0102 131.014L47.7649 125.789L47.8192 125.981L46.1472 125.086C45.8436 124.9 45.6145 124.613 45.4993 124.276C45.4415 124.109 45.4104 123.934 45.4073 123.757V123.289V122.817C45.3947 122.64 45.4117 122.462 45.4575 122.29C45.5516 121.941 45.7644 121.635 46.0594 121.425L47.6729 120.413L47.6144 120.668L44.4877 115.652L44.7678 115.715L43.1418 116.726C42.8173 116.902 42.4411 116.957 42.0801 116.881C41.9019 116.846 41.7309 116.781 41.5743 116.689L41.1563 116.455L40.7383 116.246C40.4844 116.129 40.2653 115.948 40.1026 115.721C39.9399 115.494 39.8392 115.228 39.8103 114.95L39.756 113.04L39.9524 113.224L34.0503 113.387L34.2133 113.211L34.2551 115.121C34.24 115.475 34.106 115.814 33.8747 116.083C33.7536 116.213 33.6125 116.323 33.4567 116.409L33.0387 116.651L32.6207 116.894C32.4767 116.991 32.3169 117.064 32.1484 117.107C31.8092 117.192 31.451 117.16 31.1326 117.015L29.4606 116.099L29.6111 116.054L26.7813 121.241L26.752 121.149L28.424 122.064C28.703 122.242 28.9114 122.511 29.0134 122.825C29.0877 123.138 29.1173 123.461 29.1012 123.782C29.1323 124.1 29.1197 124.421 29.0635 124.735C28.9777 125.05 28.7857 125.324 28.5201 125.513L26.9025 126.512V126.483L29.9999 131.499L31.5757 130.562ZM31.5757 130.562L30.0375 131.52L26.9067 126.504L28.516 125.496C28.7678 125.313 28.9493 125.049 29.0301 124.748C29.0823 124.439 29.0908 124.123 29.0552 123.812C29.0659 123.499 29.0336 123.187 28.959 122.884C28.8694 122.587 28.6805 122.33 28.424 122.156L26.752 121.27L26.6935 121.241L26.7227 121.182L29.4774 115.953L29.5275 115.853L29.6278 115.907L31.2998 116.785C31.5626 116.903 31.8578 116.926 32.1358 116.852C32.2733 116.814 32.4034 116.753 32.5204 116.672L32.9384 116.413L33.3564 116.158C33.4785 116.087 33.5885 115.996 33.6824 115.89C33.867 115.673 33.9717 115.398 33.9792 115.113L33.858 113.224V113.056H34.0294L39.9399 112.86H40.128V113.052L40.1907 114.937C40.2178 115.211 40.339 115.466 40.5335 115.661C40.6308 115.755 40.7422 115.834 40.8637 115.895L41.2817 116.108L41.6997 116.346C41.8155 116.417 41.9429 116.466 42.0759 116.492C42.3426 116.544 42.6188 116.501 42.8575 116.371L44.471 115.385L44.6424 115.276L44.7469 115.447L47.8485 120.463L47.9446 120.622L47.7858 120.718L46.1806 121.713C45.9526 121.871 45.7881 122.105 45.7167 122.374C45.6801 122.51 45.6646 122.651 45.6707 122.792V123.272V123.749C45.6698 123.891 45.6924 124.032 45.7376 124.167C45.8267 124.434 46.0034 124.664 46.2392 124.819L47.9112 125.726L48.0366 125.793L47.9697 125.918L45.1398 131.102L45.0938 131.189L45.0102 131.143L43.3382 130.236C43.0629 130.111 42.753 130.085 42.4604 130.161C42.1636 130.261 41.8822 130.401 41.6244 130.579C41.3498 130.722 41.0954 130.9 40.8679 131.11C40.6597 131.339 40.541 131.636 40.5335 131.946L40.5753 133.844V133.881H40.5376L34.694 134.032L34.6522 132.585C34.6636 132.345 34.641 132.105 34.5853 131.871C34.5142 131.642 34.3862 131.435 34.2133 131.269C34.0309 131.112 33.8249 130.985 33.603 130.893C33.3857 130.788 33.185 130.654 32.9718 130.541C32.7576 130.422 32.516 130.362 32.271 130.365C32.026 130.369 31.7863 130.437 31.5757 130.562Z" fill="#EBEBEB"/>
<path d="M32.7921 121.814C33.1368 120.906 33.7408 120.121 34.5288 119.555C35.3169 118.988 36.2541 118.666 37.2238 118.629C38.1935 118.591 39.1527 118.84 39.9821 119.344C40.8114 119.848 41.4742 120.585 41.8878 121.462C42.1689 122.061 42.327 122.71 42.3526 123.371C42.3783 124.032 42.271 124.691 42.0371 125.31C41.8032 125.928 41.4475 126.494 40.991 126.972C40.5345 127.451 39.9866 127.833 39.3798 128.096C38.7795 128.354 38.1342 128.492 37.4808 128.5C36.8274 128.509 36.1787 128.389 35.5718 128.146C34.3644 127.663 33.398 126.72 32.8841 125.525C32.3635 124.349 32.3304 123.014 32.7921 121.814ZM32.7921 121.814C32.5738 122.408 32.4747 123.039 32.5005 123.672C32.5264 124.305 32.6766 124.926 32.9426 125.5C33.3381 126.341 33.9726 127.047 34.7667 127.53C35.5609 128.012 36.4796 128.251 37.4082 128.215C38.3368 128.178 39.2342 127.87 39.9885 127.327C40.7428 126.784 41.3205 126.031 41.6495 125.162C42.0844 124.004 42.0499 122.723 41.5532 121.59C41.0565 120.458 40.1371 119.565 38.991 119.101C37.8165 118.633 36.5043 118.649 35.3419 119.147C34.1764 119.669 33.2612 120.626 32.7921 121.814Z" fill="#EBEBEB"/>
<path d="M172.266 90.6141L170.201 87.0318L169.102 87.6672C168.944 87.7566 168.764 87.8004 168.582 87.7938C168.401 87.7871 168.225 87.7303 168.074 87.6296C167.899 87.5175 167.719 87.4143 167.534 87.3202C167.372 87.2391 167.235 87.1145 167.139 86.9603C167.043 86.806 166.992 86.6282 166.991 86.4466V85.1926H162.853V86.4466C162.852 86.6282 162.801 86.806 162.705 86.9603C162.609 87.1145 162.472 87.2391 162.309 87.3202C162.126 87.4143 161.947 87.5175 161.774 87.6296C161.623 87.7307 161.446 87.7877 161.263 87.7943C161.081 87.801 160.901 87.757 160.742 87.6672L159.647 87.0318L157.586 90.6141L158.69 91.2494C158.846 91.3423 158.973 91.4765 159.058 91.6373C159.143 91.7981 159.182 91.9793 159.17 92.1607C159.17 92.2652 159.17 92.3655 159.17 92.4658C159.17 92.5662 159.17 92.6706 159.17 92.771C159.181 92.9523 159.142 93.1333 159.058 93.294C158.973 93.4547 158.846 93.589 158.69 93.6822L157.586 94.3176L159.655 97.904L160.754 97.2686C160.913 97.1782 161.093 97.1335 161.275 97.1394C161.458 97.1453 161.635 97.2016 161.787 97.3021C161.958 97.4156 162.135 97.5189 162.318 97.6114C162.48 97.6933 162.616 97.8181 162.712 97.9721C162.808 98.1262 162.859 98.3036 162.861 98.485V99.739H166.999V98.485C167.001 98.3036 167.053 98.1262 167.149 97.9721C167.245 97.8181 167.381 97.6933 167.543 97.6114C167.727 97.5189 167.906 97.4157 168.078 97.3021C168.23 97.2016 168.407 97.1453 168.589 97.1394C168.772 97.1335 168.952 97.1782 169.11 97.2686L170.21 97.904L172.275 94.3176L171.175 93.6822C171.019 93.59 170.892 93.4565 170.807 93.2965C170.722 93.1364 170.683 92.956 170.694 92.7751C170.694 92.6706 170.694 92.5703 170.694 92.4658C170.694 92.3613 170.694 92.2652 170.694 92.1607C170.683 91.9788 170.722 91.7972 170.808 91.6362C170.893 91.4753 171.022 91.3414 171.179 91.2494L172.266 90.6141ZM168.312 92.4658C168.312 93.1365 168.113 93.7921 167.74 94.3496C167.368 94.9072 166.838 95.3417 166.218 95.5982C165.599 95.8546 164.917 95.9215 164.259 95.7904C163.601 95.6592 162.997 95.3359 162.523 94.8614C162.049 94.3869 161.727 93.7825 161.597 93.1246C161.466 92.4667 161.534 91.785 161.791 91.1656C162.048 90.5463 162.484 90.0171 163.042 89.6451C163.6 89.2731 164.255 89.075 164.926 89.0759C165.824 89.077 166.686 89.4346 167.32 90.0702C167.955 90.7059 168.312 91.5675 168.312 92.4658Z" fill="#EBEBEB"/>
<path d="M31.0699 142.563L28.9799 138.977L27.9057 139.612C27.7469 139.702 27.5664 139.746 27.3841 139.739C27.2019 139.733 27.025 139.675 26.8732 139.574C26.7018 139.466 26.5221 139.361 26.3382 139.265C26.1757 139.184 26.0389 139.059 25.943 138.905C25.847 138.751 25.7957 138.573 25.7948 138.391V137.137H21.6524V138.391C21.6514 138.573 21.6001 138.751 21.5042 138.905C21.4083 139.059 21.2715 139.184 21.109 139.265C20.9251 139.361 20.7453 139.466 20.574 139.574C20.4222 139.675 20.2453 139.733 20.063 139.739C19.8808 139.746 19.7002 139.702 19.5415 139.612L18.4463 138.977L16.3563 142.563L17.4599 143.194C17.6227 143.283 17.7573 143.416 17.8482 143.578C17.9391 143.74 17.9827 143.924 17.974 144.11C17.974 144.21 17.974 144.31 17.974 144.415C17.974 144.519 17.974 144.615 17.974 144.716C17.986 144.897 17.9479 145.078 17.8639 145.238C17.7798 145.399 17.653 145.534 17.4975 145.627L16.3898 146.267L18.4798 149.849L19.5457 149.226C19.7044 149.136 19.885 149.092 20.0672 149.099C20.2495 149.106 20.4263 149.163 20.5781 149.264C20.7495 149.376 20.9293 149.477 21.109 149.573C21.2721 149.653 21.4094 149.778 21.5055 149.932C21.6015 150.087 21.6524 150.265 21.6524 150.447V151.701H25.7948V150.447C25.792 150.263 25.8412 150.083 25.9366 149.926C26.032 149.769 26.1698 149.642 26.334 149.56C26.5137 149.464 26.6935 149.364 26.8649 149.251C27.0167 149.15 27.1935 149.093 27.3758 149.086C27.558 149.08 27.7386 149.124 27.8973 149.213L28.9967 149.849L31.0867 146.267L29.9831 145.631C29.8269 145.539 29.6996 145.404 29.6155 145.243C29.5313 145.082 29.4936 144.901 29.5066 144.72C29.5066 144.62 29.5066 144.515 29.5066 144.415C29.5066 144.315 29.5066 144.21 29.5066 144.11C29.4947 143.928 29.5332 143.746 29.6181 143.584C29.7029 143.423 29.8307 143.288 29.9873 143.194L31.0699 142.563ZM27.1115 144.415C27.1107 145.085 26.911 145.74 26.5378 146.298C26.1647 146.855 25.6347 147.288 25.0149 147.544C24.3952 147.8 23.7135 147.866 23.056 147.735C22.3986 147.603 21.795 147.279 21.3215 146.805C20.848 146.33 20.5258 145.726 20.3958 145.068C20.2659 144.41 20.3338 143.729 20.5912 143.11C20.8485 142.49 21.2837 141.961 21.8416 141.59C22.3995 141.218 23.0552 141.02 23.7257 141.021C24.171 141.021 24.612 141.109 25.0233 141.279C25.4346 141.45 25.8082 141.7 26.1228 142.015C26.4373 142.331 26.6865 142.705 26.8562 143.117C27.0258 143.528 27.1126 143.97 27.1115 144.415Z" fill="#EBEBEB"/>
<path d="M54.7037 53.086L18.0827 53.0316C18.0827 53.0316 19.9052 50.6616 21.9157 50.369C21.9157 50.369 25.8366 38.7528 32.3657 38.665C38.456 38.6232 40.872 45.8546 40.872 45.8546C40.872 45.8546 43.6935 42.6193 46.3813 44.1032C49.069 45.5871 50.578 49.8339 50.578 49.8339C50.578 49.8339 53.6085 51.4683 54.7037 53.086Z" fill="#EBEBEB"/>
<path d="M144.628 39.4384L190.938 39.5094C190.938 39.5094 190.938 36.55 184.564 35.9648C184.564 35.9648 178.758 23.0068 169.863 24.7457C164.303 25.8199 161.461 33.4401 161.461 33.4401C161.461 33.4401 157.281 27.4501 153.937 28.6038C150.593 29.7575 148.591 36.1278 148.591 36.1278C148.591 36.1278 145.134 37.7664 144.628 39.4384Z" fill="#EBEBEB"/>
<path d="M65.9938 25.7405L97.4818 25.7906C97.4818 25.7906 94.514 23.0193 93.1931 23.0193C91.8722 23.0193 88.035 13.723 83.1068 14.1117C78.1785 14.5005 75.5577 21.41 75.5577 21.41C75.5577 21.41 69.5719 19.5248 65.9938 25.7405Z" fill="#EBEBEB"/>
<path d="M139.052 63.791L165.979 63.8328C165.979 63.8328 164.642 62.0856 163.166 61.8682C163.166 61.8682 160.311 53.316 155.504 53.2491C151.036 53.1864 149.234 58.495 149.234 58.495C149.234 58.495 147.169 56.1082 145.188 57.195C143.207 58.2818 142.087 61.4001 142.087 61.4001C142.087 61.4001 139.859 62.5956 139.052 63.791Z" fill="#EBEBEB"/>
<path d="M39.8981 137.844L49.0147 136.306L56.9065 128.272L71.0182 142.943L80.7827 136.878L87.6671 142.475L101.156 127.657L111.773 126.675L123.151 109.834L135.52 122.223L142.822 110.92L147.378 110.268L153.439 99.0367L165.277 118.628L181.83 183.009H18.5926L39.8981 137.844Z" fill="#DBDBDB"/>
<path d="M41.5199 159.388L41.265 159.057L54.9963 148.348L75.0268 146.634L75.0603 146.643L92.7333 151.324L108.195 137.907L108.254 137.894L129.919 134.784L146.058 123.925L153.54 106.853L153.924 107.025L146.392 124.205L146.342 124.238L130.073 135.185L130.023 135.19L108.375 138.3L92.8378 151.788L92.7333 151.759L74.9892 147.057L55.1551 148.758L41.5199 159.388Z" fill="white"/>
<path d="M42.1302 159.141C42.1302 159.515 42.0194 159.88 41.8118 160.191C41.6042 160.501 41.3091 160.743 40.9639 160.886C40.6187 161.029 40.2388 161.067 39.8723 160.994C39.5058 160.921 39.1691 160.741 38.9049 160.477C38.6406 160.213 38.4607 159.876 38.3878 159.51C38.3149 159.143 38.3523 158.763 38.4953 158.418C38.6383 158.073 38.8805 157.778 39.1912 157.57C39.5019 157.362 39.8672 157.252 40.2409 157.252C40.7419 157.252 41.2225 157.451 41.5768 157.805C41.9312 158.159 42.1302 158.64 42.1302 159.141Z" fill="#DBDBDB"/>
<path d="M40.2408 161.239C39.8275 161.239 39.4234 161.117 39.0797 160.887C38.736 160.657 38.4681 160.331 38.3099 159.949C38.1518 159.567 38.1104 159.147 38.191 158.742C38.2717 158.336 38.4707 157.964 38.763 157.671C39.0553 157.379 39.4277 157.18 39.8331 157.099C40.2385 157.019 40.6588 157.06 41.0407 157.218C41.4226 157.377 41.749 157.644 41.9786 157.988C42.2083 158.332 42.3308 158.736 42.3308 159.149C42.3308 159.704 42.1107 160.235 41.7187 160.627C41.3268 161.019 40.7952 161.239 40.2408 161.239ZM40.2408 157.477C39.9102 157.477 39.5869 157.575 39.3119 157.759C39.037 157.943 38.8227 158.204 38.6961 158.509C38.5696 158.815 38.5365 159.151 38.601 159.476C38.6655 159.8 38.8247 160.098 39.0586 160.332C39.2924 160.565 39.5903 160.725 39.9147 160.789C40.239 160.854 40.5752 160.821 40.8807 160.694C41.1862 160.568 41.4473 160.353 41.6311 160.078C41.8148 159.803 41.9128 159.48 41.9128 159.149C41.9151 158.928 41.8734 158.709 41.7904 158.504C41.7074 158.3 41.5846 158.113 41.4291 157.956C41.2736 157.799 41.0885 157.675 40.8846 157.589C40.6806 157.504 40.4618 157.461 40.2408 157.461V157.477Z" fill="white"/>
<path d="M56.8773 148.553C56.8773 148.927 56.7664 149.292 56.5588 149.603C56.3512 149.913 56.0562 150.156 55.7109 150.299C55.3657 150.442 54.9858 150.479 54.6193 150.406C54.2528 150.333 53.9161 150.153 53.6519 149.889C53.3877 149.625 53.2077 149.288 53.1348 148.922C53.0619 148.555 53.0994 148.175 53.2424 147.83C53.3854 147.485 53.6275 147.19 53.9382 146.982C54.2489 146.775 54.6142 146.664 54.9879 146.664C55.4886 146.665 55.9686 146.864 56.3227 147.218C56.6767 147.572 56.8762 148.052 56.8773 148.553Z" fill="#DBDBDB"/>
<path d="M54.9879 150.651C54.5745 150.651 54.1705 150.529 53.8268 150.299C53.4831 150.07 53.2152 149.743 53.057 149.361C52.8988 148.979 52.8574 148.559 52.9381 148.154C53.0187 147.748 53.2178 147.376 53.51 147.084C53.8023 146.791 54.1747 146.592 54.5802 146.512C54.9856 146.431 55.4058 146.472 55.7877 146.631C56.1696 146.789 56.496 147.057 56.7257 147.4C56.9553 147.744 57.0779 148.148 57.0779 148.561C57.0779 149.116 56.8577 149.647 56.4658 150.039C56.0738 150.431 55.5422 150.651 54.9879 150.651ZM54.9879 146.889C54.6572 146.889 54.3339 146.987 54.059 147.171C53.784 147.355 53.5697 147.616 53.4432 147.922C53.3166 148.227 53.2835 148.563 53.348 148.888C53.4125 149.212 53.5718 149.51 53.8056 149.744C54.0394 149.978 54.3374 150.137 54.6617 150.201C54.986 150.266 55.3222 150.233 55.6277 150.106C55.9333 149.98 56.1944 149.765 56.3781 149.49C56.5618 149.215 56.6599 148.892 56.6599 148.561C56.6621 148.34 56.6205 148.121 56.5375 147.916C56.4544 147.712 56.3316 147.525 56.1761 147.368C56.0207 147.211 55.8356 147.087 55.6316 147.002C55.4277 146.916 55.2089 146.873 54.9879 146.873V146.889Z" fill="white"/>
<path d="M76.912 146.559C76.912 146.933 76.8011 147.298 76.5933 147.609C76.3855 147.92 76.0902 148.162 75.7447 148.305C75.3992 148.448 75.0191 148.485 74.6525 148.412C74.2859 148.339 73.9492 148.158 73.6852 147.894C73.4211 147.629 73.2415 147.292 73.1691 146.925C73.0966 146.558 73.1347 146.178 73.2783 145.833C73.4219 145.488 73.6648 145.193 73.976 144.986C74.2873 144.779 74.653 144.669 75.0268 144.67C75.2747 144.67 75.5202 144.719 75.7492 144.814C75.9782 144.909 76.1862 145.048 76.3613 145.223C76.5364 145.399 76.6752 145.607 76.7697 145.836C76.8642 146.066 76.9125 146.311 76.912 146.559Z" fill="#DBDBDB"/>
<path d="M75.0101 148.658C74.5967 148.658 74.1927 148.535 73.849 148.305C73.5053 148.076 73.2374 147.749 73.0792 147.367C72.921 146.985 72.8796 146.565 72.9602 146.16C73.0409 145.754 73.2399 145.382 73.5322 145.09C73.8245 144.797 74.1969 144.598 74.6024 144.518C75.0078 144.437 75.428 144.478 75.8099 144.637C76.1918 144.795 76.5182 145.063 76.7479 145.406C76.9775 145.75 77.1001 146.154 77.1001 146.568C77.1001 147.122 76.8799 147.653 76.4879 148.045C76.096 148.437 75.5644 148.658 75.0101 148.658ZM75.0101 144.896C74.6794 144.896 74.3561 144.994 74.0812 145.177C73.8062 145.361 73.5919 145.622 73.4654 145.928C73.3388 146.233 73.3057 146.569 73.3702 146.894C73.4347 147.218 73.594 147.516 73.8278 147.75C74.0616 147.984 74.3596 148.143 74.6839 148.207C75.0082 148.272 75.3444 148.239 75.6499 148.112C75.9555 147.986 76.2166 147.771 76.4003 147.496C76.584 147.221 76.6821 146.898 76.6821 146.568C76.6843 146.347 76.6427 146.127 76.5597 145.923C76.4766 145.718 76.3538 145.531 76.1983 145.374C76.0428 145.217 75.8578 145.093 75.6538 145.008C75.4499 144.923 75.2311 144.879 75.0101 144.879V144.896Z" fill="white"/>
<path d="M92.6999 153.49C93.7433 153.49 94.5892 152.644 94.5892 151.6C94.5892 150.557 93.7433 149.711 92.6999 149.711C91.6564 149.711 90.8105 150.557 90.8105 151.6C90.8105 152.644 91.6564 153.49 92.6999 153.49Z" fill="#DBDBDB"/>
<path d="M92.6999 153.699C92.2865 153.699 91.8824 153.576 91.5387 153.346C91.195 153.117 90.9271 152.79 90.769 152.408C90.6108 152.027 90.5694 151.606 90.65 151.201C90.7307 150.796 90.9297 150.423 91.222 150.131C91.5143 149.839 91.8867 149.639 92.2921 149.559C92.6975 149.478 93.1178 149.52 93.4997 149.678C93.8816 149.836 94.208 150.104 94.4376 150.448C94.6673 150.791 94.7899 151.195 94.7899 151.609C94.7899 152.163 94.5697 152.695 94.1777 153.087C93.7858 153.478 93.2542 153.699 92.6999 153.699ZM92.6999 149.937C92.3692 149.937 92.0459 150.035 91.7709 150.218C91.496 150.402 91.2817 150.663 91.1551 150.969C91.0286 151.274 90.9955 151.611 91.06 151.935C91.1245 152.259 91.2837 152.557 91.5176 152.791C91.7514 153.025 92.0493 153.184 92.3737 153.249C92.698 153.313 93.0342 153.28 93.3397 153.153C93.6452 153.027 93.9064 152.813 94.0901 152.538C94.2738 152.263 94.3719 151.939 94.3719 151.609C94.3741 151.388 94.3325 151.168 94.2494 150.964C94.1664 150.759 94.0436 150.573 93.8881 150.416C93.7326 150.259 93.5475 150.134 93.3436 150.049C93.1396 149.964 92.9209 149.92 92.6999 149.92V149.937Z" fill="white"/>
<path d="M110.172 138.316C110.172 138.69 110.061 139.055 109.854 139.366C109.646 139.677 109.351 139.919 109.006 140.062C108.661 140.205 108.281 140.242 107.914 140.169C107.548 140.096 107.211 139.916 106.947 139.652C106.683 139.388 106.503 139.051 106.43 138.685C106.357 138.318 106.394 137.938 106.537 137.593C106.68 137.248 106.923 136.953 107.233 136.745C107.544 136.538 107.909 136.427 108.283 136.427C108.784 136.427 109.265 136.626 109.619 136.98C109.973 137.335 110.172 137.815 110.172 138.316Z" fill="#DBDBDB"/>
<path d="M108.283 140.415C107.87 140.415 107.465 140.292 107.122 140.062C106.778 139.833 106.51 139.506 106.352 139.124C106.194 138.743 106.152 138.322 106.233 137.917C106.314 137.511 106.513 137.139 106.805 136.847C107.097 136.554 107.47 136.355 107.875 136.275C108.281 136.194 108.701 136.236 109.083 136.394C109.465 136.552 109.791 136.82 110.021 137.163C110.25 137.507 110.373 137.911 110.373 138.325C110.373 138.879 110.153 139.411 109.761 139.802C109.369 140.194 108.837 140.415 108.283 140.415ZM108.283 136.653C107.952 136.653 107.629 136.751 107.354 136.934C107.079 137.118 106.865 137.379 106.738 137.685C106.612 137.99 106.579 138.326 106.643 138.651C106.708 138.975 106.867 139.273 107.101 139.507C107.334 139.741 107.632 139.9 107.957 139.964C108.281 140.029 108.617 139.996 108.923 139.869C109.228 139.743 109.489 139.528 109.673 139.254C109.857 138.979 109.955 138.655 109.955 138.325C109.957 138.104 109.915 137.884 109.832 137.68C109.749 137.475 109.627 137.289 109.471 137.132C109.316 136.974 109.131 136.85 108.927 136.765C108.723 136.68 108.504 136.636 108.283 136.636V136.653Z" fill="white"/>
<path d="M131.883 134.822C131.882 135.195 131.769 135.56 131.56 135.87C131.352 136.179 131.056 136.42 130.71 136.562C130.364 136.703 129.985 136.739 129.619 136.665C129.253 136.591 128.917 136.41 128.653 136.145C128.39 135.88 128.211 135.543 128.14 135.176C128.068 134.81 128.106 134.43 128.25 134.086C128.394 133.741 128.637 133.447 128.948 133.24C129.259 133.033 129.624 132.923 129.998 132.924C130.246 132.925 130.492 132.974 130.722 133.07C130.951 133.166 131.159 133.306 131.334 133.482C131.509 133.658 131.648 133.867 131.742 134.097C131.836 134.327 131.884 134.573 131.883 134.822Z" fill="#DBDBDB"/>
<path d="M129.998 136.92C129.585 136.92 129.181 136.798 128.837 136.568C128.493 136.338 128.225 136.012 128.067 135.63C127.909 135.248 127.868 134.828 127.948 134.422C128.029 134.017 128.228 133.645 128.52 133.352C128.812 133.06 129.185 132.861 129.59 132.78C129.996 132.7 130.416 132.741 130.798 132.899C131.18 133.057 131.506 133.325 131.736 133.669C131.965 134.013 132.088 134.417 132.088 134.83C132.088 135.384 131.868 135.916 131.476 136.308C131.084 136.7 130.552 136.92 129.998 136.92ZM129.998 133.158C129.667 133.158 129.344 133.256 129.069 133.44C128.794 133.624 128.58 133.885 128.453 134.19C128.327 134.496 128.294 134.832 128.358 135.156C128.423 135.481 128.582 135.779 128.816 136.012C129.05 136.246 129.347 136.405 129.672 136.47C129.996 136.535 130.332 136.501 130.638 136.375C130.943 136.248 131.204 136.034 131.388 135.759C131.572 135.484 131.67 135.161 131.67 134.83C131.672 134.609 131.63 134.391 131.546 134.186C131.463 133.982 131.34 133.796 131.185 133.64C131.029 133.483 130.844 133.359 130.641 133.274C130.437 133.189 130.219 133.146 129.998 133.146V133.158Z" fill="white"/>
<path d="M148.127 124.113C148.127 124.486 148.016 124.852 147.808 125.163C147.6 125.474 147.305 125.716 146.959 125.859C146.614 126.001 146.234 126.039 145.867 125.965C145.501 125.892 145.164 125.712 144.9 125.447C144.636 125.182 144.456 124.845 144.384 124.479C144.311 124.112 144.349 123.732 144.493 123.387C144.637 123.042 144.879 122.747 145.191 122.54C145.502 122.333 145.868 122.222 146.241 122.223C146.489 122.223 146.735 122.272 146.964 122.367C147.193 122.462 147.401 122.601 147.576 122.777C147.751 122.952 147.89 123.161 147.984 123.39C148.079 123.619 148.127 123.865 148.127 124.113Z" fill="#DBDBDB"/>
<path d="M146.241 126.211C145.828 126.211 145.424 126.088 145.08 125.859C144.737 125.629 144.469 125.303 144.311 124.921C144.152 124.539 144.111 124.119 144.192 123.713C144.272 123.308 144.471 122.935 144.764 122.643C145.056 122.351 145.428 122.152 145.834 122.071C146.239 121.991 146.659 122.032 147.041 122.19C147.423 122.348 147.75 122.616 147.979 122.96C148.209 123.304 148.331 123.708 148.331 124.121C148.331 124.675 148.111 125.207 147.719 125.599C147.327 125.991 146.796 126.211 146.241 126.211ZM146.241 122.449C145.911 122.449 145.588 122.547 145.313 122.731C145.038 122.915 144.823 123.176 144.697 123.481C144.57 123.787 144.537 124.123 144.602 124.447C144.666 124.772 144.825 125.069 145.059 125.303C145.293 125.537 145.591 125.696 145.915 125.761C146.24 125.825 146.576 125.792 146.881 125.666C147.187 125.539 147.448 125.325 147.632 125.05C147.815 124.775 147.913 124.452 147.913 124.121C147.916 123.9 147.874 123.681 147.791 123.476C147.708 123.271 147.585 123.085 147.43 122.928C147.274 122.771 147.089 122.646 146.885 122.561C146.681 122.476 146.462 122.432 146.241 122.432V122.449Z" fill="white"/>
<path d="M155.709 106.945C155.709 107.319 155.598 107.684 155.391 107.995C155.183 108.306 154.888 108.548 154.543 108.691C154.198 108.834 153.818 108.871 153.451 108.798C153.085 108.725 152.748 108.545 152.484 108.281C152.22 108.017 152.04 107.68 151.967 107.314C151.894 106.947 151.931 106.567 152.074 106.222C152.217 105.877 152.459 105.582 152.77 105.374C153.081 105.167 153.446 105.056 153.82 105.056C154.068 105.055 154.314 105.104 154.543 105.199C154.773 105.293 154.981 105.433 155.157 105.608C155.333 105.784 155.472 105.992 155.566 106.222C155.661 106.451 155.71 106.697 155.709 106.945Z" fill="#DBDBDB"/>
<path d="M153.824 109.039C153.411 109.039 153.007 108.917 152.663 108.687C152.319 108.458 152.051 108.131 151.893 107.749C151.735 107.367 151.694 106.947 151.774 106.542C151.855 106.136 152.054 105.764 152.346 105.472C152.638 105.179 153.011 104.98 153.416 104.9C153.822 104.819 154.242 104.86 154.624 105.019C155.006 105.177 155.332 105.445 155.562 105.788C155.791 106.132 155.914 106.536 155.914 106.949C155.914 107.504 155.694 108.035 155.302 108.427C154.91 108.819 154.378 109.039 153.824 109.039ZM153.824 105.277C153.493 105.277 153.17 105.376 152.895 105.559C152.62 105.743 152.406 106.004 152.279 106.31C152.153 106.615 152.12 106.951 152.184 107.276C152.249 107.6 152.408 107.898 152.642 108.132C152.876 108.366 153.173 108.525 153.498 108.589C153.822 108.654 154.158 108.621 154.464 108.494C154.769 108.368 155.03 108.153 155.214 107.878C155.398 107.603 155.496 107.28 155.496 106.949C155.498 106.729 155.456 106.51 155.372 106.306C155.289 106.101 155.166 105.916 155.011 105.759C154.855 105.603 154.67 105.478 154.467 105.393C154.263 105.309 154.045 105.265 153.824 105.265V105.277Z" fill="white"/>
<path d="M76.4188 196.41C108.815 196.41 135.077 194.05 135.077 191.139C135.077 188.228 108.815 185.868 76.4188 185.868C44.0229 185.868 17.7608 188.228 17.7608 191.139C17.7608 194.05 44.0229 196.41 76.4188 196.41Z" fill="#EBEBEB"/>
<path d="M133.685 129.258H114.519V183.021H133.685V129.258Z" fill="#3F8F61"/>
<g opacity="0.1">
<path d="M133.685 129.258H129.296V183.021H133.685V129.258Z" fill="black"/>
</g>
<path d="M158.936 108.939H139.771V183.021H158.936V108.939Z" fill="#3F8F61"/>
<g opacity="0.1">
<path d="M158.932 108.939H154.543V183.021H158.932V108.939Z" fill="black"/>
</g>
<path d="M108.492 141.363H89.3266V183.017H108.492V141.363Z" fill="#3F8F61"/>
<g opacity="0.1">
<path d="M108.492 141.363H104.103V183.017H108.492V141.363Z" fill="black"/>
</g>
<path d="M184.183 81.8778H165.018V183.017H184.183V81.8778Z" fill="#3F8F61"/>
<g opacity="0.1">
<path d="M184.183 81.8778H179.794V183.017H184.183V81.8778Z" fill="black"/>
</g>
<path d="M82.5383 166.87V156.503C82.5383 156.503 152.344 150.564 180.543 73.2335L183.347 73.9567C183.347 73.9567 164.617 153.218 82.5383 166.87Z" fill="#37474F"/>
<path d="M185.964 76.5566L177.144 73.639L184.451 66.3533L185.964 76.5566Z" fill="#37474F"/>
<path d="M16.302 183.021L38.3515 182.917L60.401 182.883L104.5 182.812L148.599 182.879L170.649 182.917L192.698 183.021L170.649 183.122L148.599 183.159L104.5 183.23L60.401 183.159L38.3515 183.122L16.302 183.021Z" fill="#263238"/>
<path d="M123.899 40.128C125.153 47.234 120.973 54.9587 111.844 57.822C103.547 60.4261 94.1587 56.1082 92.0938 50.6407C89.9076 44.8473 93.632 39.292 98.3011 38.8113C102.799 38.3306 106.377 40.8094 109.704 39.4634C111.297 38.8155 113.082 36.5374 115.393 35.4673C117.972 34.276 123.101 35.5718 123.899 40.128Z" fill="#263238"/>
<path d="M95.4921 55.5063C97.8348 57.3368 100.606 58.5395 103.543 59.0008C106.481 59.4524 109.484 59.2236 112.321 58.332C115.186 57.4867 117.772 55.8871 119.807 53.7006C121.799 51.4894 123.154 48.7793 123.728 45.8589C123.035 48.7142 121.625 51.3456 119.632 53.5041C118.625 54.5615 117.481 55.4783 116.229 56.2295C114.975 56.9734 113.634 57.5602 112.237 57.9767C110.84 58.4025 109.403 58.6826 107.948 58.8127C105.025 59.0708 102.082 58.6414 99.3544 57.5587C97.9828 57.0463 96.6843 56.3563 95.4921 55.5063Z" fill="#263238"/>
<path d="M97.0512 38.6859C97.9208 38.4139 98.8279 38.2813 99.739 38.293C100.643 38.2954 101.544 38.4034 102.423 38.6148C103.309 38.8322 104.203 39.0328 105.106 39.1917C106.016 39.3651 106.943 39.4324 107.869 39.3923C108.337 39.3679 108.801 39.3021 109.257 39.1959C109.711 39.0671 110.146 38.8802 110.553 38.6399C111.33 38.1514 112.077 37.6153 112.789 37.0348C113.499 36.475 114.277 36.0073 115.105 35.6429C115.944 35.2907 116.841 35.0938 117.751 35.0618C116.829 35.025 115.909 35.167 115.042 35.4798C114.185 35.8202 113.374 36.2682 112.63 36.8133C111.878 37.3358 111.167 37.9126 110.39 38.3557C110.008 38.5827 109.597 38.7571 109.169 38.874C108.735 38.9719 108.293 39.0293 107.848 39.0454C106.055 39.1582 104.266 38.7026 102.481 38.3557C101.578 38.1707 100.656 38.0935 99.7348 38.1258C98.8151 38.16 97.9078 38.3494 97.0512 38.6859Z" fill="#263238"/>
<path d="M32.4786 53.3159C33.3606 51.2719 60.7187 50.2687 83.9762 49.9719H84.018C94.514 49.8423 104.596 48.8767 110.95 49.207C114.988 49.4201 117.149 50.879 117.638 51.4558C119.197 53.3284 122.052 59.3351 111.301 66.9218C103.167 72.6609 93.8326 77.7898 86.898 86.5678C79.9634 95.3458 76.0718 106.41 76.5651 113.951C77.0583 121.492 82.5341 128.69 81.9991 127.908C81.8319 127.666 79.7962 127.787 76.9538 126.14C73.4635 124.117 69.4089 119.836 66.6668 118.578C61.0614 116.012 53.4831 116.446 47.5642 110.444C41.29 104.141 39.7643 93.0008 36.784 84.181C33.1725 73.4677 24.8501 70.968 32.4786 53.3159Z" fill="#3F8F61"/>
<g opacity="0.2">
<path d="M32.4786 53.3159C33.3606 51.2719 60.7187 50.2687 83.9762 49.9719H84.018C94.514 49.8423 104.596 48.8767 110.95 49.207C114.988 49.4201 117.149 50.879 117.638 51.4558C119.197 53.3284 122.052 59.3351 111.301 66.9218C103.167 72.6609 93.8326 77.7898 86.898 86.5678C79.9634 95.3458 76.0718 106.41 76.5651 113.951C77.0583 121.492 82.5341 128.69 81.9991 127.908C81.8319 127.666 79.7962 127.787 76.9538 126.14C73.4635 124.117 69.4089 119.836 66.6668 118.578C61.0614 116.012 53.4831 116.446 47.5642 110.444C41.29 104.141 39.7643 93.0008 36.784 84.181C33.1725 73.4677 24.8501 70.968 32.4786 53.3159Z" fill="black"/>
</g>
<path opacity="0.1" d="M38.038 88.173C37.6409 86.8103 37.2396 85.4685 36.784 84.1811C35.8991 81.6987 34.7544 79.3169 33.3689 77.0751C33.3689 77.0751 57.893 70.9723 65.045 73.9443C68.97 75.5661 57.4792 76.5902 38.038 88.173Z" fill="black"/>
<path opacity="0.1" d="M70.9722 121.663C69.3713 120.346 67.8623 119.155 66.6292 118.599C65.1892 117.975 63.6985 117.474 62.1733 117.103C63.7492 106.916 65.5173 99.8812 69.9272 95.2163C72.732 92.2234 65.6511 109.399 70.9722 121.663Z" fill="black"/>
<path opacity="0.1" d="M40.1614 95.7806C39.7978 94.5517 39.4508 93.3102 39.1039 92.0687C47.0166 88.8752 53.7339 84.2605 53.7882 85.3389C53.8718 86.5261 45.3488 92.3781 40.1614 95.7806Z" fill="black"/>
<path d="M25.2012 75.658C25.2012 75.658 22.9398 65.626 29.8327 53.504C30.5015 52.3253 42.172 47.3427 49.9719 46.6865C57.7718 46.0302 63.7032 48.3585 72.9619 49.7002C82.2206 51.042 106.866 48.0617 112.827 49.3324C116.923 50.206 117.583 51.4767 117.583 51.4767C117.583 51.4767 112.797 49.9636 109.921 50.0096C98.5393 50.1935 78.3332 56.2252 73.033 56.1458C66.5623 56.0497 59.356 55.4645 54.1059 56.7268C48.2372 58.102 28.6372 71.9587 25.2012 75.658Z" fill="#3F8F61"/>
<path d="M89.2514 151.174C88.6285 150.484 78.5547 127.348 78.7345 126.215C78.793 125.797 100.383 119.155 100.383 119.155L106.302 134.178L92.6455 137.129C92.6455 137.129 92.5368 147.713 92.2275 148.929C91.9182 150.146 89.87 151.864 89.2514 151.174Z" fill="#AD6359"/>
<path d="M89.2514 151.174C88.9797 150.869 86.8813 146.233 84.6283 141.033C84.482 140.691 84.3315 140.344 84.1852 139.997C83.7964 139.11 83.4161 138.212 83.0357 137.321C82.8894 136.974 82.7473 136.628 82.6177 136.285C82.4756 135.942 82.3293 135.595 82.1997 135.261C81.9781 134.742 81.7817 134.232 81.5643 133.735C81.4306 133.409 81.301 133.087 81.1714 132.778L80.7994 131.858C80.6155 131.407 80.4441 130.976 80.2811 130.562C80.1682 130.286 80.0595 130.011 79.9592 129.747C79.7586 129.237 79.5788 128.769 79.4284 128.351C79.3448 128.142 79.2737 127.933 79.211 127.762C79.048 127.302 78.9268 126.926 78.8599 126.675C78.8126 126.541 78.7886 126.399 78.7888 126.257C78.7888 126.106 81.3344 125.074 84.6408 123.774C85.109 126.232 86.0996 130.667 87.9848 137.296C91.0613 148.194 92.4616 143.917 92.6204 141.761C92.6204 141.74 92.6204 141.719 92.6204 141.698C92.6204 141.827 92.6204 141.961 92.6204 142.091V142.12C92.6204 142.358 92.6204 142.601 92.5995 142.839C92.5786 143.077 92.5995 143.366 92.5995 143.629C92.5995 144.047 92.5786 144.498 92.5577 144.921C92.5368 145.343 92.5327 145.757 92.5118 146.129C92.5118 146.359 92.5117 146.58 92.4825 146.789C92.4825 146.898 92.4825 146.998 92.4825 147.103C92.4825 147.207 92.4825 147.374 92.4574 147.521C92.4574 147.805 92.424 148.06 92.3989 148.277C92.403 148.327 92.403 148.378 92.3989 148.428C92.3821 148.603 92.3555 148.778 92.3195 148.95C91.8889 150.137 89.87 151.859 89.2514 151.174Z" fill="#263238"/>
<path d="M97.3355 138.417L91.4542 120.982C91.4542 120.982 113.759 112.342 114.139 110.875C114.29 110.302 99.6805 88.9295 96.9635 80.6782C95.1577 75.1857 99.6219 69.1163 99.6219 69.1163L115.702 73.4301C115.702 73.4301 114.866 78.0281 115.406 78.9435C120.493 87.3829 134.742 110.682 133.405 118.779C132.126 126.529 97.3355 138.417 97.3355 138.417Z" fill="#263238"/>
<path d="M100.817 136.164C100.182 134.14 97.4734 125.96 96.7085 123.937C96.4911 123.352 96.2905 122.767 96.048 122.19C95.8433 121.604 95.6061 121.031 95.3374 120.472C95.3338 120.465 95.3277 120.459 95.3203 120.456C95.3129 120.453 95.3047 120.453 95.2971 120.455C95.2896 120.458 95.2831 120.463 95.279 120.47C95.2749 120.477 95.2734 120.485 95.2747 120.493C95.395 121.031 95.5443 121.563 95.722 122.085C95.8767 122.616 96.0439 123.143 96.2111 123.67C96.5371 124.71 96.8757 125.76 97.2143 126.784C97.8831 128.807 100.09 135.144 100.646 136.226C100.692 136.314 100.851 136.268 100.817 136.164Z" fill="#37474F"/>
<path d="M116.622 111.322C114.699 109.002 101.018 84.9878 100.32 83.5833C99.5969 82.3043 99.046 80.9353 98.6814 79.512C98.021 76.3812 99.0075 73.1208 100.353 70.316C100.359 70.2993 100.358 70.2813 100.352 70.2651C100.345 70.2488 100.333 70.2353 100.318 70.2269C100.303 70.2185 100.285 70.2157 100.268 70.219C100.251 70.2223 100.235 70.2315 100.224 70.2449C98.8779 72.6861 97.9374 75.4616 98.1339 78.2789C98.2533 79.714 98.6464 81.113 99.2917 82.4004C99.9522 83.809 100.684 85.1884 101.382 86.5804C102.828 89.4479 115.243 110.093 116.267 111.401C113.872 112.689 111.472 113.972 109.035 115.163C106.527 116.417 103.969 117.583 101.407 118.733C99.9605 119.379 98.5059 120.012 97.0429 120.631C96.9802 120.656 97.0094 120.756 97.0721 120.731C102.327 118.761 107.453 116.464 112.421 113.855C113.826 113.119 115.23 112.371 116.601 111.577C116.62 111.562 116.636 111.544 116.648 111.523C116.66 111.501 116.667 111.478 116.669 111.454C116.671 111.43 116.668 111.406 116.659 111.383C116.651 111.36 116.639 111.339 116.622 111.322Z" fill="#37474F"/>
<path d="M111.978 107.2C107.84 100.608 99.02 86.9064 96.9635 80.6782C95.1577 75.1857 99.6219 69.1163 99.6219 69.1163L105.813 70.7883L111.978 107.2Z" fill="#37474F"/>
<path d="M72.314 166.694C71.4404 166.368 51.832 150.467 51.4809 149.385C51.3346 148.967 53.4873 145.987 56.1875 142.446L56.2753 142.337C56.8313 141.606 67.5613 130.123 67.5613 130.123L80.1766 140.807L69.0327 152.457L68.853 152.666C68.853 152.666 73.6307 162.109 73.9024 163.338C74.1741 164.567 73.15 167.02 72.314 166.694Z" fill="#AD6359"/>
<path d="M54.8332 144.21C52.7934 146.94 51.3388 149.046 51.46 149.389C51.832 150.48 71.4195 166.364 72.314 166.694C73.2085 167.025 74.1783 164.563 73.9066 163.35C73.7436 162.602 71.9044 158.802 70.4915 155.948C71.386 157.958 72.0757 162.034 64.2215 154.209C59.3267 149.368 56.43 146.104 54.8332 144.21Z" fill="#263238"/>
<path d="M115.702 73.4301C115.702 73.4301 111.965 82.1078 108.918 84.0724C108.918 84.0724 97.8329 111.322 94.3133 118.482C89.6694 127.937 73.568 149.703 73.568 149.703L58.2274 138.045C58.2274 138.045 78.4126 113.048 78.6718 112.421C80.139 108.856 91.7468 82.6011 91.705 81.9072C91.287 74.8012 96.303 68.2302 96.303 68.2302L115.702 73.4301Z" fill="#263238"/>
<path d="M108.835 84.0892C108.68 84.2827 108.564 84.5041 108.492 84.7412C108.396 84.9586 108.304 85.1592 108.212 85.3975C108.028 85.8155 107.84 86.2753 107.66 86.7184C107.288 87.6338 106.908 88.545 106.527 89.4605C106.147 90.3759 105.767 91.2913 105.403 92.2109C105.039 93.1305 104.68 94.0041 104.396 94.9237C104.396 94.9572 104.437 94.9781 104.454 94.9237C104.947 94.0877 105.365 93.1723 105.775 92.2778C106.185 91.3833 106.582 90.472 106.958 89.5608C107.334 88.6495 107.706 87.7258 108.07 86.8062C108.241 86.3882 108.4 85.9451 108.563 85.5145C108.647 85.293 108.726 85.0673 108.805 84.8416C108.916 84.6197 108.981 84.3782 108.998 84.131C108.993 84.1143 108.985 84.0992 108.973 84.087C108.96 84.0749 108.945 84.0662 108.928 84.062C108.912 84.0577 108.894 84.058 108.878 84.0628C108.861 84.0675 108.846 84.0767 108.835 84.0892Z" fill="#37474F"/>
<path d="M115.544 74.7259C114.31 76.7491 113.132 78.8014 111.782 80.7535C111.497 81.1715 111.201 81.7567 110.745 82.0075C110.652 82.0619 110.547 82.0906 110.44 82.0906C110.332 82.0906 110.227 82.0619 110.135 82.0075C109.875 81.8278 110.005 81.4683 110.114 81.2426C110.373 80.7033 110.699 80.1892 110.987 79.6625C111.276 79.1358 111.593 78.5465 111.899 77.9905C112.576 76.7365 113.178 75.4825 113.859 74.2285C113.88 74.1909 113.826 74.1575 113.805 74.1951C113.098 75.4156 112.321 76.5944 111.61 77.815L110.515 79.6834L110.005 80.5779C109.839 80.83 109.707 81.1026 109.612 81.3889C109.573 81.4943 109.556 81.6067 109.563 81.719C109.569 81.8313 109.599 81.941 109.651 82.041C109.702 82.1409 109.774 82.229 109.862 82.2996C109.95 82.3701 110.051 82.4216 110.16 82.4506C110.39 82.4899 110.627 82.4642 110.843 82.3764C111.059 82.2885 111.247 82.1419 111.384 81.9532C111.769 81.4687 112.122 80.9605 112.442 80.4316C112.806 79.8757 113.165 79.3156 113.504 78.7596C114.287 77.4686 114.977 76.1234 115.569 74.7343C115.581 74.7218 115.556 74.705 115.544 74.7259Z" fill="#37474F"/>
<path d="M110.068 82.1956C109.763 82.4506 108.601 83.9763 108.53 84.0599C108.458 84.1435 108.697 84.248 108.73 84.2145C109.269 83.5895 109.764 82.929 110.214 82.2374C110.222 82.2123 110.093 82.1705 110.068 82.1956Z" fill="#37474F"/>
<path d="M111.322 83.5373C110.278 83.6133 109.243 83.7797 108.229 84.0348C107.723 84.1434 107.221 84.2563 106.72 84.3859C106.182 84.4958 105.652 84.6439 105.135 84.829C105.129 84.8313 105.123 84.8356 105.12 84.8412C105.116 84.8468 105.114 84.8535 105.114 84.8603C105.114 84.8671 105.116 84.8738 105.12 84.8794C105.123 84.885 105.129 84.8893 105.135 84.8917C105.68 84.8608 106.222 84.7923 106.757 84.6868C107.25 84.6158 107.74 84.5322 108.229 84.436C109.282 84.2778 110.32 84.0274 111.33 83.6878C111.35 83.6867 111.369 83.6777 111.382 83.6628C111.395 83.6479 111.402 83.6284 111.401 83.6084C111.4 83.5885 111.391 83.5698 111.376 83.5564C111.361 83.5431 111.342 83.5362 111.322 83.5373Z" fill="#37474F"/>
<path d="M74.822 145.849C73.15 144.54 66.2823 139.34 64.5016 138.107C63.9916 137.752 63.4817 137.388 62.9675 137.041C62.4665 136.676 61.946 136.339 61.4084 136.03C61.4012 136.026 61.393 136.026 61.3853 136.028C61.3776 136.03 61.3708 136.034 61.3663 136.041C61.3617 136.047 61.3597 136.055 61.3605 136.063C61.3613 136.071 61.365 136.079 61.3708 136.084C61.7687 136.46 62.1873 136.813 62.6248 137.142C63.0428 137.489 63.4942 137.827 63.9289 138.17C64.7649 138.843 65.6553 139.503 66.5205 140.164C68.2218 141.451 73.6265 145.435 74.7008 145.995C74.822 146.041 74.9181 145.916 74.822 145.849Z" fill="#37474F"/>
<path d="M98.2843 69.6973C96.9908 71.4184 96.0206 73.3602 95.421 75.4281C95.1306 76.4468 94.9292 77.4887 94.8191 78.5422C94.6937 79.7252 94.7731 80.9415 94.4011 82.0869C93.9759 83.2573 93.4917 84.4054 92.9507 85.527L91.4166 89.0382L88.3945 96.0104L82.3084 110.009C81.8235 111.134 81.347 112.262 80.7827 113.353C80.2302 114.408 79.5927 115.416 78.8766 116.367C77.3843 118.386 75.7876 120.33 74.2493 122.311C71.1436 126.295 68.0211 130.253 64.9865 134.299L63.8411 135.829C63.8161 135.863 63.8411 135.909 63.8871 135.875C67.0932 131.954 70.224 127.975 73.359 123.991C74.9279 122.002 76.4898 120.006 78.0448 118.006C78.747 117.103 79.4451 116.191 80.0679 115.23C80.7177 114.212 81.2892 113.146 81.7775 112.041C83.8675 107.443 85.8238 102.757 87.8427 98.1172C89.8616 93.4774 91.9015 88.7832 93.9162 84.11C94.4332 83.0895 94.7899 81.9954 94.9738 80.8663C95.095 79.7084 95.0992 78.5506 95.2998 77.3969C95.6865 75.2154 96.4368 73.1143 97.5194 71.1812C97.7869 70.7005 98.0795 70.2324 98.3847 69.7768C98.4348 69.7099 98.3303 69.6346 98.2843 69.6973Z" fill="#37474F"/>
<path d="M63.1547 84.0774L56.5347 102.628L87.1552 113.555L93.7753 95.005L63.1547 84.0774Z" fill="#455A64"/>
<path d="M63.1561 84.0744L60.0386 92.8102L90.6592 103.738L93.7767 95.002L63.1561 84.0744Z" fill="#37474F"/>
<path d="M60.3169 89.7411L92.3863 101.186L95.4757 92.5286L63.4064 81.084L60.3169 89.7411Z" fill="#455A64"/>
<path d="M74.45 79.4619L72.686 84.3985L75.0101 85.2261L76.0133 82.4172L84.8707 85.5814L83.8675 88.3904L86.1916 89.218L87.9514 84.2773L74.45 79.4619Z" fill="#263238"/>
<path d="M85.1601 100.934L87.2505 101.68L88.7257 97.5466L86.6352 96.8006L85.1601 100.934Z" fill="#263238"/>
<path d="M63.9783 93.3834L66.0687 94.1294L67.5439 89.9957L65.4535 89.2497L63.9783 93.3834Z" fill="#263238"/>
<path d="M114.983 56.1375C120.263 64.719 126.951 72.5816 130.031 72.6401C134.178 72.7195 142.989 68.4601 147.37 65.8016C148.653 65.0283 142.413 55.151 141.037 55.9786C139.365 56.9776 130.867 62.2946 130.675 62.3406C130.257 62.4409 120.693 55.9117 118.444 54.2941C114.687 51.598 112.643 52.3295 114.983 56.1375Z" fill="#AD6359"/>
<path d="M153.728 61.5046C152.144 63.4315 147.353 66.1026 145.953 66.3032C144.553 66.5038 139.737 58.52 140.26 57.1615C140.782 55.803 146.63 49.7337 149.122 49.2195C151.613 48.7054 155.371 59.5065 153.728 61.5046Z" fill="#AD6359"/>
<path d="M145.464 50.7828C145.272 52.0912 146.923 51.5687 146.923 51.5687C146.923 51.5687 144.728 52.8979 145.054 54.3233C145.38 55.7487 147.345 54.9921 147.487 54.9419C147.37 55.013 145.397 56.2879 145.857 57.684C146.317 59.0801 148.21 58.102 148.331 58.0226C148.244 58.1229 147.103 59.4856 147.704 60.4679C148.741 62.1399 151.751 58.7499 153.352 58.7206C153.352 58.7206 153.715 61.4251 153.74 61.5045C153.74 61.5045 156.666 58.3235 156.512 56.1667C156.493 55.8527 156.368 55.5546 156.157 55.3218C155.945 55.0891 155.66 54.9358 155.35 54.8876C155.35 54.8876 156.407 53.9638 156.069 52.8519C155.893 52.2835 154.815 52.0535 154.815 52.0535C155.043 51.8324 155.205 51.5528 155.285 51.2454C155.365 50.9379 155.358 50.6145 155.266 50.3105C154.978 49.533 153.954 49.4285 153.954 49.4285C153.954 49.4285 154.392 48.3208 153.841 47.6228C152.733 46.2141 145.882 47.9822 145.464 50.7828Z" fill="#AD6359"/>
<path d="M153.791 49.3867C153.816 49.3867 153.816 49.3491 153.791 49.3491C151.294 49.3712 148.862 50.151 146.818 51.5854C146.756 51.6356 146.818 51.7568 146.885 51.7192C149.061 50.6096 151.387 49.8238 153.791 49.3867Z" fill="#263238"/>
<path d="M154.844 52.0327C154.869 52.0327 154.865 51.9825 154.844 51.9825C152.09 52.0358 149.446 53.0738 147.391 54.9085C147.32 54.9754 147.324 55.105 147.391 55.0339C148.854 53.8468 152.57 52.4089 154.844 52.0327Z" fill="#263238"/>
<path d="M148.223 58.2065C150.25 56.4384 152.641 55.4937 155.237 54.8625C155.27 54.8625 155.237 54.8082 155.237 54.8082C153.887 54.7622 152.273 55.3265 151.057 55.8741C149.917 56.3571 148.924 57.1312 148.177 58.1187C148.131 58.1773 148.181 58.2441 148.223 58.2065Z" fill="#263238"/>
<path d="M146.91 51.5687C146.514 51.8624 146.144 52.1912 145.807 52.551C145.466 52.8878 145.221 53.309 145.096 53.7716C145.049 53.9866 145.083 54.2116 145.192 54.4028C145.306 54.5937 145.468 54.752 145.66 54.8626C145.861 54.9581 146.079 55.0101 146.301 55.0151C146.523 55.0201 146.743 54.9781 146.948 54.8918L147.968 54.5156L147.132 55.222C146.762 55.5335 146.446 55.9035 146.196 56.3172C146.069 56.5014 145.984 56.7103 145.944 56.93C145.904 57.1498 145.912 57.3754 145.966 57.5921C146.018 57.7937 146.138 57.9712 146.305 58.0952C146.472 58.2191 146.677 58.282 146.885 58.2734C147.348 58.2447 147.796 58.101 148.189 57.8554L149.293 57.1992L148.457 58.1773C148.225 58.449 148.03 58.7497 147.876 59.0718C147.719 59.3694 147.653 59.7068 147.688 60.0416C147.711 60.1913 147.775 60.3319 147.872 60.4483C147.969 60.5646 148.096 60.6523 148.24 60.702C148.578 60.7601 148.926 60.7209 149.243 60.5892C149.933 60.3105 150.601 59.9794 151.241 59.5985C151.567 59.4188 151.901 59.2348 152.24 59.0676C152.57 58.8811 152.936 58.767 153.314 58.7332C152.947 58.8036 152.598 58.9457 152.286 59.1512C151.964 59.3393 151.65 59.5483 151.337 59.7532C150.712 60.1875 150.047 60.5613 149.351 60.8692C148.977 61.0431 148.56 61.1041 148.152 61.0448C147.937 60.9848 147.744 60.8643 147.595 60.6975C147.447 60.5307 147.35 60.3248 147.316 60.1043C147.261 59.6888 147.332 59.2665 147.521 58.8921C147.686 58.531 147.897 58.1924 148.148 57.8847L148.428 58.2066C147.97 58.5136 147.439 58.6939 146.889 58.7291C146.589 58.7365 146.294 58.6422 146.053 58.4615C145.823 58.2708 145.655 58.0163 145.569 57.73C145.499 57.4551 145.49 57.1686 145.54 56.8897C145.591 56.6107 145.7 56.3457 145.861 56.1124C146.14 55.6608 146.494 55.2594 146.906 54.9253L147.098 55.2555C146.84 55.3518 146.564 55.3911 146.289 55.3709C146.014 55.3507 145.747 55.2714 145.506 55.1384C145.276 54.9869 145.087 54.7799 144.958 54.5365C144.831 54.2876 144.798 54.001 144.866 53.7298C145.025 53.2432 145.314 52.8094 145.702 52.4758C146.069 52.1288 146.475 51.8245 146.91 51.5687Z" fill="#263238"/>
<path d="M141.075 55.9535C141.075 55.9535 144.043 45.7878 147.45 48.8935C148.461 49.8173 151.512 54.8166 150.522 55.4478C149.239 56.2838 147.575 54.4195 146.714 53.0902C146.714 53.0902 146.191 56.6934 143.579 57.0738C143.099 57.1366 142.611 57.0651 142.169 56.8674C141.727 56.6696 141.348 56.3533 141.075 55.9535Z" fill="#AD6359"/>
<path d="M147.136 48.6553C147.576 48.9703 147.967 49.3476 148.298 49.7755C148.637 50.1963 148.95 50.6374 149.234 51.0964C149.813 52.0145 150.311 52.9809 150.722 53.9848C150.831 54.2522 150.902 54.5336 150.931 54.8208C150.948 54.9861 150.928 55.1531 150.873 55.3098C150.814 55.484 150.695 55.6319 150.539 55.7278C150.262 55.8973 149.935 55.9626 149.615 55.9117C149.321 55.8601 149.038 55.7583 148.779 55.6108C148.302 55.3195 147.878 54.9492 147.525 54.5156C147.169 54.1017 146.845 53.6616 146.555 53.1989L146.898 53.1195C146.822 53.5276 146.709 53.9277 146.559 54.315C146.413 54.7007 146.228 55.0704 146.007 55.4185C145.783 55.7639 145.51 56.075 145.196 56.3423C144.885 56.6051 144.526 56.8065 144.139 56.9359C144.497 56.762 144.824 56.5288 145.105 56.2462C145.38 55.9618 145.614 55.6412 145.803 55.2931C145.994 54.9498 146.15 54.5886 146.271 54.2147C146.39 53.8427 146.475 53.4608 146.526 53.0735L146.58 52.5928L146.868 53.0108C147.164 53.4503 147.49 53.8693 147.842 54.2648C148.175 54.6548 148.569 54.9879 149.009 55.2513C149.195 55.3822 149.412 55.4632 149.639 55.4866C149.866 55.51 150.095 55.4751 150.304 55.3851C150.626 55.2137 150.497 54.6369 150.33 54.1645C150.149 53.6682 149.944 53.1813 149.715 52.7057C149.485 52.225 149.255 51.7443 149 51.2761C148.518 50.3112 147.89 49.427 147.136 48.6553Z" fill="#263238"/>
<path d="M134.893 59.5358L139.863 70.6755C139.863 70.6755 131.812 73.5138 129.187 72.5858C126.562 71.6578 119.155 63.8329 115.623 57.7677C112.091 51.7025 114.173 50.9083 120.004 55.0089C125.835 59.1095 130.454 61.9895 130.625 61.9143C130.796 61.839 134.893 59.5358 134.893 59.5358Z" fill="#EBEBEB"/>
<path d="M133.263 61.1785C133.263 61.1451 133.192 61.1785 133.2 61.2036C134.251 64.5059 135.48 67.7488 136.882 70.9179C136.882 70.9513 136.958 70.9179 136.945 70.8928C135.896 67.5899 134.667 64.3469 133.263 61.1785Z" fill="#263238"/>
<path d="M124.74 69.154C121.605 66.1026 117.843 61.584 115.623 57.7677C112.768 52.8604 113.587 51.4016 117.099 53.2031L124.74 69.154Z" fill="#C7C7C7"/>
<path d="M116.492 70.479L115.656 77.004C115.656 77.004 101.996 75.6413 94.9571 69.6263C94.9571 69.6263 102.481 54.549 110.11 51.3137C113.93 49.6918 116.844 51.2635 117.876 54.0767C118.139 54.7873 121.074 62.7543 120.359 65.952C119.74 68.7694 116.492 70.479 116.492 70.479Z" fill="#EBEBEB"/>
<path d="M116.204 55.4311L116.179 55.3141V55.2681C116.179 55.2681 116.204 55.2472 116.208 55.2681L116.237 55.3224C116.267 55.3977 116.296 55.4729 116.321 55.5481C116.371 55.6986 116.413 55.8533 116.455 56.0079C116.538 56.3131 116.614 56.6266 116.685 56.9359C116.827 57.5587 116.923 58.1899 117.011 58.8211C117.183 60.0896 117.24 61.3711 117.182 62.65C117.136 63.9387 116.906 65.2141 116.497 66.437C116.103 67.6779 115.396 68.7964 114.444 69.6849L114.473 69.6389C114.089 70.7884 113.688 71.9296 113.282 73.0707L112.664 74.7761C112.45 75.3404 112.246 75.9131 111.978 76.4481C112.22 75.8922 112.396 75.3154 112.597 74.7427L113.165 73.0205L114.26 69.5637V69.5386L114.281 69.5177C115.14 68.6079 115.774 67.51 116.133 66.3116C116.494 65.1114 116.71 63.8723 116.777 62.6207C116.842 61.3668 116.822 60.1099 116.718 58.8587C116.668 58.2317 116.584 57.6047 116.501 56.9777C116.459 56.66 116.409 56.3507 116.354 56.0372L116.258 55.5732C116.258 55.4938 116.225 55.4186 116.204 55.3433C116.205 55.3252 116.205 55.3071 116.204 55.289C116.204 55.289 116.204 55.3182 116.204 55.3308V55.4311Z" fill="#263238"/>
<path d="M120.137 61.1075L120.087 60.9027C120.097 60.6361 120.086 60.3691 120.054 60.1043C120.01 59.7827 119.934 59.4663 119.828 59.1596C119.828 59.1387 119.795 59.1596 119.799 59.1596C119.9 59.604 119.967 60.0553 119.999 60.5097C119.784 59.5835 119.497 58.6752 119.143 57.7927C119.143 57.7872 119.14 57.7819 119.136 57.778C119.132 57.774 119.127 57.7719 119.122 57.7719C119.116 57.7719 119.111 57.774 119.107 57.778C119.103 57.7819 119.101 57.7872 119.101 57.7927C119.377 58.8963 119.669 59.9956 119.903 61.1075C120.137 62.2194 120.321 63.3354 120.514 64.4515C120.514 64.4933 120.589 64.4807 120.585 64.4515C120.536 63.3257 120.386 62.2065 120.137 61.1075Z" fill="#263238"/>
<path d="M116.104 58.6121C116.108 58.6955 116.087 58.7783 116.044 58.8497C116 58.9211 115.937 58.978 115.861 59.0128C115.785 59.0477 115.7 59.059 115.618 59.0453C115.535 59.0316 115.459 58.9936 115.398 58.936C115.338 58.8785 115.296 58.8041 115.278 58.7225C115.26 58.6409 115.267 58.5558 115.298 58.4782C115.329 58.4006 115.382 58.334 115.451 58.2871C115.521 58.2402 115.602 58.2151 115.686 58.215C115.793 58.2148 115.896 58.256 115.974 58.3299C116.052 58.4038 116.098 58.5049 116.104 58.6121Z" fill="#263238"/>
<path d="M115.799 62.8338C116.02 62.8338 116.2 62.6542 116.2 62.4325C116.2 62.2109 116.02 62.0312 115.799 62.0312C115.577 62.0312 115.397 62.2109 115.397 62.4325C115.397 62.6542 115.577 62.8338 115.799 62.8338Z" fill="#263238"/>
<path d="M113.566 69.5176C113.788 69.5176 113.968 69.338 113.968 69.1164C113.968 68.8947 113.788 68.7151 113.566 68.7151C113.345 68.7151 113.165 68.8947 113.165 69.1164C113.165 69.338 113.345 69.5176 113.566 69.5176Z" fill="#263238"/>
<path d="M112.379 73.0413C112.601 73.0413 112.781 72.8617 112.781 72.64C112.781 72.4184 112.601 72.2388 112.379 72.2388C112.158 72.2388 111.978 72.4184 111.978 72.64C111.978 72.8617 112.158 73.0413 112.379 73.0413Z" fill="#263238"/>
<path d="M115.301 66.2573C115.523 66.2573 115.702 66.0776 115.702 65.856C115.702 65.6344 115.523 65.4547 115.301 65.4547C115.079 65.4547 114.9 65.6344 114.9 65.856C114.9 66.0776 115.079 66.2573 115.301 66.2573Z" fill="#263238"/>
<path d="M108.17 50.5781C98.2342 50.6157 90.4468 52.7266 88.6411 54.988C87.1488 56.8522 82.5257 65.02 80.5737 69.9942C80.0261 71.3903 91.17 76.3854 91.5671 74.8304C92.1857 72.4227 97.2602 60.7647 97.3146 60.5766C97.4233 60.1586 107.401 56.0664 109.951 55.1426C114.628 53.3828 113.437 50.5446 108.17 50.5781Z" fill="#AD6359"/>
<path d="M84.3106 87.872C83.9492 87.8214 83.612 87.6612 83.3445 87.4131C83.0769 87.1649 82.8918 86.8408 82.8142 86.4842C82.2575 86.7567 81.6227 86.8247 81.0209 86.6765C79.9759 86.3714 79.9968 84.5865 79.9968 84.5865C79.3607 84.7477 78.6909 84.7142 78.074 84.4904C77.1001 84.0933 76.8702 82.2959 76.8702 82.2959C76.2035 82.1223 75.6217 81.7142 75.2316 81.1464C74.2493 79.5914 75.4741 77.0583 76.2348 75.4406C76.9956 73.823 80.6698 69.9439 81.2926 69.1372L91.7426 73.9317C91.7426 73.9317 90.3925 82.1579 89.2346 83.9344C88.2231 85.4309 85.69 88.0099 84.3106 87.872Z" fill="#AD6359"/>
<path d="M83.0148 86.4884C84.4402 85.1508 85.3932 83.4621 86.4382 81.8319C86.4591 81.7943 86.4048 81.7566 86.3797 81.7943C85.3598 83.4286 84.0264 84.8415 82.9437 86.4299C82.936 86.4393 82.9323 86.4514 82.9335 86.4636C82.9346 86.4757 82.9406 86.4869 82.95 86.4947C82.9594 86.5024 82.9716 86.5061 82.9837 86.505C82.9959 86.5038 83.007 86.4978 83.0148 86.4884Z" fill="#263238"/>
<path d="M80.1515 84.6199C80.4457 84.2848 80.6945 83.9124 80.8914 83.5122C81.1254 83.0942 81.3511 82.6762 81.5727 82.2582C82.0158 81.4222 82.4421 80.5862 82.8267 79.7168C82.8267 79.6792 82.7891 79.6457 82.7682 79.6834C82.3251 80.5194 81.8737 81.3554 81.393 82.1537C81.1547 82.5717 80.9123 82.9647 80.6698 83.3701C80.4116 83.7346 80.1957 84.1273 80.0261 84.5405C80.0156 84.5571 80.0121 84.5773 80.0164 84.5965C80.0207 84.6157 80.0325 84.6324 80.0491 84.6429C80.0657 84.6535 80.0858 84.657 80.105 84.6526C80.1242 84.6483 80.141 84.6366 80.1515 84.6199Z" fill="#263238"/>
<path d="M76.8869 82.2666C77.1493 81.9602 77.3572 81.611 77.5014 81.2342C77.6978 80.8496 77.8901 80.4651 78.0907 80.0805C78.5087 79.3156 78.8808 78.5506 79.3071 77.7982C79.3116 77.7905 79.3127 77.7813 79.3104 77.7726C79.308 77.764 79.3023 77.7567 79.2946 77.7522C79.2868 77.7478 79.2776 77.7466 79.269 77.749C79.2604 77.7513 79.253 77.757 79.2486 77.7648C78.8306 78.5255 78.3708 79.2779 77.9444 80.0471C77.7354 80.4191 77.5264 80.7995 77.3216 81.1757C77.1036 81.5039 76.9438 81.8674 76.8493 82.2499C76.8493 82.2499 76.8744 82.2792 76.8869 82.2666Z" fill="#263238"/>
<path d="M94.167 69.3421L82.9396 63.8036C82.9396 63.8036 86.6639 55.406 88.9253 53.7716C91.1867 52.1372 100.813 50.4276 107.823 50.4945C114.95 50.5655 115.243 53.3787 108.546 55.8156C101.85 58.2525 97.5445 60.4721 97.5069 60.6602C97.4692 60.8483 94.167 69.3421 94.167 69.3421Z" fill="#EBEBEB"/>
<path d="M94.7899 68.0462C95.2789 66.8758 97.5654 60.7271 97.6406 60.6769C97.7995 60.5766 100.362 59.3309 101.123 58.9589C101.766 58.6454 102.418 58.3445 103.07 58.0435C103.622 57.9265 104.178 57.8094 104.717 57.6255C104.724 57.6231 104.729 57.6188 104.733 57.6132C104.737 57.6076 104.739 57.601 104.739 57.5941C104.739 57.5873 104.737 57.5807 104.733 57.5751C104.729 57.5694 104.724 57.5652 104.717 57.5628C104.334 57.614 103.954 57.6908 103.58 57.7927L105.725 56.8104C105.725 56.8104 105.725 56.7811 105.725 56.7853C104.107 57.3496 97.4776 60.2923 97.4651 60.3927C97.4525 60.493 94.7481 67.7704 94.7313 67.9167C94.7021 67.9961 94.7773 68.0797 94.7899 68.0462Z" fill="#263238"/>
<path d="M94.167 66.299C94.2047 66.299 94.2297 66.2531 94.1963 66.2363C91.1474 64.5889 88.0105 63.1097 84.7997 61.8055C84.762 61.8055 84.737 61.8473 84.7704 61.8682C87.8206 63.5132 90.9574 64.9923 94.167 66.299Z" fill="#263238"/>
<path d="M113.433 51.2259C113.433 51.6439 114.687 54.7413 116.534 55.1217C117.14 55.2429 117.955 51.9742 117.955 51.9742L118.072 51.7484L119.686 48.5591L116.363 45.0061L115.874 44.5254C115.874 44.5254 115.493 45.4241 115.038 46.5527C115.017 46.6029 114.992 46.653 114.971 46.7115C114.95 46.7701 114.917 46.8328 114.891 46.8955C114.82 47.0627 114.745 47.2299 114.678 47.4054C114.611 47.581 114.574 47.6604 114.524 47.8234L114.365 48.2414C113.989 49.2148 113.678 50.2118 113.433 51.2259Z" fill="#AD6359"/>
<path d="M115.025 46.5527C115.126 47.588 115.45 48.5891 115.976 49.4863C116.503 50.3836 117.218 51.1555 118.072 51.7484L119.686 48.5591L116.363 45.0061L115.874 44.5254C115.874 44.5254 115.493 45.4241 115.025 46.5527Z" fill="#263238"/>
<path d="M125.375 42.3017C126.629 48.4421 123.093 49.8884 121.772 50.1559C120.568 50.4025 116.442 51.0839 114.557 45.1023C112.672 39.1207 115.134 36.6002 117.855 35.9063C120.576 35.2124 124.121 36.1613 125.375 42.3017Z" fill="#AD6359"/>
<path d="M123.31 45.7251C123.191 46.0116 123.001 46.2633 122.758 46.4566C122.621 46.5563 122.456 46.6117 122.286 46.6154C121.918 46.6154 121.822 46.3019 121.814 46.0135C121.81 45.8605 121.824 45.7076 121.855 45.5579C122.31 45.7669 122.82 45.8254 123.31 45.7251Z" fill="#263238"/>
<path d="M122.762 46.4566C122.625 46.5563 122.46 46.6117 122.29 46.6154C121.922 46.6154 121.826 46.3019 121.818 46.0135C122.002 45.9693 122.196 45.9891 122.368 46.0696C122.539 46.1501 122.679 46.2866 122.762 46.4566Z" fill="#FF9BBC"/>
<path d="M123.899 40.801C123.76 40.8087 123.621 40.8087 123.481 40.801C123.329 40.8213 123.175 40.7905 123.042 40.7132C123.004 40.6815 122.978 40.6377 122.968 40.589C122.958 40.5404 122.965 40.4898 122.988 40.4457C123.043 40.3646 123.12 40.3001 123.209 40.2589C123.298 40.2177 123.396 40.2013 123.494 40.2116C123.696 40.2017 123.895 40.2656 124.054 40.3914C124.086 40.4244 124.108 40.4658 124.117 40.5107C124.126 40.5556 124.122 40.6021 124.106 40.645C124.09 40.6879 124.062 40.7253 124.025 40.7529C123.989 40.7805 123.945 40.7972 123.899 40.801Z" fill="#263238"/>
<path d="M119.966 42.193C120.106 42.1864 120.246 42.1697 120.384 42.1428C120.534 42.1441 120.681 42.0972 120.802 42.0091C120.835 41.9727 120.856 41.9265 120.86 41.8774C120.865 41.8284 120.853 41.7792 120.827 41.7374C120.762 41.6634 120.679 41.6079 120.586 41.5763C120.493 41.5448 120.393 41.5383 120.296 41.5576C120.094 41.5711 119.904 41.6572 119.761 41.8001C119.73 41.8362 119.71 41.8809 119.705 41.9283C119.699 41.9758 119.708 42.0238 119.73 42.0662C119.752 42.1085 119.786 42.1433 119.828 42.1659C119.871 42.1885 119.918 42.198 119.966 42.193Z" fill="#263238"/>
<path d="M121.141 43.3843C121.141 43.3843 121.116 43.4135 121.12 43.4303C121.228 43.8483 121.283 44.3331 120.936 44.5589C120.936 44.5589 120.936 44.5839 120.936 44.5798C121.391 44.4084 121.312 43.7605 121.141 43.3843Z" fill="#263238"/>
<path d="M120.672 43.054C119.991 43.1544 120.254 44.5087 120.877 44.4125C121.5 44.3164 121.241 42.9495 120.672 43.054Z" fill="#263238"/>
<path d="M120.417 43.1586C120.313 43.2547 120.225 43.4136 120.083 43.4554C119.941 43.4972 119.77 43.3843 119.636 43.2673C119.678 43.5264 119.828 43.7731 120.116 43.7605C120.405 43.748 120.514 43.4846 120.534 43.2088C120.514 43.1795 120.459 43.1168 120.417 43.1586Z" fill="#263238"/>
<path d="M123.419 42.8032C123.419 42.8032 123.456 42.8032 123.456 42.8325C123.519 43.2505 123.665 43.7312 124.067 43.8022C123.594 43.844 123.41 43.2129 123.419 42.8032Z" fill="#263238"/>
<path d="M123.728 42.2975C124.393 42.1219 124.689 43.4679 124.075 43.6267C123.46 43.7856 123.155 42.4396 123.728 42.2975Z" fill="#263238"/>
<path d="M124.016 42.3226C124.138 42.3686 124.271 42.4772 124.401 42.4563C124.531 42.4354 124.627 42.2641 124.689 42.1052C124.689 42.1052 124.689 42.1052 124.714 42.1052C124.777 42.3602 124.752 42.6486 124.514 42.7531C124.276 42.8576 124.096 42.6612 123.966 42.4187C123.945 42.3853 123.966 42.3017 124.016 42.3226Z" fill="#263238"/>
<path d="M123.231 44.8306C123.231 44.8306 123.444 45.4367 123.502 45.7335C123.502 45.7627 123.44 45.7878 123.339 45.8129C123.095 45.9098 122.829 45.9377 122.57 45.8935C122.312 45.8492 122.07 45.7346 121.872 45.5621C121.865 45.5576 121.861 45.5507 121.859 45.5429C121.858 45.5351 121.859 45.5269 121.864 45.5203C121.868 45.5136 121.875 45.509 121.883 45.5074C121.891 45.5059 121.899 45.5075 121.906 45.5119C122.333 45.6952 122.809 45.7334 123.26 45.6206C123.26 45.537 122.863 44.5923 122.909 44.5798C123.14 44.5489 123.375 44.5489 123.607 44.5798C123.189 43.3258 122.595 42.101 122.211 40.8178C122.211 40.7718 122.265 40.7425 122.286 40.7802C122.974 42.0508 123.534 43.3866 123.958 44.7679C124.012 44.956 123.36 44.8557 123.231 44.8306Z" fill="#263238"/>
<path d="M115.105 45.8588C116.141 45.6666 115.807 43.4846 115.807 43.4846C115.807 43.4846 117.868 42.9412 117.763 39.802C117.938 40.7045 117.846 41.6383 117.5 42.4898C117.5 42.4898 121.028 41.1438 121.747 37.6995C121.747 37.6995 121.55 39.4091 121.124 40.1113C121.97 39.586 122.613 38.7886 122.946 37.85C122.946 37.85 124.05 39.4342 124.664 39.7853C124.664 39.7853 124.464 36.4915 122.712 35.2584C119.017 32.6626 115.439 36.9053 115.439 36.9053C115.439 36.9053 113.065 38.0046 112.722 40.1239C112.195 43.3926 115.105 45.8588 115.105 45.8588Z" fill="#263238"/>
<path d="M115.824 45.2694C115.824 45.2694 114.327 43.4093 113.474 43.9527C112.622 44.4961 113.838 47.2633 114.904 47.5768C115.038 47.6274 115.18 47.6503 115.323 47.6443C115.466 47.6382 115.606 47.6033 115.735 47.5415C115.864 47.4798 115.979 47.3926 116.073 47.2851C116.167 47.1777 116.239 47.0522 116.283 46.9164L115.824 45.2694Z" fill="#AD6359"/>
<path d="M113.842 44.7261V44.7512C114.595 44.9978 115.021 45.6499 115.339 46.3312C115.291 46.2614 115.229 46.2026 115.156 46.159C115.084 46.1154 115.003 46.0879 114.919 46.0783C114.835 46.0688 114.749 46.0775 114.669 46.1038C114.589 46.1302 114.515 46.1735 114.453 46.2309C114.45 46.2349 114.449 46.2396 114.449 46.2443C114.449 46.249 114.451 46.2536 114.453 46.2576C114.456 46.2615 114.46 46.2646 114.464 46.2665C114.468 46.2685 114.473 46.2692 114.478 46.2685C114.603 46.2197 114.741 46.2108 114.872 46.243C115.003 46.2751 115.12 46.3468 115.209 46.4482C115.354 46.6206 115.481 46.8068 115.59 47.0042C115.627 47.0669 115.744 47.0042 115.715 46.9498C115.656 46.0177 114.845 44.7637 113.842 44.7261Z" fill="#263238"/>
<path d="M117.947 52.0369L116.204 54.4655L113.696 50.2395L112.48 51.1006C112.48 51.1006 114.436 57.3204 114.515 57.0822L116.187 55.0298L117.399 57.0362L118.261 52.944L117.947 52.0369Z" fill="#EBEBEB"/>
<path d="M117.935 55.0382C118.052 54.3568 118.194 53.6755 118.281 52.99C118.281 52.99 118.248 52.9482 118.235 52.99C117.943 53.6044 117.5 56.2086 117.349 56.823C117.299 56.7352 116.208 55.034 116.187 55.0549C115.857 55.3642 114.628 56.8565 114.536 56.9986C114.227 56.0079 113.006 52.4006 112.592 51.4308C112.592 51.4057 112.538 51.4308 112.546 51.4308C112.781 52.4549 114.382 57.3079 114.423 57.3079C115.048 56.6142 115.637 55.8887 116.187 55.1343C116.556 55.8726 116.975 56.5849 117.441 57.2661C117.644 56.5324 117.808 55.7887 117.935 55.0382Z" fill="#263238"/>
<path d="M113.876 50.2521C113.575 49.5415 112.764 51.0379 113.408 51.9241C114.361 53.2115 116.162 54.7372 116.559 54.7456C116.956 54.7539 118.231 53.1613 118.394 52.8144C118.557 52.4675 118.198 51.69 118.072 51.7652C117.947 51.8405 116.844 53.5334 116.689 53.6128C116.534 53.6922 114.532 51.7778 113.876 50.2521Z" fill="#3F8F61"/>
<path d="M53.7423 184.739H34.8319V188.919H53.7423V184.739Z" fill="#3F8F61"/>
<g opacity="0.1">
<path d="M35.6136 185.12C35.8923 186.217 35.8923 187.366 35.6136 188.464C35.4636 187.919 35.3932 187.356 35.4046 186.792C35.396 186.227 35.4663 185.664 35.6136 185.12Z" fill="black"/>
<path d="M37.0223 185.12C37.3009 186.217 37.3009 187.366 37.0223 188.464C36.7436 187.366 36.7436 186.217 37.0223 185.12Z" fill="black"/>
<path d="M37.7078 185.12C37.9864 186.217 37.9864 187.366 37.7078 188.464C37.4291 187.366 37.4291 186.217 37.7078 185.12Z" fill="black"/>
<path d="M41.4865 185.12C41.7652 186.217 41.7652 187.366 41.4865 188.464C41.2078 187.366 41.2078 186.217 41.4865 185.12Z" fill="black"/>
<path d="M42.5064 185.12C42.6537 185.664 42.7241 186.227 42.7154 186.792C42.7268 187.356 42.6564 187.919 42.5064 188.464C42.2278 187.366 42.2278 186.217 42.5064 185.12Z" fill="black"/>
<path d="M46.7324 185.12C46.8776 185.665 46.948 186.227 46.9414 186.792C46.9505 187.356 46.8802 187.919 46.7324 188.464C46.5824 187.919 46.512 187.356 46.5234 186.792C46.5148 186.227 46.5851 185.664 46.7324 185.12Z" fill="black"/>
<path d="M47.7063 185.12C47.985 186.217 47.985 187.366 47.7063 188.464C47.4277 187.366 47.4277 186.217 47.7063 185.12Z" fill="black"/>
<path d="M49.4996 185.12C49.6468 185.664 49.7172 186.227 49.7086 186.792C49.7199 187.356 49.6495 187.919 49.4996 188.464C49.3518 187.919 49.2814 187.356 49.2906 186.792C49.284 186.227 49.3543 185.665 49.4996 185.12Z" fill="black"/>
<path d="M45.9173 185.12C46.196 186.217 46.196 187.366 45.9173 188.464C45.6386 187.366 45.6386 186.217 45.9173 185.12Z" fill="black"/>
<path d="M38.9576 185.12C39.1028 185.665 39.1731 186.227 39.1666 186.792C39.1757 187.356 39.1054 187.919 38.9576 188.464C38.8076 187.919 38.7372 187.356 38.7486 186.792C38.74 186.227 38.8103 185.664 38.9576 185.12Z" fill="black"/>
<path d="M43.8524 185.12C44.131 186.217 44.131 187.366 43.8524 188.464C43.5737 187.366 43.5737 186.217 43.8524 185.12Z" fill="black"/>
<path d="M44.5546 185.12C44.7019 185.664 44.7722 186.227 44.7636 186.792C44.775 187.356 44.7046 187.919 44.5546 188.464C44.2759 187.366 44.2759 186.217 44.5546 185.12Z" fill="black"/>
<path d="M51.832 185.12C51.9772 185.665 52.0475 186.227 52.041 186.792C52.0524 187.356 51.982 187.919 51.832 188.464C51.6842 187.919 51.6139 187.356 51.623 186.792C51.6164 186.227 51.6868 185.665 51.832 185.12Z" fill="black"/>
<path d="M52.8937 185.12C53.1724 186.217 53.1724 187.366 52.8937 188.464C52.6151 187.366 52.6151 186.217 52.8937 185.12Z" fill="black"/>
<path d="M50.3314 185.12C50.4787 185.664 50.549 186.227 50.5404 186.792C50.5517 187.356 50.4813 187.919 50.3314 188.464C50.0527 187.366 50.0527 186.217 50.3314 185.12Z" fill="black"/>
<path d="M40.6714 185.12C40.9501 186.217 40.9501 187.366 40.6714 188.464C40.3927 187.366 40.3927 186.217 40.6714 185.12Z" fill="black"/>
</g>
<path opacity="0.1" d="M53.7423 184.739V185.625L34.8319 186.223V184.739H53.7423Z" fill="black"/>
<path d="M52.4507 180.559H33.5403V184.739H52.4507V180.559Z" fill="#3F8F61"/>
<g opacity="0.1">
<path d="M34.3178 180.944C34.5965 182.041 34.5965 183.191 34.3178 184.288C34.0391 183.191 34.0391 182.041 34.3178 180.944Z" fill="black"/>
<path d="M35.7265 180.944C36.0051 182.041 36.0051 183.191 35.7265 184.288C35.4478 183.191 35.4478 182.041 35.7265 180.944Z" fill="black"/>
<path d="M36.4162 180.944C36.5617 181.489 36.632 182.052 36.6252 182.616C36.6338 183.18 36.5634 183.743 36.4162 184.288C36.2668 183.743 36.1964 183.18 36.2072 182.616C36.1983 182.051 36.2686 181.489 36.4162 180.944Z" fill="black"/>
<path d="M40.1907 180.944C40.4694 182.041 40.4694 183.191 40.1907 184.288C39.912 183.191 39.912 182.041 40.1907 180.944Z" fill="black"/>
<path d="M41.2148 180.944C41.4935 182.041 41.4935 183.191 41.2148 184.288C41.0655 183.743 40.9951 183.18 41.0058 182.616C40.9969 182.051 41.0672 181.489 41.2148 180.944Z" fill="black"/>
<path d="M45.4366 180.944C45.7153 182.041 45.7153 183.191 45.4366 184.288C45.1579 183.191 45.1579 182.041 45.4366 180.944Z" fill="black"/>
<path d="M46.398 180.944C46.5435 181.489 46.6138 182.052 46.607 182.616C46.6177 183.18 46.5473 183.743 46.398 184.288C46.2487 183.743 46.1783 183.18 46.189 182.616C46.1822 182.052 46.2525 181.489 46.398 180.944Z" fill="black"/>
<path d="M48.2079 180.944C48.4866 182.041 48.4866 183.191 48.2079 184.288C47.9293 183.191 47.9293 182.041 48.2079 180.944Z" fill="black"/>
<path d="M44.6215 180.944C44.9002 182.041 44.9002 183.191 44.6215 184.288C44.3428 183.191 44.3428 182.041 44.6215 180.944Z" fill="black"/>
<path d="M37.666 180.944C37.9446 182.041 37.9446 183.191 37.666 184.288C37.3873 183.191 37.3873 182.041 37.666 180.944Z" fill="black"/>
<path d="M42.5566 180.944C42.8352 182.041 42.8352 183.191 42.5566 184.288C42.2779 183.191 42.2779 182.041 42.5566 180.944Z" fill="black"/>
<path d="M43.263 180.944C43.5417 182.041 43.5417 183.191 43.263 184.288C43.1137 183.743 43.0433 183.18 43.054 182.616C43.0451 182.051 43.1154 181.489 43.263 180.944Z" fill="black"/>
<path d="M50.5446 180.944C50.8232 182.041 50.8232 183.191 50.5446 184.288C50.2659 183.191 50.2659 182.041 50.5446 180.944Z" fill="black"/>
<path d="M51.5979 180.944C51.8766 182.041 51.8766 183.191 51.5979 184.288C51.3192 183.191 51.3192 182.041 51.5979 180.944Z" fill="black"/>
<path d="M49.0398 180.944C49.3184 182.041 49.3184 183.191 49.0398 184.288C48.8904 183.743 48.82 183.18 48.8308 182.616C48.8219 182.051 48.8922 181.489 49.0398 180.944Z" fill="black"/>
<path d="M39.3756 180.944C39.5232 181.489 39.5935 182.051 39.5846 182.616C39.5953 183.18 39.5249 183.743 39.3756 184.288C39.2283 183.743 39.158 183.18 39.1666 182.616C39.1598 182.052 39.2301 181.489 39.3756 180.944Z" fill="black"/>
</g>
<path opacity="0.1" d="M52.4465 180.559V181.45L33.5403 182.043V180.559H52.4465Z" fill="black"/>
<path d="M55.3725 172.237H36.4621V176.417H55.3725V172.237Z" fill="#3F8F61"/>
<g opacity="0.1">
<path d="M37.2396 172.634C37.5183 173.731 37.5183 174.881 37.2396 175.978C36.961 174.881 36.961 173.731 37.2396 172.634Z" fill="black"/>
<path d="M38.6483 172.634C38.7958 173.179 38.8662 173.742 38.8573 174.306C38.868 174.87 38.7976 175.434 38.6483 175.978C38.3696 174.881 38.3696 173.731 38.6483 172.634Z" fill="black"/>
<path d="M39.338 172.634C39.6167 173.731 39.6167 174.881 39.338 175.978C39.1887 175.434 39.1183 174.87 39.129 174.306C39.1201 173.742 39.1904 173.179 39.338 172.634Z" fill="black"/>
<path d="M43.1125 172.634C43.3912 173.731 43.3912 174.881 43.1125 175.978C42.8339 174.881 42.8339 173.731 43.1125 172.634Z" fill="black"/>
<path d="M44.1366 172.634C44.4153 173.731 44.4153 174.881 44.1366 175.978C43.858 174.881 43.858 173.731 44.1366 172.634Z" fill="black"/>
<path d="M48.3584 172.634C48.6371 173.731 48.6371 174.881 48.3584 175.978C48.0798 174.881 48.0798 173.731 48.3584 172.634Z" fill="black"/>
<path d="M49.324 172.634C49.6027 173.731 49.6027 174.881 49.324 175.978C49.1747 175.434 49.1043 174.87 49.115 174.306C49.1061 173.742 49.1765 173.179 49.324 172.634Z" fill="black"/>
<path d="M51.1298 172.634C51.4084 173.731 51.4084 174.881 51.1298 175.978C50.8511 174.881 50.8511 173.731 51.1298 172.634Z" fill="black"/>
<path d="M47.5433 172.634C47.6909 173.179 47.7612 173.742 47.7523 174.306C47.763 174.87 47.6927 175.434 47.5433 175.978C47.396 175.433 47.3257 174.87 47.3343 174.306C47.3275 173.742 47.3978 173.179 47.5433 172.634Z" fill="black"/>
<path d="M40.5836 172.634C40.8623 173.731 40.8623 174.881 40.5836 175.978C40.305 174.881 40.305 173.731 40.5836 172.634Z" fill="black"/>
<path d="M45.4784 172.634C45.7571 173.731 45.7571 174.881 45.4784 175.978C45.1997 174.881 45.1997 173.731 45.4784 172.634Z" fill="black"/>
<path d="M46.1848 172.634C46.4635 173.731 46.4635 174.881 46.1848 175.978C45.9062 174.881 45.9062 173.731 46.1848 172.634Z" fill="black"/>
<path d="M53.4664 172.634C53.7395 173.732 53.7395 174.88 53.4664 175.978C53.1877 174.881 53.1877 173.731 53.4664 172.634Z" fill="black"/>
<path d="M54.5197 172.634C54.6673 173.179 54.7377 173.742 54.7287 174.306C54.7395 174.87 54.6691 175.434 54.5197 175.978C54.2411 174.881 54.2411 173.731 54.5197 172.634Z" fill="black"/>
<path d="M51.9616 172.634C52.2403 173.731 52.2403 174.881 51.9616 175.978C51.6829 174.881 51.6829 173.731 51.9616 172.634Z" fill="black"/>
<path d="M42.2974 172.634C42.4429 173.179 42.5132 173.742 42.5064 174.306C42.5171 174.87 42.4468 175.434 42.2974 175.978C42.1501 175.433 42.0798 174.87 42.0884 174.306C42.0816 173.742 42.1519 173.179 42.2974 172.634Z" fill="black"/>
</g>
<path opacity="0.1" d="M55.3683 172.241V173.127L36.4621 173.725V172.241H55.3683Z" fill="black"/>
<path d="M54.8959 168.061H35.9856V172.241H54.8959V168.061Z" fill="#3F8F61"/>
<g opacity="0.1">
<path d="M54.0432 171.798C53.8975 171.253 53.8271 170.69 53.8342 170.126C53.8235 169.562 53.8939 168.998 54.0432 168.454C54.1925 168.998 54.2629 169.562 54.2522 170.126C54.2593 170.69 54.189 171.253 54.0432 171.798Z" fill="black"/>
<path d="M52.6346 171.798C52.4888 171.253 52.4185 170.69 52.4256 170.126C52.4169 169.562 52.4873 168.999 52.6346 168.454C52.7839 168.998 52.8543 169.562 52.8436 170.126C52.8527 170.69 52.7823 171.253 52.6346 171.798Z" fill="black"/>
<path d="M51.9449 171.798C51.6717 170.7 51.6717 169.552 51.9449 168.454C52.2235 169.551 52.2235 170.701 51.9449 171.798Z" fill="black"/>
<path d="M48.1703 171.798C48.0246 171.253 47.9543 170.69 47.9613 170.126C47.9527 169.562 48.023 168.999 48.1703 168.454C48.3197 168.998 48.39 169.562 48.3793 170.126C48.3864 170.69 48.3161 171.253 48.1703 171.798Z" fill="black"/>
<path d="M47.1504 171.798C46.8717 170.701 46.8717 169.551 47.1504 168.454C47.4291 169.551 47.4291 170.701 47.1504 171.798Z" fill="black"/>
<path d="M42.9244 171.798C42.7787 171.253 42.7083 170.69 42.7154 170.126C42.7047 169.562 42.7751 168.998 42.9244 168.454C43.0717 168.999 43.1421 169.562 43.1334 170.126C43.1405 170.69 43.0702 171.253 42.9244 171.798Z" fill="black"/>
<path d="M41.9463 171.798C41.6676 170.701 41.6676 169.551 41.9463 168.454C42.225 169.551 42.225 170.701 41.9463 171.798Z" fill="black"/>
<path d="M40.1573 171.798C39.8786 170.701 39.8786 169.551 40.1573 168.454C40.4359 169.551 40.4359 170.701 40.1573 171.798Z" fill="black"/>
<path d="M43.7395 171.798C43.4609 170.701 43.4609 169.551 43.7395 168.454C43.8888 168.998 43.9592 169.562 43.9485 170.126C43.9576 170.69 43.8873 171.253 43.7395 171.798Z" fill="black"/>
<path d="M50.6992 171.798C50.5514 171.253 50.4811 170.69 50.4902 170.126C50.4795 169.562 50.5499 168.998 50.6992 168.454C50.8465 168.999 50.9169 169.562 50.9082 170.126C50.9153 170.69 50.845 171.253 50.6992 171.798Z" fill="black"/>
<path d="M45.8044 171.798C45.6587 171.253 45.5884 170.69 45.5954 170.126C45.5868 169.562 45.6572 168.999 45.8044 168.454C45.9538 168.998 46.0242 169.562 46.0134 170.126C46.0205 170.69 45.9502 171.253 45.8044 171.798Z" fill="black"/>
<path d="M45.1022 171.798C44.8235 170.701 44.8235 169.551 45.1022 168.454C45.3809 169.551 45.3809 170.701 45.1022 171.798Z" fill="black"/>
<path d="M37.8206 171.798C37.542 170.701 37.542 169.551 37.8206 168.454C38.0993 169.551 38.0993 170.701 37.8206 171.798Z" fill="black"/>
<path d="M36.784 171.798C36.6383 171.253 36.5679 170.69 36.575 170.126C36.5664 169.562 36.6367 168.999 36.784 168.454C36.9333 168.998 37.0037 169.562 36.993 170.126C37.0021 170.69 36.9318 171.253 36.784 171.798Z" fill="black"/>
<path d="M39.3254 171.798C39.0468 170.701 39.0468 169.551 39.3254 168.454C39.6041 169.551 39.6041 170.701 39.3254 171.798Z" fill="black"/>
<path d="M48.9854 171.798C48.7068 170.701 48.7068 169.551 48.9854 168.454C49.2641 169.551 49.2641 170.701 48.9854 171.798Z" fill="black"/>
</g>
<path opacity="0.1" d="M54.8918 168.061V168.947L35.9856 169.545V168.061H54.8918Z" fill="black"/>
<path d="M53.7423 163.881H34.8319V168.061H53.7423V163.881Z" fill="#3F8F61"/>
<g opacity="0.1">
<path d="M35.6136 164.274C35.7593 164.819 35.8297 165.382 35.8226 165.946C35.8312 166.51 35.7609 167.073 35.6136 167.618C35.4643 167.074 35.3939 166.511 35.4046 165.946C35.3955 165.382 35.4658 164.819 35.6136 164.274Z" fill="black"/>
<path d="M37.0223 164.274C37.3009 165.371 37.3009 166.521 37.0223 167.618C36.8729 167.074 36.8025 166.511 36.8133 165.946C36.8041 165.382 36.8745 164.819 37.0223 164.274Z" fill="black"/>
<path d="M37.7078 164.274C37.9864 165.371 37.9864 166.521 37.7078 167.618C37.4291 166.521 37.4291 165.371 37.7078 164.274Z" fill="black"/>
<path d="M41.4865 164.274C41.7652 165.371 41.7652 166.521 41.4865 167.618C41.3372 167.074 41.2668 166.511 41.2775 165.946C41.2684 165.382 41.3387 164.819 41.4865 164.274Z" fill="black"/>
<path d="M42.5064 164.274C42.7851 165.371 42.7851 166.521 42.5064 167.618C42.2278 166.521 42.2278 165.371 42.5064 164.274Z" fill="black"/>
<path d="M46.7324 164.274C46.8782 164.819 46.9485 165.382 46.9414 165.946C46.95 166.51 46.8797 167.073 46.7324 167.618C46.5831 167.074 46.5127 166.511 46.5234 165.946C46.5163 165.382 46.5866 164.819 46.7324 164.274Z" fill="black"/>
<path d="M47.7063 164.274C47.985 165.371 47.985 166.521 47.7063 167.618C47.4332 166.52 47.4332 165.372 47.7063 164.274Z" fill="black"/>
<path d="M49.4996 164.274C49.7782 165.371 49.7782 166.521 49.4996 167.618C49.2209 166.521 49.2209 165.371 49.4996 164.274Z" fill="black"/>
<path d="M45.9173 164.274C46.196 165.371 46.196 166.521 45.9173 167.618C45.6386 166.521 45.6386 165.371 45.9173 164.274Z" fill="black"/>
<path d="M38.9576 164.274C39.1034 164.819 39.1737 165.382 39.1666 165.946C39.1773 166.511 39.1069 167.074 38.9576 167.618C38.8103 167.073 38.74 166.51 38.7486 165.946C38.7415 165.382 38.8118 164.819 38.9576 164.274Z" fill="black"/>
<path d="M43.8524 164.274C43.9981 164.819 44.0685 165.382 44.0614 165.946C44.07 166.51 43.9997 167.073 43.8524 167.618C43.7031 167.074 43.6327 166.511 43.6434 165.946C43.6343 165.382 43.7046 164.819 43.8524 164.274Z" fill="black"/>
<path d="M44.5546 164.274C44.8333 165.371 44.8333 166.521 44.5546 167.618C44.2759 166.521 44.2759 165.371 44.5546 164.274Z" fill="black"/>
<path d="M51.832 164.274C51.9798 164.819 52.0501 165.382 52.041 165.946C52.0517 166.511 51.9813 167.074 51.832 167.618C51.5533 166.521 51.5533 165.371 51.832 164.274Z" fill="black"/>
<path d="M52.8937 164.274C53.1724 165.371 53.1724 166.521 52.8937 167.618C52.7444 167.074 52.674 166.511 52.6847 165.946C52.6756 165.382 52.7459 164.819 52.8937 164.274Z" fill="black"/>
<path d="M50.3314 164.274C50.61 165.371 50.61 166.521 50.3314 167.618C50.0527 166.521 50.0527 165.371 50.3314 164.274Z" fill="black"/>
<path d="M40.6714 164.274C40.9501 165.371 40.9501 166.521 40.6714 167.618C40.3927 166.521 40.3927 165.371 40.6714 164.274Z" fill="black"/>
</g>
<path opacity="0.1" d="M53.7423 163.881V164.771L34.8319 165.365V163.881H53.7423Z" fill="black"/>
<path d="M53.7423 176.417H34.8319V180.597H53.7423V176.417Z" fill="#3F8F61"/>
<g opacity="0.1">
<path d="M52.8937 180.158C52.6143 179.061 52.6143 177.911 52.8937 176.814C53.1731 177.911 53.1731 179.061 52.8937 180.158Z" fill="black"/>
<path d="M51.4851 180.158C51.3373 179.613 51.2669 179.05 51.2761 178.486C51.2647 177.922 51.3351 177.358 51.4851 176.814C51.633 177.359 51.7034 177.922 51.6941 178.486C51.7011 179.05 51.6308 179.613 51.4851 180.158Z" fill="black"/>
<path d="M50.7954 180.158C50.516 179.061 50.516 177.911 50.7954 176.814C51.0747 177.911 51.0747 179.061 50.7954 180.158Z" fill="black"/>
<path d="M47.0208 180.158C46.8731 179.613 46.8027 179.05 46.8118 178.486C46.8005 177.922 46.8709 177.358 47.0208 176.814C47.3002 177.911 47.3002 179.061 47.0208 180.158Z" fill="black"/>
<path d="M45.98 180.158C45.7006 179.061 45.7006 177.911 45.98 176.814C46.2594 177.911 46.2594 179.061 45.98 180.158Z" fill="black"/>
<path d="M41.7749 180.158C41.4955 179.061 41.4955 177.911 41.7749 176.814C42.0543 177.911 42.0543 179.061 41.7749 180.158Z" fill="black"/>
<path d="M40.7968 180.158C40.5174 179.061 40.5174 177.911 40.7968 176.814C40.9468 177.358 41.0172 177.922 41.0058 178.486C41.0149 179.05 40.9446 179.613 40.7968 180.158Z" fill="black"/>
<path d="M39.0036 180.158C38.7242 179.061 38.7242 177.911 39.0036 176.814C39.2829 177.911 39.2829 179.061 39.0036 180.158Z" fill="black"/>
<path d="M42.59 180.158C42.4443 179.613 42.3739 179.05 42.381 178.486C42.3697 177.922 42.4401 177.358 42.59 176.814C42.738 177.359 42.8083 177.922 42.799 178.486C42.8061 179.05 42.7358 179.613 42.59 180.158Z" fill="black"/>
<path d="M49.5497 180.158C49.2703 179.061 49.2703 177.911 49.5497 176.814C49.8291 177.911 49.8291 179.061 49.5497 180.158Z" fill="black"/>
<path d="M44.6549 180.158C44.5072 179.613 44.4368 179.05 44.4459 178.486C44.4346 177.922 44.505 177.358 44.6549 176.814C44.9343 177.911 44.9343 179.061 44.6549 180.158Z" fill="black"/>
<path d="M43.9485 180.158C43.6691 179.061 43.6691 177.911 43.9485 176.814C44.2279 177.911 44.2279 179.061 43.9485 180.158Z" fill="black"/>
<path d="M36.6711 180.158C36.3918 179.061 36.3918 177.911 36.6711 176.814C36.9505 177.911 36.9505 179.061 36.6711 180.158Z" fill="black"/>
<path d="M35.6136 180.158C35.4658 179.613 35.3955 179.05 35.4046 178.486C35.3932 177.922 35.4636 177.358 35.6136 176.814C35.7615 177.359 35.8319 177.922 35.8226 178.486C35.8297 179.05 35.7593 179.613 35.6136 180.158Z" fill="black"/>
<path d="M38.1718 180.158C37.8924 179.061 37.8924 177.911 38.1718 176.814C38.4511 177.911 38.4511 179.061 38.1718 180.158Z" fill="black"/>
<path d="M47.8359 180.158C47.6902 179.613 47.6198 179.05 47.6269 178.486C47.6176 177.922 47.688 177.359 47.8359 176.814C47.9859 177.358 48.0563 177.922 48.0449 178.486C48.052 179.05 47.9817 179.613 47.8359 180.158Z" fill="black"/>
</g>
<path opacity="0.1" d="M53.7423 176.417V177.303L34.8319 177.901V176.417H53.7423Z" fill="black"/>
<path d="M72.6526 189.283H53.7423V193.463H72.6526V189.283Z" fill="#3F8F61"/>
<g opacity="0.1">
<path d="M54.5239 189.667C54.8033 190.765 54.8033 191.914 54.5239 193.011C54.2445 191.914 54.2445 190.765 54.5239 189.667Z" fill="black"/>
<path d="M55.9326 189.667C56.212 190.765 56.212 191.914 55.9326 193.011C55.6532 191.914 55.6532 190.765 55.9326 189.667Z" fill="black"/>
<path d="M56.6181 189.667C56.766 190.212 56.8364 190.775 56.8271 191.339C56.8385 191.904 56.7681 192.467 56.6181 193.011C56.3387 191.914 56.3387 190.765 56.6181 189.667Z" fill="black"/>
<path d="M60.3968 189.667C60.6762 190.765 60.6762 191.914 60.3968 193.011C60.1174 191.914 60.1174 190.765 60.3968 189.667Z" fill="black"/>
<path d="M61.4167 189.667C61.5647 190.212 61.635 190.775 61.6257 191.339C61.6371 191.904 61.5667 192.467 61.4167 193.011C61.269 192.467 61.1986 191.904 61.2077 191.339C61.2006 190.775 61.2709 190.213 61.4167 189.667Z" fill="black"/>
<path d="M65.626 189.667C65.9054 190.765 65.9054 191.914 65.626 193.011C65.3466 191.914 65.3466 190.765 65.626 189.667Z" fill="black"/>
<path d="M66.6167 189.667C66.896 190.765 66.896 191.914 66.6167 193.011C66.3373 191.914 66.3373 190.765 66.6167 189.667Z" fill="black"/>
<path d="M68.4099 189.667C68.5557 190.213 68.6261 190.775 68.6189 191.339C68.6302 191.904 68.5598 192.467 68.4099 193.011C68.2621 192.467 68.1918 191.904 68.2009 191.339C68.1937 190.775 68.264 190.213 68.4099 189.667Z" fill="black"/>
<path d="M64.8276 189.667C65.1014 190.765 65.1014 191.914 64.8276 193.011C64.5482 191.914 64.5482 190.765 64.8276 189.667Z" fill="black"/>
<path d="M57.8679 189.667C58.1473 190.765 58.1473 191.914 57.8679 193.011C57.718 192.467 57.6476 191.904 57.6589 191.339C57.6496 190.775 57.72 190.212 57.8679 189.667Z" fill="black"/>
<path d="M62.7627 189.667C63.0421 190.765 63.0421 191.914 62.7627 193.011C62.4833 191.914 62.4833 190.765 62.7627 189.667Z" fill="black"/>
<path d="M63.4649 189.667C63.6129 190.212 63.6832 190.775 63.6739 191.339C63.6853 191.904 63.6149 192.467 63.4649 193.011C63.3172 192.467 63.2468 191.904 63.2559 191.339C63.2488 190.775 63.3191 190.213 63.4649 189.667Z" fill="black"/>
<path d="M70.7465 189.667C70.8924 190.213 70.9627 190.775 70.9555 191.339C70.9646 191.904 70.8943 192.467 70.7465 193.011C70.5965 192.467 70.5261 191.904 70.5375 191.339C70.5282 190.775 70.5986 190.212 70.7465 189.667Z" fill="black"/>
<path d="M71.804 189.667C72.0834 190.765 72.0834 191.914 71.804 193.011C71.5247 191.914 71.5247 190.765 71.804 189.667Z" fill="black"/>
<path d="M69.2417 189.667C69.3896 190.212 69.46 190.775 69.4507 191.339C69.4621 191.904 69.3917 192.467 69.2417 193.011C69.0939 192.467 69.0236 191.904 69.0327 191.339C69.0255 190.775 69.0958 190.213 69.2417 189.667Z" fill="black"/>
<path d="M59.5775 189.667C59.8569 190.765 59.8569 191.914 59.5775 193.011C59.2982 191.914 59.2982 190.765 59.5775 189.667Z" fill="black"/>
</g>
<path opacity="0.1" d="M72.6526 189.283V190.169L53.7423 190.767V189.283H72.6526Z" fill="black"/>
<path d="M75.821 185.103H56.9107V189.283H75.821V185.103Z" fill="#3F8F61"/>
<g opacity="0.1">
<path d="M57.684 185.488C57.9627 186.585 57.9627 187.734 57.684 188.832C57.4053 187.734 57.4053 186.585 57.684 185.488Z" fill="black"/>
<path d="M59.0968 185.488C59.3755 186.585 59.3755 187.734 59.0968 188.832C58.8182 187.734 58.8182 186.585 59.0968 185.488Z" fill="black"/>
<path d="M59.774 185.488C60.0527 186.585 60.0527 187.734 59.774 188.832C59.6245 188.287 59.5541 187.724 59.565 187.16C59.5561 186.595 59.6265 186.032 59.774 185.488Z" fill="black"/>
<path d="M63.5611 185.488C63.8397 186.585 63.8397 187.734 63.5611 188.832C63.2824 187.734 63.2824 186.585 63.5611 185.488Z" fill="black"/>
<path d="M64.5852 185.488C64.8638 186.585 64.8638 187.734 64.5852 188.832C64.3065 187.734 64.3065 186.585 64.5852 185.488Z" fill="black"/>
<path d="M68.807 185.488C69.0857 186.585 69.0857 187.734 68.807 188.832C68.5283 187.734 68.5283 186.585 68.807 185.488Z" fill="black"/>
<path d="M69.806 185.488C69.9515 186.033 70.0218 186.595 70.015 187.16C70.0239 187.724 69.9536 188.287 69.806 188.832C69.6564 188.287 69.5861 187.724 69.597 187.16C69.5881 186.595 69.6585 186.032 69.806 185.488Z" fill="black"/>
<path d="M71.5783 185.488C71.857 186.585 71.857 187.734 71.5783 188.832C71.2997 187.734 71.2997 186.585 71.5783 185.488Z" fill="black"/>
<path d="M67.9919 185.488C68.1394 186.032 68.2098 186.595 68.2009 187.16C68.2118 187.724 68.1414 188.287 67.9919 188.832C67.7132 187.734 67.7132 186.585 67.9919 185.488Z" fill="black"/>
<path d="M61.028 185.488C61.3067 186.585 61.3067 187.734 61.028 188.832C60.7493 187.734 60.7493 186.585 61.028 185.488Z" fill="black"/>
<path d="M65.927 185.488C66.2056 186.585 66.2056 187.734 65.927 188.832C65.6483 187.734 65.6483 186.585 65.927 185.488Z" fill="black"/>
<path d="M66.6334 185.488C66.9121 186.585 66.9121 187.734 66.6334 188.832C66.3547 187.734 66.3547 186.585 66.6334 185.488Z" fill="black"/>
<path d="M73.9149 185.488C74.1936 186.585 74.1936 187.734 73.9149 188.832C73.6363 187.734 73.6363 186.585 73.9149 185.488Z" fill="black"/>
<path d="M74.9683 185.488C75.247 186.585 75.247 187.734 74.9683 188.832C74.6896 187.734 74.6896 186.585 74.9683 185.488Z" fill="black"/>
<path d="M72.4101 185.488C72.6888 186.585 72.6888 187.734 72.4101 188.832C72.1315 187.734 72.1315 186.585 72.4101 185.488Z" fill="black"/>
<path d="M62.746 185.488C62.8935 186.032 62.9639 186.595 62.955 187.16C62.9659 187.724 62.8955 188.287 62.746 188.832C62.5984 188.287 62.5281 187.724 62.537 187.16C62.5302 186.595 62.6005 186.033 62.746 185.488Z" fill="black"/>
</g>
<path opacity="0.1" d="M75.8169 185.103V185.993L56.9107 186.591V185.103H75.8169Z" fill="black"/>
<path d="M74.2368 180.961H55.3265V185.141H74.2368V180.961Z" fill="#3F8F61"/>
<g opacity="0.1">
<path d="M73.3883 184.685C73.1089 183.588 73.1089 182.438 73.3883 181.341C73.6676 182.438 73.6676 183.588 73.3883 184.685Z" fill="black"/>
<path d="M71.9796 184.685C71.8317 184.14 71.7613 183.577 71.7706 183.013C71.7593 182.448 71.8296 181.885 71.9796 181.341C72.259 182.438 72.259 183.588 71.9796 184.685Z" fill="black"/>
<path d="M71.2899 184.685C71.0105 183.588 71.0105 182.438 71.2899 181.341C71.4399 181.885 71.5103 182.448 71.4989 183.013C71.5082 183.577 71.4379 184.14 71.2899 184.685Z" fill="black"/>
<path d="M67.5154 184.685C67.236 183.588 67.236 182.438 67.5154 181.341C67.7947 182.438 67.7947 183.588 67.5154 184.685Z" fill="black"/>
<path d="M66.4913 184.685C66.2119 183.588 66.2119 182.438 66.4913 181.341C66.7706 182.438 66.7706 183.588 66.4913 184.685Z" fill="black"/>
<path d="M62.282 184.685C62.0026 183.588 62.0026 182.438 62.282 181.341C62.5614 182.438 62.5614 183.588 62.282 184.685Z" fill="black"/>
<path d="M61.2914 184.685C61.1455 184.14 61.0752 183.577 61.0824 183.013C61.0732 182.449 61.1436 181.886 61.2914 181.341C61.4413 181.885 61.5117 182.448 61.5004 183.013C61.5096 183.577 61.4393 184.14 61.2914 184.685Z" fill="black"/>
<path d="M59.4981 184.685C59.2188 183.588 59.2188 182.438 59.4981 181.341C59.7775 182.438 59.7775 183.588 59.4981 184.685Z" fill="black"/>
<path d="M63.0846 184.685C62.9366 184.14 62.8663 183.577 62.8756 183.013C62.8642 182.448 62.9346 181.885 63.0846 181.341C63.2323 181.886 63.3027 182.449 63.2936 183.013C63.3007 183.577 63.2304 184.14 63.0846 184.685Z" fill="black"/>
<path d="M70.0443 184.685C69.7649 183.588 69.7649 182.438 70.0443 181.341C70.3236 182.438 70.3236 183.588 70.0443 184.685Z" fill="black"/>
<path d="M65.1495 184.685C64.8701 183.588 64.8701 182.438 65.1495 181.341C65.4289 182.438 65.4289 183.588 65.1495 184.685Z" fill="black"/>
<path d="M64.4431 184.685C64.1637 183.588 64.1637 182.438 64.4431 181.341C64.7224 182.438 64.7224 183.588 64.4431 184.685Z" fill="black"/>
<path d="M57.1615 184.685C56.8821 183.588 56.8821 182.438 57.1615 181.341C57.4409 182.438 57.4409 183.588 57.1615 184.685Z" fill="black"/>
<path d="M56.1081 184.685C55.9602 184.14 55.8899 183.577 55.8991 183.013C55.8878 182.448 55.9582 181.885 56.1081 181.341C56.3875 182.438 56.3875 183.588 56.1081 184.685Z" fill="black"/>
<path d="M58.6663 184.685C58.3869 183.588 58.3869 182.438 58.6663 181.341C58.9457 182.438 58.9457 183.588 58.6663 184.685Z" fill="black"/>
<path d="M68.3305 184.685C68.1846 184.14 68.1143 183.577 68.1215 183.013C68.1101 182.448 68.1805 181.885 68.3305 181.341C68.4782 181.886 68.5486 182.449 68.5395 183.013C68.5466 183.577 68.4763 184.14 68.3305 184.685Z" fill="black"/>
</g>
<path opacity="0.1" d="M74.2368 180.961V181.851L55.3265 182.444V180.961H74.2368Z" fill="black"/>
<path d="M33.2561 174.339C45.7041 176.572 42.4145 195.01 29.9497 192.773C17.485 190.537 20.7871 172.103 33.2561 174.339Z" fill="#3F8F61"/>
<path opacity="0.1" d="M33.2561 174.339C45.7041 176.572 42.4145 195.01 29.9497 192.773C17.485 190.537 20.7871 172.103 33.2561 174.339Z" fill="black"/>
<path d="M32.0857 174.13C43.9485 176.258 40.663 194.696 28.7793 192.564C16.8956 190.432 20.2061 171.999 32.0857 174.13Z" fill="#3F8F61"/>
<path opacity="0.1" d="M22.9106 183.782C22.9733 187.063 24.8877 190.249 29.0635 190.997C38.92 192.765 41.6537 177.462 31.8056 175.698L31.6133 175.665C40.847 177.512 38.201 191.996 28.8002 190.295C24.963 189.622 23.1154 186.783 22.9106 183.782Z" fill="black"/>
<g opacity="0.1">
<path d="M31.4587 177.608C31.5386 177.63 31.607 177.682 31.6498 177.752C31.6926 177.823 31.7065 177.908 31.6886 177.989L31.559 178.486C32.3666 178.752 33.0748 179.256 33.5905 179.932C33.6353 179.974 33.6685 180.027 33.6868 180.086C33.7051 180.144 33.7079 180.207 33.695 180.267C33.6845 180.311 33.6651 180.352 33.6379 180.388C33.6108 180.423 33.5765 180.453 33.5372 180.475C33.498 180.497 33.4546 180.511 33.4098 180.515C33.365 180.52 33.3198 180.515 33.277 180.501C33.2337 180.493 33.1925 180.476 33.1565 180.451C33.1204 180.425 33.0902 180.393 33.068 180.355C32.6482 179.77 32.0672 179.322 31.396 179.063L30.514 182.612C32.3365 183.494 32.9677 184.418 32.6583 185.659C32.3239 187.001 30.9613 187.67 29.3645 187.331L29.1179 188.317C29.0981 188.398 29.0475 188.467 28.977 188.51C28.9066 188.553 28.822 188.566 28.7417 188.547C28.6612 188.527 28.5921 188.475 28.5491 188.404C28.5062 188.333 28.4928 188.248 28.5118 188.167L28.7626 187.168C27.7232 186.825 26.8285 186.143 26.2211 185.233C26.1753 185.18 26.1472 185.114 26.141 185.045C26.1347 184.976 26.1506 184.906 26.1863 184.846C26.2221 184.786 26.2758 184.739 26.3399 184.712C26.4039 184.684 26.475 184.678 26.543 184.693C26.5854 184.702 26.6255 184.72 26.6607 184.745C26.696 184.77 26.7256 184.802 26.7478 184.84C27.2538 185.658 28.0233 186.28 28.9298 186.604L29.8285 183C28.0353 182.11 27.425 181.216 27.7385 179.953C28.052 178.691 29.4105 177.976 30.9696 178.327L31.0867 177.842C31.1065 177.763 31.1563 177.694 31.2257 177.651C31.295 177.607 31.3785 177.592 31.4587 177.608ZM29.9831 182.344L30.8442 178.904C29.5902 178.624 28.6163 179.155 28.3906 180.066C28.1648 180.977 28.4491 181.546 29.9831 182.344ZM30.3468 183.255L29.4732 186.75C30.7272 187.038 31.7513 186.512 31.9812 185.55C32.2069 184.677 31.8976 184.033 30.3468 183.255Z" fill="black"/>
</g>
</svg>
