<?xml version="1.0" encoding="utf-8"?>
<svg xmlns="http://www.w3.org/2000/svg" height="70" viewBox="0 0 256.407 70" width="256.407">
  <g id="mapout-text-logo" transform="translate(-3658 -7721)">
    <g id="mapout-logo" transform="translate(3657.658 7721.633)">
      <circle cx="2.945" cy="2.945" data-name="Ellipse 36" fill="#905335" id="Ellipse_36" r="2.945" transform="translate(24.298 26.268)"/>
      <circle cx="5" cy="5" data-name="Ellipse 37" fill="none" id="Ellipse_37" r="5" stroke="#905335" stroke-width="2" transform="translate(22.342 24.367)"/>
      <ellipse cx="16.5" cy="16" data-name="Ellipse 38" fill="none" id="Ellipse_38" rx="16.5" ry="16" stroke="#905335" stroke-width="2" transform="translate(17.342 12.367)"/>
      <circle cx="34" cy="34" data-name="Ellipse 39" fill="none" id="Ellipse_39" r="34" stroke="#905335" stroke-width="2" transform="translate(1.342 0.367)"/>
      <ellipse cx="26.5" cy="27" data-name="Ellipse 40" fill="none" id="Ellipse_40" rx="26.5" ry="27" stroke="#905335" stroke-width="2" transform="translate(4.342 7.367)"/>
    </g>
    <g id="mapout" transform="translate(3748.739 7745.412)">
      <path d="M.261.59,9.594,11.26,18.927.59V20.183H17.234V4.9l-7.64,8.786L1.953,4.9V20.183H.261Z" data-name="Path 1679" fill="#905335" id="Path_1679" transform="translate(0 0.001)"/>
      <path d="M28.054,12.651h7.968L32.038,4.273ZM32.038.59,41.4,20.183H39.623l-2.838-5.921h-9.5l-2.811,5.921H22.705Z" data-name="Path 1680" fill="#905335" id="Path_1680" transform="translate(10.196 0.001)"/>
      <path d="M50.243,10.482c3.3,0,4.94-1.446,4.94-4.093s-1.637-4.12-4.94-4.12H46.86v8.213ZM45.167.74h5.076c4.2,0,6.713,2.047,6.713,5.649,0,3.521-2.51,5.649-6.713,5.649H46.86v8.078H45.167Z" data-name="Path 1681" fill="#905335" id="Path_1681" transform="translate(20.4 0.069)"/>
      <path d="M78.46,10.494a6.689,6.689,0,1,0-13.371,0,6.689,6.689,0,1,0,13.371,0Zm-16.591,0a9.905,9.905,0,1,1,19.81,0,9.905,9.905,0,1,1-19.81,0Z" data-name="Path 1682" fill="#905335" id="Path_1682" transform="translate(27.987 0)"/>
      <path d="M85.026,12.581V.738h3.165V12.663a4.626,4.626,0,1,0,9.251,0V.738h3.165V12.581c0,4.775-3.22,7.75-7.776,7.75S85.026,17.357,85.026,12.581Z" data-name="Path 1683" fill="#905335" id="Path_1683" transform="translate(38.506 0.068)"/>
      <path d="M109.93,3.851h-4.993V.74h13.18V3.851H113.1V20.115H109.93Z" data-name="Path 1684" fill="#905335" id="Path_1684" transform="translate(47.551 0.069)"/>
    </g>
  </g>
</svg>