<svg width="11" height="11" viewBox="0 0 11 11" fill="none" xmlns="http://www.w3.org/2000/svg">
<g clip-path="url(#clip0_5993_33676)">
<path fill-rule="evenodd" clip-rule="evenodd" d="M3.24258 8.04157C3.24258 7.95869 3.27551 7.87921 3.33411 7.8206C3.39272 7.762 3.4722 7.72907 3.55508 7.72907H9.18008C9.26296 7.72907 9.34245 7.762 9.40105 7.8206C9.45966 7.87921 9.49258 7.95869 9.49258 8.04157C9.49258 8.12445 9.45966 8.20394 9.40105 8.26255C9.34245 8.32115 9.26296 8.35407 9.18008 8.35407H3.55508C3.4722 8.35407 3.39272 8.32115 3.33411 8.26255C3.27551 8.20394 3.24258 8.12445 3.24258 8.04157ZM3.24258 5.54157C3.24258 5.45869 3.27551 5.37921 3.33411 5.3206C3.39272 5.262 3.4722 5.22907 3.55508 5.22907H9.18008C9.26296 5.22907 9.34245 5.262 9.40105 5.3206C9.45966 5.37921 9.49258 5.45869 9.49258 5.54157C9.49258 5.62445 9.45966 5.70394 9.40105 5.76255C9.34245 5.82115 9.26296 5.85407 9.18008 5.85407H3.55508C3.4722 5.85407 3.39272 5.82115 3.33411 5.76255C3.27551 5.70394 3.24258 5.62445 3.24258 5.54157ZM3.24258 3.04157C3.24258 2.95869 3.27551 2.87921 3.33411 2.8206C3.39272 2.762 3.4722 2.72907 3.55508 2.72907H9.18008C9.26296 2.72907 9.34245 2.762 9.40105 2.8206C9.45966 2.87921 9.49258 2.95869 9.49258 3.04157C9.49258 3.12445 9.45966 3.20394 9.40105 3.26255C9.34245 3.32115 9.26296 3.35407 9.18008 3.35407H3.55508C3.4722 3.35407 3.39272 3.32115 3.33411 3.26255C3.27551 3.20394 3.24258 3.12445 3.24258 3.04157ZM2.52633 2.19532C2.55543 2.22435 2.57852 2.25884 2.59428 2.2968C2.61003 2.33477 2.61814 2.37547 2.61814 2.41657C2.61814 2.45768 2.61003 2.49838 2.59428 2.53635C2.57852 2.57431 2.55543 2.6088 2.52633 2.63782L1.58883 3.57532C1.5598 3.60443 1.52532 3.62752 1.48735 3.64327C1.44939 3.65902 1.40869 3.66713 1.36758 3.66713C1.32648 3.66713 1.28578 3.65902 1.24781 3.64327C1.20985 3.62752 1.17536 3.60443 1.14633 3.57532L0.833832 3.26282C0.804777 3.23377 0.78173 3.19928 0.766005 3.16131C0.750281 3.12335 0.742188 3.08266 0.742188 3.04157C0.742187 3.00048 0.750281 2.9598 0.766005 2.92183C0.78173 2.88387 0.804777 2.84938 0.833832 2.82032C0.862887 2.79127 0.89738 2.76822 0.935343 2.7525C0.973305 2.73677 1.01399 2.72868 1.05508 2.72868C1.09617 2.72868 1.13686 2.73677 1.17482 2.7525C1.21278 2.76822 1.24728 2.79127 1.27633 2.82032L1.36758 2.9122L2.08383 2.19532C2.11286 2.16622 2.14735 2.14313 2.18531 2.12738C2.22328 2.11162 2.26398 2.10352 2.30508 2.10352C2.34619 2.10352 2.38689 2.11162 2.42485 2.12738C2.46282 2.14313 2.4973 2.16622 2.52633 2.19532ZM2.52633 4.69532C2.55543 4.72435 2.57852 4.75884 2.59428 4.7968C2.61003 4.83477 2.61814 4.87547 2.61814 4.91657C2.61814 4.95768 2.61003 4.99838 2.59428 5.03635C2.57852 5.07431 2.55543 5.1088 2.52633 5.13782L1.58883 6.07532C1.5598 6.10443 1.52532 6.12752 1.48735 6.14327C1.44939 6.15902 1.40869 6.16713 1.36758 6.16713C1.32648 6.16713 1.28578 6.15902 1.24781 6.14327C1.20985 6.12752 1.17536 6.10443 1.14633 6.07532L0.833832 5.76282C0.775153 5.70414 0.742188 5.62456 0.742188 5.54157C0.742187 5.45859 0.775153 5.379 0.833832 5.32032C0.892511 5.26164 0.972097 5.22868 1.05508 5.22868C1.13807 5.22868 1.21765 5.26164 1.27633 5.32032L1.36758 5.4122L2.08383 4.69532C2.11286 4.66622 2.14735 4.64313 2.18531 4.62738C2.22328 4.61162 2.26398 4.60352 2.30508 4.60352C2.34619 4.60352 2.38689 4.61162 2.42485 4.62738C2.46282 4.64313 2.4973 4.66622 2.52633 4.69532ZM2.52633 7.19532C2.55543 7.22435 2.57852 7.25884 2.59428 7.2968C2.61003 7.33477 2.61814 7.37547 2.61814 7.41657C2.61814 7.45768 2.61003 7.49838 2.59428 7.53635C2.57852 7.57431 2.55543 7.6088 2.52633 7.63782L1.58883 8.57532C1.5598 8.60443 1.52532 8.62752 1.48735 8.64327C1.44939 8.65902 1.40869 8.66713 1.36758 8.66713C1.32648 8.66713 1.28578 8.65902 1.24781 8.64327C1.20985 8.62752 1.17536 8.60443 1.14633 8.57532L0.833832 8.26282C0.775153 8.20414 0.742187 8.12456 0.742188 8.04157C0.742187 7.95859 0.775153 7.879 0.833832 7.82032C0.892511 7.76164 0.972097 7.72868 1.05508 7.72868C1.13807 7.72868 1.21765 7.76164 1.27633 7.82032L1.36758 7.9122L2.08383 7.19532C2.11286 7.16622 2.14735 7.14313 2.18531 7.12738C2.22328 7.11162 2.26398 7.10352 2.30508 7.10352C2.34619 7.10352 2.38689 7.11162 2.42485 7.12738C2.46282 7.14313 2.4973 7.16622 2.52633 7.19532Z" fill="black"/>
</g>
<defs>
<clipPath id="clip0_5993_33676">
<rect width="10" height="10" fill="white" transform="translate(0.117188 0.853516)"/>
</clipPath>
</defs>
</svg>
