<svg width="38" height="39" viewBox="0 0 38 39" fill="none" xmlns="http://www.w3.org/2000/svg">
<path d="M14.5809 18.2599C15.4626 18.2599 16.1774 17.5442 16.1774 16.6612C16.1774 15.7783 15.4626 15.0625 14.5809 15.0625C13.6992 15.0625 12.9844 15.7783 12.9844 16.6612C12.9844 17.5442 13.6992 18.2599 14.5809 18.2599Z" fill="black"/>
<path d="M14.6324 19.4598C16.1294 19.4598 17.3429 18.2446 17.3429 16.7455C17.3429 15.2465 16.1294 14.0312 14.6324 14.0312C13.1354 14.0312 11.9219 15.2465 11.9219 16.7455C11.9219 18.2446 13.1354 19.4598 14.6324 19.4598Z" stroke="black" stroke-width="0.882491"/>
<path d="M18.1557 24.8871C23.0958 24.8871 27.1005 20.9983 27.1005 16.2013C27.1005 11.4044 23.0958 7.51562 18.1557 7.51562C13.2156 7.51562 9.21094 11.4044 9.21094 16.2013C9.21094 20.9983 13.2156 24.8871 18.1557 24.8871Z" stroke="black" stroke-width="0.882491"/>
<path d="M18.9707 37.9143C29.1502 37.9143 37.4023 29.6507 37.4023 19.4571C37.4023 9.26354 29.1502 1 18.9707 1C8.79119 1 0.539062 9.26354 0.539062 19.4571C0.539062 29.6507 8.79119 37.9143 18.9707 37.9143Z" stroke="black" stroke-width="0.882491"/>
<path d="M16.5299 34.1112C24.4639 34.1112 30.8957 27.5489 30.8957 19.454C30.8957 11.3591 24.4639 4.79688 16.5299 4.79688C8.59586 4.79688 2.16406 11.3591 2.16406 19.454C2.16406 27.5489 8.59586 34.1112 16.5299 34.1112Z" stroke="black" stroke-width="0.882491"/>
</svg>
