<svg width="16" height="20" viewBox="0 0 16 20" fill="none" xmlns="http://www.w3.org/2000/svg">
<path d="M12.9547 10.5776C12.9805 13.3726 15.4068 14.3028 15.4336 14.3147C15.4131 14.3801 15.046 15.6402 14.1555 16.9415C13.3857 18.0666 12.5866 19.1876 11.3281 19.2111C10.0915 19.2337 9.69377 18.4776 8.27977 18.4776C6.86622 18.4776 6.42453 19.1876 5.25376 19.2337C4.03883 19.2798 3.11366 18.0168 2.33746 16.896C0.751452 14.6029 -0.460649 10.4163 1.16683 7.59021C1.9753 6.18677 3.42037 5.29817 4.98868 5.27527C6.1816 5.25253 7.30762 6.07779 8.03685 6.07779C8.76562 6.07779 10.134 5.08528 11.5725 5.23097C12.1748 5.2561 13.8651 5.47419 14.9506 7.06317C14.8633 7.11744 12.9337 8.24078 12.9547 10.5776ZM10.6305 3.7141C11.2755 2.93343 11.7096 1.84636 11.5912 0.765091C10.6615 0.802407 9.53722 1.3846 8.87044 2.16496C8.27278 2.85583 7.74947 3.96193 7.89056 5.02179C8.92693 5.10207 9.98546 4.49521 10.6305 3.7141Z" fill="white"/>
</svg>
