<svg xmlns="http://www.w3.org/2000/svg" xmlns:xlink="http://www.w3.org/1999/xlink" width="1080" zoomAndPan="magnify" viewBox="0 0 810 809.999993" height="1080" preserveAspectRatio="xMidYMid meet" version="1.0"><defs><clipPath id="101f71d9fc"><path d="M 7.648438 7.648438 L 802.648438 7.648438 L 802.648438 802.648438 L 7.648438 802.648438 Z M 7.648438 7.648438 " clip-rule="nonzero"/></clipPath></defs><g clip-path="url(#101f71d9fc)"><path fill="#171717" d="M 269.480469 404.542969 C 269.480469 395.378906 273.125 386.59375 279.601562 380.117188 L 438.464844 221.25 C 445.210938 214.503906 454.046875 211.140625 462.890625 211.140625 C 471.730469 211.140625 480.566406 214.503906 487.3125 221.25 C 500.792969 234.742188 500.792969 256.605469 487.3125 270.097656 L 352.367188 405.042969 L 487.3125 539.984375 C 500.792969 553.476562 500.792969 575.339844 487.3125 588.832031 C 473.820312 602.324219 451.957031 602.324219 438.464844 588.832031 L 279.601562 429.964844 C 273.125 423.492188 269.480469 414.703125 269.480469 405.539062 Z M 405.042969 802.578125 C 624.597656 802.578125 802.578125 624.597656 802.578125 405.042969 C 802.578125 185.484375 624.597656 7.503906 405.042969 7.503906 C 185.484375 7.503906 7.503906 185.484375 7.503906 405.042969 C 7.503906 624.597656 185.484375 802.578125 405.042969 802.578125 " fill-opacity="1" fill-rule="nonzero"/></g></svg>