<svg width="25" height="24" viewBox="0 0 25 24" fill="none" xmlns="http://www.w3.org/2000/svg">
<g clip-path="url(#clip0_8901_5300)">
<path d="M0.25 12C0.25 5.3726 5.6226 0 12.25 0C18.8774 0 24.25 5.3726 24.25 12C24.25 18.6274 18.8774 24 12.25 24C5.6226 24 0.25 18.6274 0.25 12Z" fill="#1769FF"/>
<path fill-rule="evenodd" clip-rule="evenodd" d="M12.0848 10.0225C12.0848 9.5599 11.9637 9.16345 11.7221 8.83155C11.3194 8.29105 10.6368 8.0141 9.67201 8H5.84961V15.8033H9.41386C9.81576 15.8033 10.1875 15.7691 10.5315 15.6986C10.8754 15.6273 11.1727 15.4974 11.4248 15.3066C11.6491 15.1403 11.8357 14.9353 11.9847 14.6925C12.2203 14.3257 12.3377 13.9107 12.3377 13.4481C12.3377 12.9997 12.2346 12.6181 12.0299 12.3048C11.8229 11.9907 11.5189 11.7613 11.1155 11.6158C11.3812 11.4821 11.5821 11.3336 11.7191 11.1718C11.9637 10.8822 12.0848 10.4984 12.0848 10.0225ZM17.4184 9.33495H14.0288V8.3638H17.4184V9.33495ZM14.4239 12.3471C14.4796 11.9714 14.6158 11.6737 14.8318 11.4539C15.0478 11.2342 15.3533 11.1243 15.7447 11.1243C16.1059 11.1243 16.4077 11.2274 16.653 11.4346C16.8954 11.6432 17.0323 11.9462 17.0602 12.3471H14.4239ZM17.1196 10.1502C17.5283 10.3299 17.8647 10.6149 18.1296 11.004C18.3712 11.347 18.5262 11.7449 18.597 12.1971C18.6384 12.4614 18.6549 12.8445 18.6482 13.3427H14.3862C14.4118 13.9211 14.6135 14.3273 14.9988 14.5597C15.2322 14.7044 15.5129 14.7772 15.8425 14.7772C16.1894 14.7772 16.4732 14.6888 16.6907 14.5128C16.8103 14.4171 16.9157 14.2849 17.006 14.1157H18.5676C18.5262 14.4571 18.3366 14.8054 18.0009 15.1588C17.4771 15.7193 16.7434 16 15.8004 16C15.0214 16 14.3343 15.7639 13.7405 15.2902C13.1437 14.8173 12.8472 14.0466 12.8472 12.9804C12.8472 11.9803 13.1159 11.2134 13.6525 10.6796C14.1906 10.1472 14.8867 9.87915 15.7439 9.87915C16.2534 9.87915 16.7117 9.96975 17.1196 10.1502ZM7.42626 14.449V12.3679H9.37396C9.71266 12.3709 9.97681 12.4154 10.165 12.5C10.5014 12.6522 10.6685 12.9307 10.6685 13.3376C10.6685 13.8172 10.4954 14.1409 10.1484 14.3117C9.95801 14.403 9.69006 14.449 9.34691 14.449H7.42626ZM7.42626 9.355V11.0767H9.34991C9.69231 11.0767 9.97156 11.0121 10.1868 10.8829C10.4005 10.7538 10.5081 10.5251 10.5081 10.1984C10.5081 9.83385 10.3667 9.59405 10.0837 9.47675C9.83831 9.3958 9.52676 9.355 9.14821 9.355H7.42626Z" fill="white"/>
</g>
<defs>
<clipPath id="clip0_8901_5300">
<rect width="24" height="24" fill="white" transform="translate(0.25)"/>
</clipPath>
</defs>
</svg>
