<svg width="21" height="21" viewBox="0 0 21 21" fill="none" xmlns="http://www.w3.org/2000/svg">
<path d="M15.625 7.79744C15.625 6.38296 15.0982 5.0264 14.1605 4.02621C13.2229 3.02601 11.9511 2.46411 10.625 2.46411C9.29892 2.46411 8.02715 3.02601 7.08947 4.02621C6.15178 5.0264 5.625 6.38296 5.625 7.79744C5.625 14.0197 3.125 15.7974 3.125 15.7974H18.125C18.125 15.7974 15.625 14.0197 15.625 7.79744Z" stroke="#17171F" stroke-linecap="round" stroke-linejoin="round"/>
<path d="M12.063 18.2974C11.9165 18.5499 11.7062 18.7596 11.4532 18.9053C11.2002 19.051 10.9133 19.1277 10.6214 19.1277C10.3294 19.1277 10.0425 19.051 9.7895 18.9053C9.53648 18.7596 9.3262 18.5499 9.17969 18.2974" stroke="#17171F" stroke-linecap="round" stroke-linejoin="round"/>
</svg>
