<svg width="13" height="20" viewBox="0 0 13 20" fill="none" xmlns="http://www.w3.org/2000/svg">
<path d="M0.752531 19.1339L0.752681 19.1347L0.752619 19.134L0.752184 19.1296C0.751818 19.1253 0.75136 19.1184 0.750973 19.1076C0.750093 19.083 0.75 19.0534 0.75 19V3C0.75 1.6609 1.67273 0.75 2.78571 0.75H10.2143C11.3273 0.75 12.25 1.6609 12.25 3V19C12.25 19.1455 12.2069 19.2019 12.195 19.2147C12.1879 19.2223 12.1621 19.25 12.0714 19.25C12.0241 19.25 11.9999 19.2499 11.9812 19.2492C11.981 19.2491 11.9807 19.249 11.9804 19.2488L6.89822 16.0645L6.5 15.8149L6.10178 16.0645L1.05474 19.2268C0.977842 19.2516 0.911902 19.2501 0.868194 19.2383C0.832931 19.2288 0.796069 19.21 0.760643 19.1559C0.756292 19.1453 0.754137 19.139 0.753195 19.1361C0.752858 19.1351 0.752648 19.1344 0.752531 19.1339ZM0.752531 19.1339L0.752474 19.1338L0.752531 19.1339Z" stroke="" stroke-width="1.5"/>
</svg>
