<svg width="24" height="20" viewBox="0 0 24 20" fill="none" xmlns="http://www.w3.org/2000/svg">
<path d="M2.50084 19.9415H21.5554C22.6971 19.9415 23.6266 19.012 23.6266 17.8704V5.44347C23.6266 4.30185 22.6971 3.37232 21.5554 3.37232H17.322L16.8862 1.62758C16.7746 1.17912 16.5161 0.780941 16.1518 0.49655C15.7875 0.21216 15.3385 0.0579359 14.8764 0.0584731H9.17906C8.71703 0.0579762 8.26814 0.212231 7.90401 0.49663C7.53987 0.781028 7.28148 1.17918 7.17004 1.62758L6.73427 3.37232H2.50084C1.95174 3.37297 1.42531 3.59139 1.03704 3.97967C0.648766 4.36794 0.430345 4.89437 0.429688 5.44347V17.8704C0.429688 19.012 1.35922 19.9415 2.50084 19.9415ZM21.5554 19.1131H2.50084C1.8157 19.1131 1.25815 18.5555 1.25815 17.8704V9.31238L9.95698 11.8897V14.5565C9.95698 14.6664 10.0006 14.7718 10.0783 14.8494C10.156 14.9271 10.2614 14.9708 10.3712 14.9708H13.6851C13.7949 14.9708 13.9003 14.9271 13.978 14.8494C14.0556 14.7718 14.0993 14.6664 14.0993 14.5565V11.8897L22.7981 9.31238V17.8704C22.7981 18.5555 22.2406 19.1131 21.5554 19.1131ZM12.0281 13.3138C11.9183 13.3138 11.8129 13.3575 11.7352 13.4352C11.6575 13.5129 11.6139 13.6182 11.6139 13.7281V14.1423H10.7854V12.4854H13.2708V14.1423H12.4424V13.7281C12.4424 13.6182 12.3987 13.5129 12.321 13.4352C12.2434 13.3575 12.138 13.3138 12.0281 13.3138ZM13.2708 11.5799V11.6569H10.7854V10.8285H13.2708V11.5799ZM7.97365 1.82807C8.04066 1.55898 8.19586 1.32009 8.41449 1.14951C8.63312 0.978932 8.90259 0.88649 9.17989 0.886934H14.8772C15.1544 0.886779 15.4238 0.97933 15.6423 1.14986C15.8609 1.3204 16.0162 1.55912 16.0835 1.82807L16.4687 3.37232H7.58759L7.97365 1.82807ZM1.25815 5.44347C1.25815 4.75833 1.8157 4.20078 2.50084 4.20078H21.5554C22.2406 4.20078 22.7981 4.75833 22.7981 5.44347V8.44747L14.0993 11.0248V10.4142C14.0993 10.3044 14.0556 10.199 13.978 10.1213C13.9003 10.0436 13.7949 10 13.6851 10H10.3712C10.2614 10 10.156 10.0436 10.0783 10.1213C10.0006 10.199 9.95698 10.3044 9.95698 10.4142V11.0256L1.25815 8.44747V5.44347Z" fill="#4772F4"/>
</svg>
