<svg width="22" height="19" viewBox="0 0 22 19" fill="none" xmlns="http://www.w3.org/2000/svg">
<path d="M2.51472 18.3212H19.5408C20.5609 18.3212 21.3914 17.4906 21.3914 16.4705V5.36655C21.3914 4.34647 20.5609 3.5159 19.5408 3.5159H15.758L15.3687 1.9569C15.2689 1.55618 15.0379 1.2004 14.7124 0.946281C14.3869 0.692167 13.9857 0.554361 13.5728 0.554841H8.48198C8.06914 0.554397 7.66804 0.692231 7.34267 0.946352C7.0173 1.20047 6.78642 1.55624 6.68685 1.9569L6.29747 3.5159H2.51472C2.02408 3.51648 1.5537 3.71165 1.20676 4.05859C0.859818 4.40553 0.66465 4.87591 0.664062 5.36655V16.4705C0.664062 17.4906 1.49464 18.3212 2.51472 18.3212ZM19.5408 17.5809H2.51472C1.90252 17.5809 1.40433 17.0827 1.40433 16.4705V8.82358L9.17709 11.1265V13.5095C9.17709 13.6076 9.21609 13.7018 9.2855 13.7712C9.35491 13.8406 9.44906 13.8796 9.54722 13.8796H12.5083C12.6064 13.8796 12.7006 13.8406 12.77 13.7712C12.8394 13.7018 12.8784 13.6076 12.8784 13.5095V11.1265L20.6512 8.82358V16.4705C20.6512 17.0827 20.153 17.5809 19.5408 17.5809ZM11.0278 12.3991C10.9296 12.3991 10.8354 12.4381 10.766 12.5075C10.6966 12.5769 10.6576 12.671 10.6576 12.7692V13.1393H9.91735V11.6588H12.1381V13.1393H11.3979V12.7692C11.3979 12.671 11.3589 12.5769 11.2895 12.5075C11.2201 12.4381 11.1259 12.3991 11.0278 12.3991ZM12.1381 10.8497V10.9185H9.91735V10.1783H12.1381V10.8497ZM7.4049 2.13604C7.46478 1.89561 7.60346 1.68215 7.79881 1.52973C7.99417 1.37731 8.23494 1.29471 8.48272 1.2951H13.5735C13.8212 1.29497 14.0619 1.37766 14.2572 1.53004C14.4525 1.68242 14.5912 1.89573 14.6513 2.13604L14.9956 3.5159H7.05994L7.4049 2.13604ZM1.40433 5.36655C1.40433 4.75436 1.90252 4.25616 2.51472 4.25616H19.5408C20.153 4.25616 20.6512 4.75436 20.6512 5.36655V8.05075L12.8784 10.3537V9.80813C12.8784 9.70997 12.8394 9.61582 12.77 9.54641C12.7006 9.477 12.6064 9.438 12.5083 9.438H9.54722C9.44906 9.438 9.35491 9.477 9.2855 9.54641C9.21609 9.61582 9.17709 9.70997 9.17709 9.80813V10.3544L1.40433 8.05075V5.36655Z" fill="#7F8A8E"/>
</svg>
