<svg width="35" height="34" viewBox="0 0 35 34" fill="none" xmlns="http://www.w3.org/2000/svg">
<rect x="0.172852" width="34" height="34" rx="17" fill="white"/>
<rect x="0.672852" y="0.5" width="33" height="33" rx="16.5" stroke="white" stroke-opacity="0.5"/>
<path d="M21.3429 17.4139C21.3429 15.0802 19.3602 13.1875 17.0235 13.1875C14.6868 13.1875 12.7041 15.0802 12.7041 17.4169C12.7041 18.3468 13.1 19.1867 13.61 19.9066H13.601C13.9279 20.3565 14.2429 20.7375 14.5459 21.2564C15.2058 22.3903 15.1038 23.4851 15.1068 23.7041V23.7461H18.9463V23.7041C18.9463 23.4371 18.8383 22.3903 19.4982 21.2564C19.8012 20.7375 20.1161 20.3565 20.4431 19.9066H20.4401C20.947 19.1867 21.3429 18.3468 21.3429 17.4139ZM19.8731 19.8586C19.8551 19.8826 19.8401 19.9036 19.8221 19.9276C19.5792 20.2546 19.3272 20.5935 19.0812 21.0105C18.5623 21.9013 18.4693 22.7472 18.4573 23.2632H17.9834V19.9066L18.9433 17.9869H18.4453L17.5035 19.9066V23.2662H16.5436V19.9066L15.6017 17.9869H15.1038L16.0637 19.9066V23.2662H15.5867C15.5717 22.7502 15.4697 21.8953 14.9598 21.0165C14.8248 20.7855 14.6868 20.5665 14.5489 20.3865H14.5549L13.9969 19.6186C13.523 18.9707 13.184 18.2058 13.184 17.4109C13.184 16.4091 13.664 15.4672 14.3719 14.7593C15.0798 14.0514 16.0217 13.6584 17.0235 13.6584C18.0254 13.6584 18.9673 14.0514 19.6752 14.7593C20.3831 15.4672 20.863 16.4091 20.863 17.4109C20.863 18.2058 20.5241 18.9677 20.0501 19.6156L19.8731 19.8586Z" fill="black"/>
<path d="M16.0635 26.146H17.9832V26.6259H16.0635V26.146Z" fill="black"/>
<path d="M15.584 25.186H18.4636V25.666H15.584V25.186Z" fill="black"/>
<path d="M15.584 24.2261H18.4636V24.706H15.584V24.2261Z" fill="black"/>
<path d="M11.2777 18.9987C10.0761 19.4179 8.87373 19.8348 7.67038 20.2489" stroke="#FFD439" stroke-linecap="round"/>
<path d="M23.068 18.9987C24.2696 19.4179 25.472 19.8348 26.6753 20.2489" stroke="#FFD439" stroke-linecap="round"/>
<path d="M11.3219 15.7453C10.087 15.4375 8.85283 15.1274 7.61927 14.8144" stroke="#FFD439" stroke-linecap="round"/>
<path d="M23.0238 15.7453C24.2587 15.4375 25.4929 15.1274 26.7264 14.8144" stroke="#FFD439" stroke-linecap="round"/>
<path d="M12.9249 12.6318C12.1226 11.6438 11.3224 10.6543 10.5244 9.663" stroke="#FFD439" stroke-linecap="round"/>
<path d="M21.4208 12.6318C22.2231 11.6438 23.0233 10.6543 23.8213 9.663" stroke="#FFD439" stroke-linecap="round"/>
<path d="M17.1613 11.1922C17.1586 9.91955 17.1533 8.64699 17.1452 7.37439" stroke="#FFD439" stroke-linecap="round"/>
</svg>
