<svg width="50" height="55" viewBox="0 0 50 55" fill="none" xmlns="http://www.w3.org/2000/svg">
<rect x="0.414062" y="0.5" width="49" height="54" rx="24" fill="white" fill-opacity="0.65"/>
<path d="M13.4375 17.5833V14.9129C13.4375 14.2839 13.6288 13.7456 14.0115 13.2979C14.3933 12.8493 14.8525 12.625 15.389 12.625H17.6667C17.8383 12.625 17.9816 12.693 18.0968 12.829C18.2128 12.965 18.2708 13.1336 18.2708 13.3347C18.2708 13.5359 18.2128 13.704 18.0968 13.8391C17.9816 13.9741 17.8383 14.0417 17.6667 14.0417H15.389C15.1723 14.0417 14.9942 14.1234 14.8549 14.2868C14.7155 14.4501 14.6458 14.6589 14.6458 14.9129V17.5833C14.6458 17.7845 14.5878 17.9526 14.4718 18.0877C14.3558 18.2237 14.2124 18.2917 14.0417 18.2917C13.8709 18.2917 13.7275 18.2237 13.6115 18.0877C13.4955 17.9526 13.4375 17.7845 13.4375 17.5833ZM35.1875 17.5833V14.9129C35.1875 14.6589 35.1178 14.4501 34.9785 14.2868C34.8391 14.1234 34.6611 14.0417 34.4444 14.0417H32.1667C31.9951 14.0417 31.8517 13.9737 31.7365 13.8377C31.6205 13.7017 31.5625 13.5336 31.5625 13.3333C31.5625 13.1331 31.6205 12.965 31.7365 12.829C31.8525 12.693 31.9959 12.625 32.1667 12.625H34.4444C34.9809 12.625 35.44 12.8493 35.8219 13.2979C36.2045 13.7456 36.3958 14.2839 36.3958 14.9129V17.5833C36.3958 17.7845 36.3378 17.9526 36.2218 18.0877C36.1058 18.2237 35.962 18.2917 35.7905 18.2917C35.6189 18.2917 35.4755 18.2237 35.3603 18.0877C35.2451 17.9526 35.1875 17.7845 35.1875 17.5833ZM13.4375 40.0871V37.4167C13.4375 37.2155 13.4955 37.0474 13.6115 36.9123C13.7275 36.7763 13.8713 36.7083 14.0429 36.7083C14.2145 36.7083 14.3578 36.7763 14.473 36.9123C14.5882 37.0483 14.6458 37.2164 14.6458 37.4167V40.0871C14.6458 40.3411 14.7155 40.5499 14.8549 40.7132C14.9942 40.8766 15.1723 40.9583 15.389 40.9583H17.6667C17.8383 40.9583 17.9816 41.0263 18.0968 41.1623C18.212 41.2983 18.27 41.4664 18.2708 41.6667C18.2708 41.8669 18.2128 42.035 18.0968 42.171C17.9816 42.3061 17.8383 42.3736 17.6667 42.3736H15.389C14.8525 42.3736 14.3933 42.1493 14.0115 41.7007C13.6288 41.253 13.4375 40.7161 13.4375 40.0871ZM34.4444 42.375H32.1667C31.9951 42.375 31.8517 42.307 31.7365 42.171C31.6213 42.035 31.5633 41.8669 31.5625 41.6667C31.5625 41.4664 31.6205 41.2983 31.7365 41.1623C31.8525 41.0273 31.9959 40.9597 32.1667 40.9597H34.4444C34.6611 40.9597 34.8391 40.8781 34.9785 40.7147C35.1178 40.5513 35.1875 40.3426 35.1875 40.0885V37.4167C35.1875 37.2155 35.2455 37.0474 35.3615 36.9123C35.4775 36.7763 35.6213 36.7083 35.7929 36.7083C35.9645 36.7083 36.1078 36.7763 36.223 36.9123C36.3382 37.0483 36.3958 37.2164 36.3958 37.4167V40.0871C36.3958 40.7161 36.2045 41.2544 35.8219 41.7021C35.44 42.1507 34.9809 42.375 34.4444 42.375ZM18.2708 35.8371C18.2708 36.0543 18.3482 36.2541 18.5028 36.4363C18.6583 36.6177 18.8287 36.7083 19.014 36.7083H30.8194C31.0047 36.7083 31.175 36.6177 31.3305 36.4363C31.4852 36.2541 31.5625 36.0543 31.5625 35.8371V19.1629C31.5625 18.9457 31.4852 18.7459 31.3305 18.5637C31.175 18.3823 31.0047 18.2917 30.8194 18.2917H19.014C18.8287 18.2917 18.6583 18.3823 18.5028 18.5637C18.3482 18.7459 18.2708 18.9457 18.2708 19.1629V35.8371ZM19.014 38.125C18.4581 38.125 17.9941 37.9068 17.622 37.4705C17.249 37.0332 17.0625 36.4888 17.0625 35.8371V19.1629C17.0625 18.5112 17.249 17.9672 17.622 17.5309C17.9941 17.0936 18.4581 16.875 19.014 16.875H30.8194C31.3752 16.875 31.8392 17.0936 32.2114 17.5309C32.5843 17.9672 32.7708 18.5112 32.7708 19.1629V35.8371C32.7708 36.4888 32.5848 37.0328 32.2126 37.4691C31.8396 37.9064 31.3752 38.125 30.8194 38.125H19.014ZM22.5 23.9583H27.3333C27.5049 23.9583 27.6483 23.8903 27.7635 23.7543C27.8795 23.6183 27.9375 23.4497 27.9375 23.2486C27.9375 23.0474 27.8795 22.8793 27.7635 22.7442C27.6483 22.6092 27.5049 22.5417 27.3333 22.5417H22.5C22.3284 22.5417 22.185 22.6097 22.0698 22.7457C21.9538 22.8817 21.8958 23.0498 21.8958 23.25C21.8958 23.4502 21.9538 23.6183 22.0698 23.7543C22.1858 23.8894 22.3292 23.9569 22.5 23.9569M22.5 28.2069H27.3333C27.5049 28.2069 27.6483 28.1389 27.7635 28.0029C27.8795 27.8669 27.9375 27.6983 27.9375 27.4972C27.9375 27.296 27.8795 27.1279 27.7635 26.9928C27.6483 26.8587 27.5049 26.7917 27.3333 26.7917H22.5C22.3284 26.7917 22.185 26.8597 22.0698 26.9957C21.9538 27.1317 21.8958 27.3003 21.8958 27.5014C21.8958 27.7026 21.9538 27.8707 22.0698 28.0057C22.1858 28.1408 22.3292 28.2083 22.5 28.2083M22.5 32.4583H27.3333C27.5049 32.4583 27.6483 32.3903 27.7635 32.2543C27.8795 32.1183 27.9375 31.9497 27.9375 31.7486C27.9375 31.5474 27.8795 31.3793 27.7635 31.2442C27.6483 31.1092 27.5049 31.0417 27.3333 31.0417H22.5C22.3284 31.0417 22.185 31.1097 22.0698 31.2457C21.9538 31.3817 21.8958 31.5502 21.8958 31.7514C21.8958 31.9526 21.9538 32.1207 22.0698 32.2558C22.1858 32.3908 22.3292 32.4583 22.5 32.4583ZM18.2708 35.8371V18.2917V36.7083V35.8371Z" fill="#FF8C6B"/>
</svg>
