<svg width="21" height="21" viewBox="0 0 21 21" fill="none" xmlns="http://www.w3.org/2000/svg">
<path d="M10.8828 9.4C10.2778 9.4 9.78281 9.895 9.78281 10.5C9.78281 11.105 10.2778 11.6 10.8828 11.6C11.1746 11.6 11.4543 11.4841 11.6606 11.2778C11.8669 11.0715 11.9828 10.7917 11.9828 10.5C11.9828 10.2083 11.8669 9.92847 11.6606 9.72218C11.4543 9.51589 11.1746 9.4 10.8828 9.4ZM10.8828 0.5C5.35781 0.5 0.882812 4.975 0.882812 10.5C0.882812 16.02 5.35781 20.5 10.8828 20.5C16.4078 20.5 20.8828 16.02 20.8828 10.5C20.8828 4.975 16.4078 0.5 10.8828 0.5ZM13.0728 12.69L4.88281 16.5L8.69281 8.31L16.8828 4.5L13.0728 12.69Z" fill="black"/>
</svg>
