<svg width="45" height="45" viewBox="0 0 45 45" fill="none" xmlns="http://www.w3.org/2000/svg">
<rect x="0.408447" y="0.064209" width="44" height="44" rx="22" fill="white"/>
<rect x="0.908447" y="0.564209" width="43" height="43" rx="21.5" stroke="white" stroke-opacity="0.5"/>
<path d="M23.8184 22.0642L28.1184 17.7742C28.3068 17.5858 28.4125 17.3305 28.4125 17.0642C28.4125 16.7978 28.3068 16.5425 28.1184 16.3542C27.9301 16.1658 27.6747 16.0601 27.4084 16.0601C27.1421 16.0601 26.8868 16.1658 26.6984 16.3542L22.4084 20.6542L18.1184 16.3542C17.9301 16.1658 17.6747 16.0601 17.4084 16.0601C17.1421 16.0601 16.8868 16.1658 16.6984 16.3542C16.5101 16.5425 16.4044 16.7978 16.4044 17.0642C16.4044 17.3305 16.5101 17.5858 16.6984 17.7742L20.9984 22.0642L16.6984 26.3542C16.6047 26.4471 16.5303 26.5577 16.4796 26.6796C16.4288 26.8014 16.4026 26.9321 16.4026 27.0641C16.4026 27.1962 16.4288 27.3269 16.4796 27.4487C16.5303 27.5706 16.6047 27.6812 16.6984 27.7741C16.7914 27.8679 16.902 27.9423 17.0239 27.993C17.1457 28.0438 17.2764 28.0699 17.4084 28.0699C17.5405 28.0699 17.6712 28.0438 17.793 27.993C17.9149 27.9423 18.0255 27.8679 18.1184 27.7741L22.4084 23.4742L26.6984 27.7741C26.7914 27.8679 26.902 27.9423 27.0239 27.993C27.1457 28.0438 27.2764 28.0699 27.4084 28.0699C27.5405 28.0699 27.6712 28.0438 27.793 27.993C27.9149 27.9423 28.0255 27.8679 28.1184 27.7741C28.2122 27.6812 28.2866 27.5706 28.3373 27.4487C28.3881 27.3269 28.4142 27.1962 28.4142 27.0641C28.4142 26.9321 28.3881 26.8014 28.3373 26.6796C28.2866 26.5577 28.2122 26.4471 28.1184 26.3542L23.8184 22.0642Z" fill="#222222"/>
</svg>
