<svg width="21" height="21" viewBox="0 0 21 21" fill="none" xmlns="http://www.w3.org/2000/svg">
<path d="M7.33684 3.94922H14.561C17.086 3.94922 18.6577 5.73172 18.6577 8.25422V13.3942C18.6577 15.9167 17.086 17.6992 14.5602 17.6992H7.33684C6.78229 17.6992 5.98341 17.5527 5.31565 17.757L3.24108 18.3242C2.75356 18.4672 2.31383 18.1106 2.45722 17.6281L3.09769 15.6263C3.32425 15.0274 3.24126 14.0534 3.24101 13.3942V8.25422C3.24101 5.73172 4.81934 3.94922 7.33684 3.94922Z" stroke="black" stroke-width="1.5" stroke-linecap="round" stroke-linejoin="round"/>
<path d="M7.21708 11.822C6.66625 11.822 6.21875 11.3745 6.21875 10.8245C6.21875 10.2745 6.66625 9.82617 7.21708 9.82617C7.76792 9.82617 8.21542 10.2745 8.21542 10.8245C8.21542 11.3745 7.76792 11.822 7.21708 11.822Z" fill="black"/>
<path d="M10.9515 11.822C10.4006 11.822 9.95312 11.3745 9.95312 10.8245C9.95312 10.2745 10.4006 9.82617 10.9515 9.82617C11.5023 9.82617 11.9498 10.2745 11.9498 10.8245C11.9498 11.3745 11.5023 11.822 10.9515 11.822Z" fill="black"/>
<path d="M14.678 11.822C14.1272 11.822 13.6797 11.3745 13.6797 10.8245C13.6797 10.2745 14.1272 9.82617 14.678 9.82617C15.2289 9.82617 15.6764 10.2745 15.6764 10.8245C15.6764 11.3745 15.2289 11.822 14.678 11.822Z" fill="black"/>
</svg>
