<svg width="55" height="55" viewBox="0 0 55 55" fill="none" xmlns="http://www.w3.org/2000/svg">
<rect x="0.914062" y="0.5" width="54" height="54" rx="24" fill="white"/>
<path d="M18.4673 42.0195C18.2099 42.0195 18.0067 41.9085 17.8575 41.6864C17.7094 41.4644 17.6736 41.2395 17.7499 41.0117L25.3513 13.5527C25.4219 13.3568 25.5227 13.2128 25.6536 13.1205C25.7846 13.0272 25.9366 12.9805 26.1097 12.9805C26.3944 12.9805 26.6113 13.0864 26.7605 13.2982C26.9097 13.51 26.9456 13.74 26.8681 13.9883L25.7185 18.105H35.2946L36.5586 13.5527C36.6292 13.3568 36.7317 13.2128 36.8661 13.1205C37.0016 13.0272 37.1667 12.9805 37.3615 12.9805C37.6177 12.9805 37.8204 13.0915 37.9696 13.3136C38.1176 13.5356 38.1535 13.7605 38.0772 13.9883L30.4758 41.4473C30.4052 41.6432 30.3044 41.7872 30.1735 41.8795C30.0425 41.9728 29.8905 42.0195 29.7174 42.0195C29.4327 42.0195 29.2157 41.9136 29.0666 41.7018C28.9174 41.49 28.8815 41.26 28.9589 41.0117L30.1085 36.895H20.5325L19.2684 41.4473C19.1978 41.6432 19.0953 41.7872 18.961 41.8795C18.8254 41.9728 18.662 42.0195 18.4673 42.0195ZM23.3698 26.6459H32.9356L34.8385 19.8132H25.2385L23.3698 26.6459ZM20.9886 35.1868H30.5885L32.4573 28.3541H22.8915L20.9886 35.1868Z" fill="#FF8C6B"/>
</svg>
