<svg width="21" height="20" viewBox="0 0 21 20" fill="none" xmlns="http://www.w3.org/2000/svg">
<path d="M15.7118 9.21876L15.8681 13.3333C15.8912 13.9323 15.6539 14.4878 15.1562 15C14.6586 15.5122 13.9786 15.918 13.1163 16.2175C12.254 16.5169 11.3194 16.6667 10.3125 16.6667C9.30556 16.6667 8.37095 16.5169 7.50868 16.2175C6.64641 15.918 5.96643 15.5122 5.46875 15C4.97106 14.4878 4.73379 13.9323 4.75694 13.3333L4.91319 9.21876L9.89584 11.5755C10.0231 11.6363 10.162 11.6667 10.3125 11.6667C10.463 11.6667 10.6018 11.6363 10.7292 11.5755L15.7118 9.21876ZM20.3125 5.00002C20.3125 5.19967 20.2488 5.33422 20.1215 5.40366L10.3993 9.98701C10.3762 9.99569 10.3472 10 10.3125 10C10.2778 10 10.2488 9.99569 10.2257 9.98701L4.56598 7.30472C4.31714 7.59986 4.11169 8.0838 3.94965 8.75654C3.78762 9.42929 3.68923 10.204 3.65451 11.0808C4.01909 11.3933 4.20138 11.8663 4.20138 12.5C4.20138 13.099 4.03356 13.5634 3.69792 13.8932L4.20137 19.5312C4.21295 19.6528 4.1898 19.7613 4.13193 19.8568C4.07985 19.9523 4.01041 20 3.9236 20H2.25694C2.17014 20 2.1007 19.9523 2.04862 19.8568C1.99074 19.7613 1.96759 19.6528 1.97916 19.5312L2.48263 13.8932C2.14699 13.5634 1.97917 13.099 1.97917 12.5C1.97917 11.8663 2.16725 11.3846 2.5434 11.0547C2.60706 9.25783 2.89062 7.82554 3.3941 6.75783L0.503471 5.40366C0.376157 5.33423 0.3125 5.19968 0.3125 5.00002C0.3125 4.80035 0.376157 4.6658 0.503471 4.59637L10.2257 0.0130243C10.2488 0.00434125 10.2778 0 10.3125 0C10.3472 0 10.3762 0.00434125 10.3993 0.0130243L20.1215 4.59636C20.2488 4.6658 20.3125 4.80035 20.3125 5.00002Z" fill="black"/>
</svg>
