<svg width="13" height="17" viewBox="0 0 13 17" fill="none" xmlns="http://www.w3.org/2000/svg">
<path d="M12.9469 5.9117C12.9388 5.84051 12.9232 5.77037 12.9004 5.70245V5.6327C12.8631 5.55302 12.8134 5.47977 12.7531 5.4157L8.10312 0.765703C8.03906 0.705421 7.96581 0.655716 7.88613 0.618453H7.81637C7.73765 0.573303 7.6507 0.54432 7.56063 0.533203H2.87187C2.25525 0.533203 1.66387 0.778158 1.22785 1.21418C0.79183 1.6502 0.546875 2.24157 0.546875 2.8582V13.7082C0.546875 14.3248 0.79183 14.9162 1.22785 15.3522C1.66387 15.7882 2.25525 16.0332 2.87187 16.0332H10.6219C11.2385 16.0332 11.8299 15.7882 12.2659 15.3522C12.7019 14.9162 12.9469 14.3248 12.9469 13.7082V5.9582C12.9469 5.9582 12.9469 5.9582 12.9469 5.9117ZM8.29688 3.17595L10.3041 5.1832H9.07187C8.86633 5.1832 8.66921 5.10155 8.52387 4.95621C8.37853 4.81087 8.29688 4.61375 8.29688 4.4082V3.17595ZM11.3969 13.7082C11.3969 13.9137 11.3152 14.1109 11.1699 14.2562C11.0245 14.4016 10.8274 14.4832 10.6219 14.4832H2.87187C2.66633 14.4832 2.46921 14.4016 2.32387 14.2562C2.17853 14.1109 2.09687 13.9137 2.09687 13.7082V2.8582C2.09687 2.65266 2.17853 2.45554 2.32387 2.3102C2.46921 2.16485 2.66633 2.0832 2.87187 2.0832H6.74687V4.4082C6.74687 5.02483 6.99183 5.6162 7.42785 6.05223C7.86387 6.48825 8.45525 6.7332 9.07187 6.7332H11.3969V13.7082Z" fill=""/>
</svg>
