<svg width="157" height="168" viewBox="0 0 157 168" fill="none" xmlns="http://www.w3.org/2000/svg">
<mask id="path-1-inside-1_26_65" fill="white">
<path fill-rule="evenodd" clip-rule="evenodd" d="M8 168C3.58172 168 0 164.418 0 160V8C0 3.58173 3.58172 0 8 0H142C146.418 0 150 3.58173 150 8V8C150 14.2991 142.016 18.4697 135.731 18.0567C135.159 18.0191 134.582 18 134 18C119.641 18 108 29.6406 108 44C108 58.3594 119.641 70 134 70V70C141.003 70 150 74.7291 150 81.7317V160C150 164.418 146.418 168 142 168H8Z"/>
</mask>
<path fill-rule="evenodd" clip-rule="evenodd" d="M8 168C3.58172 168 0 164.418 0 160V8C0 3.58173 3.58172 0 8 0H142C146.418 0 150 3.58173 150 8V8C150 14.2991 142.016 18.4697 135.731 18.0567C135.159 18.0191 134.582 18 134 18C119.641 18 108 29.6406 108 44C108 58.3594 119.641 70 134 70V70C141.003 70 150 74.7291 150 81.7317V160C150 164.418 146.418 168 142 168H8Z" fill="white"/>
<path d="M135.731 18.0567L135.681 18.8051L135.731 18.0567ZM0.75 160C0.75 164.004 3.99594 167.25 8 167.25V168.75C3.16751 168.75 -0.75 164.832 -0.75 160H0.75ZM0.75 8V160H-0.75V8H0.75ZM8 0.75C3.99594 0.75 0.75 3.99594 0.75 8H-0.75C-0.75 3.16751 3.16751 -0.75 8 -0.75V0.75ZM142 0.75H8V-0.75H142V0.75ZM149.25 8C149.25 3.99594 146.004 0.75 142 0.75V-0.75C146.832 -0.75 150.75 3.16751 150.75 8H149.25ZM135.681 18.8051C135.126 18.7686 134.565 18.75 134 18.75V17.25C134.598 17.25 135.191 17.2696 135.78 17.3083L135.681 18.8051ZM134 18.75C120.055 18.75 108.75 30.0548 108.75 44H107.25C107.25 29.2264 119.226 17.25 134 17.25V18.75ZM108.75 44C108.75 57.9452 120.055 69.25 134 69.25V70.75C119.226 70.75 107.25 58.7736 107.25 44H108.75ZM149.25 160V81.7317H150.75V160H149.25ZM142 167.25C146.004 167.25 149.25 164.004 149.25 160H150.75C150.75 164.832 146.832 168.75 142 168.75V167.25ZM8 167.25H142V168.75H8V167.25ZM134 69.25C137.65 69.25 141.793 70.4767 145.038 72.6135C148.277 74.7459 150.75 77.8806 150.75 81.7317H149.25C149.25 78.5801 147.225 75.849 144.214 73.8662C141.209 71.8879 137.352 70.75 134 70.75V69.25ZM150.75 8C150.75 11.4965 148.534 14.3186 145.626 16.1773C142.716 18.038 138.991 19.0225 135.681 18.8051L135.78 17.3083C138.756 17.5039 142.165 16.6096 144.818 14.9135C147.474 13.2154 149.25 10.8026 149.25 8H150.75Z" fill="black" mask="url(#path-1-inside-1_26_65)"/>
<ellipse cx="133.5" cy="44" rx="23.5" ry="24" fill="#202020"/>
<path fill-rule="evenodd" clip-rule="evenodd" d="M130.543 49.9571C130.152 49.5666 130.152 48.9334 130.543 48.5429L135.336 43.75L130.543 38.9571C130.152 38.5666 130.152 37.9334 130.543 37.5429C130.933 37.1524 131.567 37.1524 131.957 37.5429L137.457 43.0429C137.848 43.4334 137.848 44.0666 137.457 44.4571L131.957 49.9571C131.567 50.3476 130.933 50.3476 130.543 49.9571Z" fill="white"/>
</svg>
