<svg width="22" height="22" viewBox="0 0 22 22" fill="none" xmlns="http://www.w3.org/2000/svg">
<path d="M7.85714 3.66667H14.1429V1.83333H7.85714V3.66667ZM22 12.8333V19.7083C22 20.3385 21.8077 20.878 21.423 21.3268C21.0383 21.7756 20.5759 22 20.0357 22H1.96429C1.42411 22 0.961682 21.7756 0.577009 21.3268C0.192336 20.878 0 20.3385 0 19.7083V12.8333H8.25V15.125C8.25 15.3733 8.32775 15.5881 8.48326 15.7695C8.63876 15.951 8.82292 16.0417 9.03571 16.0417H12.9643C13.1771 16.0417 13.3612 15.951 13.5167 15.7695C13.6722 15.5881 13.75 15.3733 13.75 15.125V12.8333H22ZM12.5714 12.8333V14.6667H9.42857V12.8333H12.5714ZM22 5.95833V11.4583H0V5.95833C0 5.32812 0.192336 4.78863 0.577009 4.33984C0.961682 3.89106 1.42411 3.66667 1.96429 3.66667H6.28571V1.375C6.28571 0.993056 6.4003 0.668403 6.62946 0.401042C6.85863 0.133681 7.1369 0 7.46429 0H14.5357C14.8631 0 15.1414 0.133681 15.3705 0.401042C15.5997 0.668403 15.7143 0.993056 15.7143 1.375V3.66667H20.0357C20.5759 3.66667 21.0383 3.89106 21.423 4.33984C21.8077 4.78863 22 5.32812 22 5.95833Z" fill="#8E8E8E"/>
</svg>
