<svg width="17" height="17" viewBox="0 0 17 17" fill="none" xmlns="http://www.w3.org/2000/svg">
<g clip-path="url(#clip0_5450_31698)">
<path d="M10.1172 8.92773C10.1172 9.45817 9.90647 9.96688 9.5314 10.3419C9.15633 10.717 8.64762 10.9277 8.11719 10.9277C7.58675 10.9277 7.07805 10.717 6.70297 10.3419C6.3279 9.96688 6.11719 9.45817 6.11719 8.92773C6.11719 8.3973 6.3279 7.88859 6.70297 7.51352C7.07805 7.13845 7.58675 6.92773 8.11719 6.92773C8.64762 6.92773 9.15633 7.13845 9.5314 7.51352C9.90647 7.88859 10.1172 8.3973 10.1172 8.92773Z" stroke="black" stroke-linecap="round" stroke-linejoin="round"/>
<path d="M1.45312 8.92839C2.51979 6.19705 5.01046 4.26172 8.11979 4.26172C11.2291 4.26172 13.7198 6.19705 14.7865 8.92839C13.7198 11.6597 11.2291 13.5951 8.11979 13.5951C5.01046 13.5951 2.51979 11.6597 1.45312 8.92839Z" stroke="black" stroke-linecap="round" stroke-linejoin="round"/>
</g>
<defs>
<clipPath id="clip0_5450_31698">
<rect width="16" height="16" fill="white" transform="translate(0.117188 0.927734)"/>
</clipPath>
</defs>
</svg>
