<svg width="12" height="12" viewBox="0 0 12 12" fill="none" xmlns="http://www.w3.org/2000/svg">
<path d="M6.38851 8.3183L4.22411 10.4827C3.96206 10.7356 3.61209 10.877 3.2479 10.877C2.88372 10.877 2.53374 10.7356 2.27169 10.4827C2.14317 10.3547 2.04119 10.2026 1.97161 10.035C1.90202 9.86751 1.8662 9.68789 1.8662 9.50649C1.8662 9.32509 1.90202 9.14548 1.97161 8.97795C2.04119 8.81043 2.14317 8.6583 2.27169 8.53028L4.43609 6.36588C4.54113 6.26084 4.60015 6.11837 4.60015 5.96982C4.60015 5.82127 4.54113 5.6788 4.43609 5.57376C4.33105 5.46871 4.18858 5.4097 4.04003 5.4097C3.89148 5.4097 3.74901 5.46871 3.64397 5.57376L1.47957 7.74373C1.04354 8.21834 0.80772 8.84304 0.821361 9.48739C0.835003 10.1317 1.09705 10.7459 1.55277 11.2016C2.0085 11.6573 2.62266 11.9194 3.26701 11.933C3.91135 11.9467 4.53606 11.7109 5.01066 11.2748L7.18064 9.11043C7.28568 9.00539 7.3447 8.86292 7.3447 8.71437C7.3447 8.56581 7.28568 8.42335 7.18064 8.3183C7.0756 8.21326 6.93313 8.15425 6.78458 8.15425C6.63603 8.15425 6.49356 8.21326 6.38851 8.3183ZM11.1747 1.57966C10.7055 1.11331 10.0708 0.851562 9.40919 0.851562C8.74761 0.851562 8.11291 1.11331 7.64364 1.57966L5.47367 3.74406C5.42165 3.79607 5.3804 3.85781 5.35225 3.92577C5.3241 3.99373 5.30961 4.06656 5.30961 4.14012C5.30961 4.21367 5.3241 4.28651 5.35225 4.35447C5.3804 4.42242 5.42165 4.48417 5.47367 4.53618C5.52568 4.58819 5.58742 4.62945 5.65538 4.6576C5.72334 4.68575 5.79617 4.70024 5.86973 4.70024C5.94328 4.70024 6.01612 4.68575 6.08408 4.6576C6.15203 4.62945 6.21378 4.58819 6.26579 4.53618L8.43019 2.37178C8.69224 2.11887 9.04222 1.97754 9.4064 1.97754C9.77059 1.97754 10.1206 2.11887 10.3826 2.37178C10.5111 2.4998 10.6131 2.65193 10.6827 2.81945C10.7523 2.98698 10.7881 3.16659 10.7881 3.34799C10.7881 3.52939 10.7523 3.70901 10.6827 3.87653C10.6131 4.04405 10.5111 4.19619 10.3826 4.3242L8.21821 6.4886C8.16593 6.54046 8.12443 6.60216 8.09611 6.67014C8.06779 6.73812 8.05321 6.81103 8.05321 6.88467C8.05321 6.95831 8.06779 7.03122 8.09611 7.0992C8.12443 7.16718 8.16593 7.22887 8.21821 7.28073C8.27007 7.33302 8.33177 7.37452 8.39975 7.40284C8.46772 7.43116 8.54064 7.44574 8.61428 7.44574C8.68792 7.44574 8.76083 7.43116 8.82881 7.40284C8.89678 7.37452 8.95848 7.33302 9.01034 7.28073L11.1747 5.11075C11.6411 4.64149 11.9028 4.00678 11.9028 3.3452C11.9028 2.68363 11.6411 2.04892 11.1747 1.57966ZM4.55882 8.19558C4.61094 8.24728 4.67276 8.28818 4.74072 8.31595C4.80869 8.34371 4.88146 8.35778 4.95488 8.35735C5.02829 8.35778 5.10107 8.34371 5.16903 8.31595C5.237 8.28818 5.29882 8.24728 5.35094 8.19558L8.09549 5.45103C8.20053 5.34599 8.25954 5.20352 8.25954 5.05497C8.25954 4.90642 8.20053 4.76395 8.09549 4.65891C7.99045 4.55386 7.84798 4.49485 7.69943 4.49485C7.55088 4.49485 7.40841 4.55386 7.30336 4.65891L4.55882 7.40345C4.50653 7.45531 4.46503 7.51701 4.43671 7.58499C4.40839 7.65296 4.39381 7.72588 4.39381 7.79952C4.39381 7.87316 4.40839 7.94607 4.43671 8.01405C4.46503 8.08203 4.50653 8.14372 4.55882 8.19558Z" fill="#000"/>
</svg>
