<svg width="11" height="11" viewBox="0 0 11 11" fill="none" xmlns="http://www.w3.org/2000/svg">
<path d="M9.38227 0.142578H2.03228C1.61456 0.142578 1.21395 0.308515 0.918582 0.603885C0.623212 0.899255 0.457275 1.29986 0.457275 1.71758V9.06758C0.457275 9.48529 0.623212 9.8859 0.918582 10.1813C1.21395 10.4766 1.61456 10.6426 2.03228 10.6426H9.38227C9.46863 10.6414 9.55471 10.6326 9.63952 10.6163L9.79703 10.5796H9.83378H9.86002L10.0543 10.5061L10.1225 10.4693C10.175 10.4378 10.2328 10.4116 10.2853 10.3748C10.3554 10.3233 10.422 10.2671 10.4848 10.2068L10.5215 10.1596C10.5731 10.1073 10.6205 10.0512 10.6633 9.99158L10.7105 9.92333C10.7472 9.86488 10.7788 9.8034 10.805 9.73958C10.8194 9.71439 10.8317 9.68805 10.8418 9.66083C10.868 9.59783 10.8838 9.52958 10.9048 9.46133V9.38258C10.9345 9.27999 10.9522 9.17427 10.9573 9.06758V1.71758C10.9573 1.29986 10.7913 0.899255 10.496 0.603885C10.2006 0.308515 9.79999 0.142578 9.38227 0.142578ZM2.03228 9.59258C1.89304 9.59258 1.7595 9.53727 1.66104 9.43881C1.56259 9.34035 1.50728 9.20682 1.50728 9.06758V6.80483L3.23453 5.07233C3.28333 5.02312 3.3414 4.98406 3.40537 4.95741C3.46935 4.93076 3.53797 4.91703 3.60728 4.91703C3.67658 4.91703 3.7452 4.93076 3.80918 4.95741C3.87315 4.98406 3.93122 5.02312 3.98003 5.07233L8.49502 9.59258H2.03228ZM9.90728 9.06758C9.90678 9.1323 9.89432 9.19638 9.87053 9.25658C9.85853 9.28217 9.84448 9.30675 9.82853 9.33008C9.81448 9.3523 9.79868 9.37337 9.78127 9.39308L6.97253 6.58433L7.43453 6.12233C7.48333 6.07312 7.5414 6.03406 7.60537 6.00741C7.66935 5.98076 7.73797 5.96703 7.80727 5.96703C7.87658 5.96703 7.9452 5.98076 8.00918 6.00741C8.07315 6.03406 8.13122 6.07312 8.18002 6.12233L9.90728 7.85483V9.06758ZM9.90728 6.36908L8.92028 5.39258C8.61983 5.1075 8.22145 4.94857 7.80727 4.94857C7.3931 4.94857 6.99472 5.1075 6.69428 5.39258L6.23228 5.85458L4.72027 4.34258C4.41983 4.0575 4.02145 3.89857 3.60728 3.89857C3.1931 3.89857 2.79472 4.0575 2.49428 4.34258L1.50728 5.31908V1.71758C1.50728 1.57834 1.56259 1.4448 1.66104 1.34635C1.7595 1.24789 1.89304 1.19258 2.03228 1.19258H9.38227C9.52151 1.19258 9.65505 1.24789 9.75351 1.34635C9.85196 1.4448 9.90728 1.57834 9.90728 1.71758V6.36908ZM6.49478 2.24258C6.33902 2.24258 6.18677 2.28876 6.05726 2.3753C5.92776 2.46183 5.82682 2.58482 5.76722 2.72871C5.70762 2.87261 5.69202 3.03095 5.72241 3.18371C5.75279 3.33647 5.82779 3.47679 5.93793 3.58692C6.04806 3.69706 6.18838 3.77206 6.34114 3.80245C6.4939 3.83283 6.65224 3.81724 6.79614 3.75763C6.94004 3.69803 7.06303 3.59709 7.14956 3.46759C7.23609 3.33809 7.28228 3.18583 7.28228 3.03008C7.28228 2.82122 7.19931 2.62092 7.05162 2.47323C6.90394 2.32555 6.70363 2.24258 6.49478 2.24258Z" fill=""/>
</svg>
