<svg width="14" height="11" viewBox="0 0 14 11" fill="none" xmlns="http://www.w3.org/2000/svg">
<path d="M13.1716 2.0149C12.9762 1.91963 12.7594 1.88864 12.5479 1.92578C12.3365 1.96293 12.1398 2.06657 11.9823 2.22383L10.6001 3.61669V2.60686C10.6001 2.05275 10.3969 1.52133 10.0353 1.12952C9.67359 0.737699 9.18305 0.517578 8.67156 0.517578H2.88585C2.37436 0.517578 1.88382 0.737699 1.52214 1.12952C1.16046 1.52133 0.957275 2.05275 0.957275 2.60686V8.17829C0.957275 8.73241 1.16046 9.26382 1.52214 9.65564C1.88382 10.0475 2.37436 10.2676 2.88585 10.2676H8.67156C9.18305 10.2676 9.67359 10.0475 10.0353 9.65564C10.3969 9.26382 10.6001 8.73241 10.6001 8.17829V7.16847L11.9887 8.56133C12.1931 8.76179 12.4587 8.8734 12.7344 8.87472C12.8874 8.87434 13.0386 8.83873 13.178 8.77026C13.3676 8.68717 13.53 8.54472 13.6445 8.36113C13.7591 8.17753 13.8204 7.96112 13.8208 7.73954V3.04561C13.8199 2.82324 13.7576 2.60625 13.6419 2.42256C13.5262 2.23888 13.3624 2.0969 13.1716 2.0149ZM9.31442 8.17829C9.31442 8.363 9.24669 8.54014 9.12613 8.67074C9.00557 8.80135 8.84206 8.87472 8.67156 8.87472H2.88585C2.71535 8.87472 2.55184 8.80135 2.43128 8.67074C2.31072 8.54014 2.24299 8.363 2.24299 8.17829V2.60686C2.24299 2.42216 2.31072 2.24502 2.43128 2.11441C2.55184 1.98381 2.71535 1.91044 2.88585 1.91044H8.67156C8.84206 1.91044 9.00557 1.98381 9.12613 2.11441C9.24669 2.24502 9.31442 2.42216 9.31442 2.60686V8.17829ZM12.5287 7.20329L10.7223 5.39258L12.5287 3.58186V7.20329Z" fill=""/>
</svg>
