<svg width="15" height="9" viewBox="0 0 15 9" fill="none" xmlns="http://www.w3.org/2000/svg">
<path d="M7.47094 0.461426C10.4539 0.461426 13.0013 2.21799 14.0334 4.69752C13.0013 7.17705 10.4539 8.93362 7.47094 8.93362C4.485 8.93362 1.94054 7.17705 0.908438 4.69752C1.94054 2.21799 4.485 0.461426 7.47094 0.461426ZM7.47094 7.52158C9.11753 7.52158 10.4539 6.2564 10.4539 4.69752C10.4539 3.13864 9.11753 1.87346 7.47094 1.87346C5.82435 1.87346 4.48799 3.13864 4.48799 4.69752C4.48799 6.2564 5.82435 7.52158 7.47094 7.52158ZM7.47094 3.00308C8.4583 3.00308 9.26072 3.76276 9.26072 4.69752C9.26072 5.63229 8.4583 6.39196 7.47094 6.39196C6.48358 6.39196 5.68117 5.63229 5.68117 4.69752C5.68117 3.76276 6.48358 3.00308 7.47094 3.00308Z" fill=""/>
</svg>
