<svg width="16" height="16" viewBox="0 0 16 16" fill="none" xmlns="http://www.w3.org/2000/svg">
<path id="Layer 15" d="M0.380952 2.65768H3.0819C3.17471 3.18832 3.45134 3.66919 3.86313 4.0157C4.27493 4.36221 4.79552 4.55217 5.33333 4.55217C5.87115 4.55217 6.39174 4.36221 6.80353 4.0157C7.21533 3.66919 7.49196 3.18832 7.58476 2.65768H15.619C15.7201 2.65768 15.817 2.61748 15.8884 2.54591C15.9599 2.47435 16 2.37729 16 2.27609C16 2.17488 15.9599 2.07782 15.8884 2.00626C15.817 1.9347 15.7201 1.89449 15.619 1.89449H7.58476C7.49196 1.36385 7.21533 0.882986 6.80353 0.536474C6.39174 0.189963 5.87115 0 5.33333 0C4.79552 0 4.27493 0.189963 3.86313 0.536474C3.45134 0.882986 3.17471 1.36385 3.0819 1.89449H0.380952C0.279918 1.89449 0.183021 1.9347 0.111578 2.00626C0.0401359 2.07782 0 2.17488 0 2.27609C0 2.37729 0.0401359 2.47435 0.111578 2.54591C0.183021 2.61748 0.279918 2.65768 0.380952 2.65768ZM5.33333 0.749708C5.63471 0.749708 5.92933 0.839229 6.17992 1.00695C6.43051 1.17467 6.62582 1.41306 6.74115 1.69197C6.85648 1.97088 6.88666 2.27778 6.82786 2.57387C6.76907 2.86996 6.62394 3.14193 6.41083 3.3554C6.19772 3.56887 5.9262 3.71424 5.63061 3.77313C5.33502 3.83203 5.02864 3.8018 4.7502 3.68627C4.47176 3.57075 4.23377 3.37511 4.06633 3.1241C3.89889 2.87308 3.80952 2.57797 3.80952 2.27609C3.80952 1.87127 3.97007 1.48303 4.25584 1.19677C4.54161 0.910523 4.92919 0.749708 5.33333 0.749708ZM15.619 7.61841H12.9181C12.8253 7.08777 12.5487 6.6069 12.1369 6.26039C11.7251 5.91388 11.2045 5.72392 10.6667 5.72392C10.1289 5.72392 9.60826 5.91388 9.19647 6.26039C8.78467 6.6069 8.50804 7.08777 8.41524 7.61841H0.380952C0.279918 7.61841 0.183021 7.65861 0.111578 7.73017C0.0401359 7.80174 0 7.8988 0 8C0 8.10121 0.0401359 8.19827 0.111578 8.26983C0.183021 8.34139 0.279918 8.38159 0.380952 8.38159H8.41524C8.50804 8.91223 8.78467 9.3931 9.19647 9.73961C9.60826 10.0861 10.1289 10.2761 10.6667 10.2761C11.2045 10.2761 11.7251 10.0861 12.1369 9.73961C12.5487 9.3931 12.8253 8.91223 12.9181 8.38159H15.619C15.7201 8.38159 15.817 8.34139 15.8884 8.26983C15.9599 8.19827 16 8.10121 16 8C16 7.8988 15.9599 7.80174 15.8884 7.73017C15.817 7.65861 15.7201 7.61841 15.619 7.61841ZM10.6667 9.52638C10.3653 9.52638 10.0707 9.43686 9.82008 9.26914C9.56949 9.10142 9.37418 8.86303 9.25885 8.58412C9.14352 8.30521 9.11334 7.99831 9.17214 7.70222C9.23093 7.40613 9.37606 7.13416 9.58917 6.92069C9.80228 6.70722 10.0738 6.56185 10.3694 6.50295C10.665 6.44406 10.9714 6.47428 11.2498 6.58981C11.5282 6.70534 11.7662 6.90098 11.9337 7.15199C12.1011 7.403 12.1905 7.69811 12.1905 8C12.1905 8.40482 12.0299 8.79306 11.7442 9.07931C11.4584 9.36556 11.0708 9.52638 10.6667 9.52638ZM15.619 13.3423H7.58476C7.49196 12.8117 7.21533 12.3308 6.80353 11.9843C6.39174 11.6378 5.87115 11.4478 5.33333 11.4478C4.79552 11.4478 4.27493 11.6378 3.86313 11.9843C3.45134 12.3308 3.17471 12.8117 3.0819 13.3423H0.380952C0.279918 13.3423 0.183021 13.3825 0.111578 13.4541C0.0401359 13.5257 0 13.6227 0 13.7239C0 13.8251 0.0401359 13.9222 0.111578 13.9937C0.183021 14.0653 0.279918 14.1055 0.380952 14.1055H3.0819C3.17471 14.6362 3.45134 15.117 3.86313 15.4635C4.27493 15.81 4.79552 16 5.33333 16C5.87115 16 6.39174 15.81 6.80353 15.4635C7.21533 15.117 7.49196 14.6362 7.58476 14.1055H15.619C15.7201 14.1055 15.817 14.0653 15.8884 13.9937C15.9599 13.9222 16 13.8251 16 13.7239C16 13.6227 15.9599 13.5257 15.8884 13.4541C15.817 13.3825 15.7201 13.3423 15.619 13.3423ZM5.33333 15.2503C5.03195 15.2503 4.73734 15.1608 4.48675 14.9931C4.23616 14.8253 4.04085 14.5869 3.92552 14.308C3.81018 14.0291 3.78001 13.7222 3.8388 13.4261C3.8976 13.13 4.04273 12.8581 4.25584 12.6446C4.46895 12.4311 4.74046 12.2858 5.03605 12.2269C5.33164 12.168 5.63803 12.1982 5.91647 12.3137C6.19491 12.4293 6.4329 12.6249 6.60033 12.8759C6.76777 13.1269 6.85714 13.422 6.85714 13.7239C6.85714 14.1287 6.6966 14.517 6.41083 14.8032C6.12506 15.0895 5.73747 15.2503 5.33333 15.2503Z" fill="black"/>
</svg>
