<svg width="25" height="24" viewBox="0 0 25 24" fill="none" xmlns="http://www.w3.org/2000/svg">
<g clip-path="url(#clip0_8901_5297)">
<path d="M24.75 12.3027C24.75 5.50811 19.3774 0 12.75 0C6.12257 0 0.75 5.50811 0.75 12.3027C0.75 17.7695 4.23086 22.398 9.042 24C9.69943 23.7935 9.73029 23.3831 9.73029 23.3831C9.73029 23.3831 9.73029 22.1678 9.73029 21.0447C9.00771 21.1809 8.11029 21.1827 7.78371 21.1827C7.386 21.1827 6.06171 20.8435 5.47886 19.3091C4.896 17.7748 3.81 17.6254 3.81 17.3539C3.81 17.0823 4.04829 17.0279 4.04829 17.0279C4.04829 17.0279 4.194 17.0279 4.84286 17.0279C5.49171 17.0279 6.14057 18.1413 6.59143 18.8205C7.04229 19.4998 8.12743 19.6352 8.658 19.6352C8.95543 19.6352 9.41657 19.4814 9.76714 19.3461C9.91029 18.3952 10.446 17.6799 10.446 17.6799C5.09486 17.1913 4.96286 13.0901 4.96286 11.4881C4.96286 9.88613 6.23486 8.3105 6.23486 8.3105C6.23486 8.3105 5.61857 6.51781 6.39343 5.05115C8.06229 5.06433 9.73114 6.35436 9.73114 6.35436C9.73114 6.35436 11.2397 5.86665 12.75 5.86665C14.2603 5.86665 15.7697 6.35524 15.7697 6.35524C15.7697 6.35524 17.4386 5.06521 19.1074 5.05203C19.8823 6.51869 19.266 8.31138 19.266 8.31138C19.266 8.31138 20.538 9.88613 20.538 11.489C20.538 13.091 20.4051 17.1922 15.0549 17.6808C15.0549 17.6808 15.7697 18.6316 15.7697 19.7995C15.7697 20.9674 15.7697 23.3849 15.7697 23.3849C15.7697 23.3849 15.7997 23.7944 16.458 24.0018C21.2691 22.398 24.75 17.7695 24.75 12.3027Z" fill="black"/>
</g>
<defs>
<clipPath id="clip0_8901_5297">
<rect width="24" height="24" fill="white" transform="translate(0.75)"/>
</clipPath>
</defs>
</svg>
