<svg width="21" height="16" viewBox="0 0 21 16" fill="none" xmlns="http://www.w3.org/2000/svg">
<path d="M10.1955 6.13703C8.64185 6.13703 7.37695 4.87214 7.37695 3.31852C7.37695 1.76489 8.64185 0.5 10.1955 0.5C11.7491 0.5 13.014 1.76489 13.014 3.31852C13.014 4.87214 11.7491 6.13703 10.1955 6.13703ZM10.1955 1.37305C9.12306 1.37305 8.24313 2.2461 8.24313 3.32539C8.24313 4.40468 9.11618 5.27773 10.1955 5.27773C11.2748 5.27773 12.1478 4.40468 12.1478 3.32539C12.1478 2.2461 11.2679 1.37305 10.1955 1.37305Z" fill="#010101"/>
<path d="M4.43477 6.08194C3.163 6.08194 2.13184 5.05078 2.13184 3.77901C2.13184 2.50724 3.163 1.47607 4.43477 1.47607C5.70654 1.47607 6.7377 2.50724 6.7377 3.77901C6.7377 5.05078 5.70654 6.08194 4.43477 6.08194ZM4.43477 2.33538C3.64421 2.33538 2.99801 2.98157 2.99801 3.77213C2.99801 4.56269 3.64421 5.20889 4.43477 5.20889C5.22533 5.20889 5.87152 4.56269 5.87152 3.77213C5.87152 2.98157 5.22533 2.33538 4.43477 2.33538Z" fill="#010101"/>
<path d="M15.9563 6.08194C14.6845 6.08194 13.6533 5.05078 13.6533 3.77901C13.6533 2.50724 14.6845 1.47607 15.9563 1.47607C17.228 1.47607 18.2592 2.50724 18.2592 3.77901C18.2592 5.05078 17.228 6.08194 15.9563 6.08194ZM15.9563 2.33538C15.1657 2.33538 14.5195 2.98157 14.5195 3.77213C14.5195 4.56269 15.1657 5.20889 15.9563 5.20889C16.7468 5.20889 17.393 4.56269 17.393 3.77213C17.393 2.98157 16.7468 2.33538 15.9563 2.33538Z" fill="#010101"/>
<path d="M20.0539 9.78732C20.0539 8.14434 18.4109 6.39136 15.9567 6.39136C14.7124 6.39136 13.6194 6.74195 12.8563 7.38127C12.107 6.99631 11.2065 6.76258 10.1959 6.76258C9.18539 6.76258 8.28484 6.99631 7.53553 7.38127C6.77247 6.74195 5.67944 6.39136 4.43516 6.39136C1.98099 6.39136 0.338006 8.14434 0.338006 9.78045L0.317383 13.2039C0.317383 13.3827 0.386127 13.5614 0.523616 13.6989C0.702351 13.8776 0.970453 13.9807 1.25918 13.9807H5.08136L5.07449 14.6269C5.06761 14.8263 5.1501 15.0256 5.30134 15.1769C5.5007 15.3831 5.81692 15.5 6.15377 15.5H14.2518C14.5887 15.5 14.898 15.3831 15.1043 15.1769C15.2555 15.0256 15.338 14.8332 15.3311 14.6338L15.3243 13.9807H19.1327C19.4214 13.9807 19.6895 13.8776 19.8683 13.6989C20.0057 13.5614 20.0745 13.3826 20.0745 13.2108L20.0539 9.78732ZM5.10198 10.8597L5.08136 13.1145H1.25918C1.22481 13.1145 1.20418 13.1145 1.18356 13.1077L1.20418 9.78045C1.20418 8.5843 2.53095 7.25066 4.43516 7.25066C5.33571 7.25066 6.15377 7.47064 6.74497 7.86936C5.70693 8.66679 5.10198 9.78732 5.10198 10.8597ZM14.245 14.6407H6.1469C6.04378 14.6407 5.96816 14.6132 5.93379 14.5925L5.96129 10.8666C5.96129 9.30611 7.65927 7.63563 10.1891 7.63563C12.7188 7.63563 14.4168 9.30611 14.4168 10.8735L14.4443 14.5925C14.4168 14.6132 14.3481 14.6407 14.245 14.6407ZM19.1327 13.1214H15.3105L15.2899 10.8666C15.2899 9.78732 14.6849 8.67367 13.64 7.87623C14.2312 7.47752 15.0493 7.25753 15.9498 7.25753C17.854 7.25753 19.1808 8.59117 19.1808 9.78732L19.2014 13.1077C19.1877 13.1145 19.1671 13.1214 19.1327 13.1214Z" fill="#010101"/>
</svg>
