<svg width="16" height="17" viewBox="0 0 16 17" fill="none" xmlns="http://www.w3.org/2000/svg">
<path d="M13.175 0.533203H2.325C1.70837 0.533203 1.117 0.778158 0.680977 1.21418C0.244955 1.6502 0 2.24157 0 2.8582V13.7082C0 14.3248 0.244955 14.9162 0.680977 15.3522C1.117 15.7882 1.70837 16.0332 2.325 16.0332H13.175C13.3025 16.0314 13.4295 16.0185 13.5547 15.9945L13.7873 15.9402H13.8415H13.8802L14.167 15.8317L14.2677 15.7775C14.3452 15.731 14.4305 15.6922 14.508 15.638C14.6115 15.5618 14.7099 15.479 14.8025 15.39L14.8567 15.3202C14.9328 15.2431 15.0028 15.1602 15.066 15.0722L15.1357 14.9715C15.1899 14.8852 15.2366 14.7944 15.2752 14.7002C15.2965 14.663 15.3147 14.6241 15.3295 14.584C15.3682 14.491 15.3915 14.3902 15.4225 14.2895V14.1732C15.4664 14.0218 15.4924 13.8657 15.5 13.7082V2.8582C15.5 2.24157 15.255 1.6502 14.819 1.21418C14.383 0.778158 13.7916 0.533203 13.175 0.533203ZM2.325 14.4832C2.11946 14.4832 1.92233 14.4016 1.77699 14.2562C1.63165 14.1109 1.55 13.9137 1.55 13.7082V10.368L4.09975 7.81045C4.1718 7.73781 4.25751 7.68016 4.35195 7.64081C4.44639 7.60147 4.54769 7.58121 4.65 7.58121C4.75231 7.58121 4.85361 7.60147 4.94805 7.64081C5.04249 7.68016 5.1282 7.73781 5.20025 7.81045L11.8652 14.4832H2.325ZM13.95 13.7082C13.9493 13.8038 13.9309 13.8983 13.8958 13.9872C13.878 14.025 13.8573 14.0613 13.8337 14.0957C13.813 14.1285 13.7897 14.1596 13.764 14.1887L9.61775 10.0425L10.2997 9.36045C10.3718 9.28781 10.4575 9.23016 10.552 9.19081C10.6464 9.15147 10.7477 9.13121 10.85 9.13121C10.9523 9.13121 11.0536 9.15147 11.148 9.19081C11.2425 9.23016 11.3282 9.28781 11.4002 9.36045L13.95 11.918V13.7082ZM13.95 9.7247L12.493 8.2832C12.0495 7.86237 11.4614 7.62777 10.85 7.62777C10.2386 7.62777 9.65052 7.86237 9.207 8.2832L8.525 8.9652L6.293 6.7332C5.84948 6.31237 5.2614 6.07777 4.65 6.07777C4.0386 6.07777 3.45052 6.31237 3.007 6.7332L1.55 8.1747V2.8582C1.55 2.65266 1.63165 2.45554 1.77699 2.3102C1.92233 2.16485 2.11946 2.0832 2.325 2.0832H13.175C13.3805 2.0832 13.5777 2.16485 13.723 2.3102C13.8683 2.45554 13.95 2.65266 13.95 2.8582V9.7247ZM8.9125 3.6332C8.68258 3.6332 8.45782 3.70138 8.26665 3.82912C8.07548 3.95686 7.92648 4.13841 7.83849 4.35083C7.7505 4.56325 7.72748 4.79699 7.77234 5.0225C7.81719 5.248 7.92791 5.45514 8.09049 5.61771C8.25307 5.78029 8.4602 5.89101 8.68571 5.93587C8.91121 5.98072 9.14495 5.9577 9.35737 5.86971C9.56979 5.78173 9.75135 5.63273 9.87908 5.44155C10.0068 5.25038 10.075 5.02562 10.075 4.7957C10.075 4.48739 9.95252 4.1917 9.73451 3.97369C9.5165 3.75568 9.22081 3.6332 8.9125 3.6332Z" fill="black"/>
</svg>
