<svg width="21" height="20" viewBox="0 0 21 20" fill="none" xmlns="http://www.w3.org/2000/svg">
<circle cx="10.665" cy="10" r="9.90723" fill=""/>
<path d="M10.8841 6.10127C10.9161 5.84527 11.0281 5.63727 11.2201 5.47727C11.4121 5.31727 11.6321 5.23727 11.8801 5.23727C12.1121 5.23727 12.2921 5.31327 12.4201 5.46527C12.5561 5.60927 12.6081 5.78927 12.5761 6.00527C12.5441 6.25327 12.4281 6.46127 12.2281 6.62927C12.0361 6.78927 11.8161 6.86927 11.5681 6.86927C11.3361 6.86927 11.1561 6.79727 11.0281 6.65327C10.9001 6.50127 10.8521 6.31727 10.8841 6.10127ZM10.4881 9.24527C10.6401 8.78127 10.5881 8.54927 10.3321 8.54927C10.1561 8.54927 10.0001 8.64127 9.86406 8.82527C9.72806 9.00127 9.58806 9.28527 9.44406 9.67727L9.25206 10.1813H9.02406L9.33606 9.29327C9.45606 8.96527 9.60006 8.71327 9.76806 8.53727C9.93606 8.36127 10.1161 8.23727 10.3081 8.16527C10.5081 8.09327 10.7001 8.05727 10.8841 8.05727C11.1481 8.05727 11.3481 8.10927 11.4841 8.21327C11.6201 8.31727 11.7041 8.45327 11.7361 8.62127C11.7681 8.78927 11.7681 8.97327 11.7361 9.17327C11.7041 9.36527 11.6561 9.55327 11.5921 9.73727L10.3201 13.3853C10.2401 13.6093 10.2161 13.7813 10.2481 13.9013C10.2801 14.0213 10.3641 14.0813 10.5001 14.0813C10.6441 14.0813 10.7841 14.0053 10.9201 13.8533C11.0561 13.6933 11.2081 13.3933 11.3761 12.9533L11.5681 12.4613H11.7961L11.4841 13.3373C11.3721 13.6573 11.2321 13.9053 11.0641 14.0813C10.8961 14.2573 10.7161 14.3813 10.5241 14.4533C10.3401 14.5333 10.1521 14.5733 9.96006 14.5733C9.61606 14.5733 9.37206 14.4973 9.22806 14.3453C9.09206 14.1853 9.03206 13.9733 9.04806 13.7093C9.06406 13.4373 9.12806 13.1413 9.24006 12.8213L10.4881 9.24527Z" fill="black"/>
</svg>
