<svg width="17" height="17" viewBox="0 0 17 17" fill="none" xmlns="http://www.w3.org/2000/svg">
<path d="M6.75727 1.7832C6.75727 1.65059 6.80995 1.52342 6.90372 1.42965C6.99748 1.33588 7.12466 1.2832 7.25727 1.2832C7.38988 1.2832 7.51705 1.33588 7.61082 1.42965C7.70459 1.52342 7.75727 1.65059 7.75727 1.7832V14.0762C7.75725 14.175 7.72795 14.2716 7.67307 14.3538C7.61819 14.436 7.54019 14.5 7.44892 14.5379C7.35766 14.5758 7.25721 14.5858 7.16027 14.5666C7.06334 14.5474 6.97425 14.5 6.90427 14.4302L2.25627 9.7832C2.20971 9.73676 2.17276 9.68158 2.14756 9.62084C2.12235 9.56009 2.10938 9.49497 2.10938 9.4292C2.10938 9.36344 2.12235 9.29832 2.14756 9.23757C2.17276 9.17682 2.20971 9.12165 2.25627 9.0752H2.25827C2.35199 8.98177 2.47893 8.92931 2.61127 8.92931C2.74361 8.92931 2.87055 8.98177 2.96427 9.0752L6.75727 12.8712V1.7832ZM9.75727 2.4902C9.75749 2.39147 9.78693 2.29502 9.84189 2.213C9.89684 2.13097 9.97485 2.06706 10.0661 2.02931C10.1573 1.99155 10.2577 1.98165 10.3545 2.00085C10.4514 2.02006 10.5403 2.0675 10.6103 2.1372L15.2583 6.7832C15.3048 6.82965 15.3418 6.88482 15.367 6.94557C15.3922 7.00631 15.4052 7.07144 15.4052 7.1372C15.4052 7.20297 15.3922 7.26809 15.367 7.32884C15.3418 7.38958 15.3048 7.44476 15.2583 7.4912H15.2563C15.1625 7.58463 15.0356 7.6371 14.9033 7.6371C14.7709 7.6371 14.644 7.58463 14.5503 7.4912L10.7573 3.6972V14.7832C10.7573 14.9158 10.7046 15.043 10.6108 15.1368C10.5171 15.2305 10.3899 15.2832 10.2573 15.2832C10.1247 15.2832 9.99748 15.2305 9.90372 15.1368C9.80995 15.043 9.75727 14.9158 9.75727 14.7832V2.4902Z" fill="black"/>
</svg>
