<svg width="21" height="21" viewBox="0 0 20 20" fill="red"  xmlns="http://www.w3.org/2000/svg" >
<path  fill-rule="evenodd" clip-rule="evenodd" d="M10.7488 18.2024C8.93991 17.0891 7.25718 15.7789 5.73066 14.2952C4.65745 13.2267 3.84042 11.924 3.34216 10.487C2.44554 7.69947 3.49286 4.50824 6.42385 3.56382C7.96426 3.06791 9.64662 3.35135 10.9447 4.32545C12.2432 3.35253 13.925 3.0692 15.4655 3.56382C18.3965 4.50824 19.4513 7.69947 18.5547 10.487C18.0564 11.924 17.2394 13.2267 16.1662 14.2952C14.6397 15.7789 12.9569 17.0891 11.1481 18.2024L10.9522 18.3242L10.7488 18.2024Z" />
<path  d="M14.0625 6.70117C14.9503 6.98476 15.581 7.78176 15.6599 8.71949" stroke-linejoin="round"/>
</svg>
