<svg width="20" height="20" viewBox="0 0 20 20" fill="none" xmlns="http://www.w3.org/2000/svg">
  <path
    d="M10.0095 18.8814L2.50061 10.5728L2.19237 10.2317C1.26918 9.18991 0.743876 7.77257 0.750054 6.28487C0.756237 4.796 1.29412 3.38337 2.22689 2.35125C3.15744 1.32158 4.40077 0.756566 5.68089 0.750057C6.95992 0.743554 8.20646 1.29494 9.14482 2.31305L9.45306 2.65412L10.0087 3.26895L10.5652 2.65491L10.8726 2.31572C11.812 1.30638 13.0556 0.761912 14.3303 0.771639C15.6065 0.781377 16.8452 1.34612 17.7729 2.37255C18.7028 3.4014 19.2405 4.80859 19.2499 6.2928C19.2593 7.77523 18.7407 9.18954 17.8254 10.233L17.5184 10.5728L10.0095 18.8814Z"
    stroke="" stroke-width="1.5" />
</svg>