<svg width="17" height="20" viewBox="0 0 17 20" fill="none" xmlns="http://www.w3.org/2000/svg">
<path d="M8.3125 0C6.1915 0.00238211 4.15805 0.846002 2.65828 2.34578C1.1585 3.84555 0.314882 5.879 0.3125 8C0.3125 11.255 2.6755 13.958 5.1785 16.819C5.9705 17.725 6.7905 18.662 7.5205 19.61C7.61392 19.7312 7.7339 19.8293 7.87121 19.8968C8.00852 19.9644 8.15949 19.9995 8.3125 19.9995C8.46551 19.9995 8.61648 19.9644 8.75379 19.8968C8.8911 19.8293 9.01108 19.7312 9.1045 19.61C9.8345 18.662 10.6545 17.725 11.4465 16.819C13.9495 13.958 16.3125 11.255 16.3125 8C16.3101 5.879 15.4665 3.84555 13.9667 2.34578C12.4669 0.846002 10.4335 0.00238211 8.3125 0ZM8.3125 11C7.71916 11 7.13914 10.8241 6.64579 10.4944C6.15244 10.1648 5.76792 9.69623 5.54086 9.14805C5.3138 8.59987 5.25439 7.99667 5.37014 7.41473C5.4859 6.83279 5.77162 6.29824 6.19118 5.87868C6.61074 5.45912 7.14529 5.1734 7.72723 5.05764C8.30917 4.94189 8.91237 5.0013 9.46055 5.22836C10.0087 5.45542 10.4773 5.83994 10.8069 6.33329C11.1366 6.82664 11.3125 7.40666 11.3125 8C11.3125 8.79565 10.9964 9.55871 10.4338 10.1213C9.87121 10.6839 9.10815 11 8.3125 11Z" fill="black"/>
</svg>
