<svg width="19" height="20" viewBox="0 0 19 20" fill="none" xmlns="http://www.w3.org/2000/svg">
  <g clip-path="url(#clip0_0_66)">
    <path
      d="M15.2713 14.1879L14.25 13.1667V9.20835C14.25 6.77794 12.9517 4.74335 10.6875 4.20502V3.66669C10.6875 3.0096 10.1571 2.47919 9.5 2.47919C8.84292 2.47919 8.3125 3.0096 8.3125 3.66669V4.20502C6.04042 4.74335 4.75 6.77002 4.75 9.20835V13.1667L3.72875 14.1879C3.23 14.6867 3.57834 15.5417 4.28292 15.5417H14.7092C15.4217 15.5417 15.77 14.6867 15.2713 14.1879ZM12.6667 13.9584H6.33334V9.20835C6.33334 7.24502 7.52875 5.64585 9.5 5.64585C11.4713 5.64585 12.6667 7.24502 12.6667 9.20835V13.9584ZM9.5 17.9167C10.3708 17.9167 11.0833 17.2042 11.0833 16.3334H7.91667C7.91667 17.2042 8.62125 17.9167 9.5 17.9167Z"
      fill="" />
  </g>
  <defs>
    <clipPath id="clip0_0_66">
      <rect width="19" height="19" fill="" transform="translate(0 0.5)" />
    </clipPath>
  </defs>
</svg>