<svg width="27" height="27" viewBox="0 0 27 27" fill="none" xmlns="http://www.w3.org/2000/svg">
<line x1="26.3536" y1="0.353553" x2="0.353555" y2="26.3536" stroke="#7F8A8E"/>
<path d="M23.9033 7.54564L19.223 10.732V9.76734C19.223 8.48109 18.226 7.42871 17.0075 7.42871H5.92977C4.71123 7.42871 3.71423 8.48109 3.71423 9.76734V19.1218C3.71423 20.4081 4.71123 21.4605 5.92977 21.4605H17.0075C18.226 21.4605 19.223 20.4081 19.223 19.1218V18.1572L23.9033 21.3435C24.4295 21.6359 24.7619 21.1389 24.7619 20.8466V8.01337C24.7619 7.72104 24.4572 7.19485 23.9033 7.54564ZM18.1152 19.1218C18.1152 19.765 17.6167 20.2911 17.0075 20.2911H5.92977C5.3205 20.2911 4.822 19.765 4.822 19.1218V9.76734C4.822 9.12421 5.3205 8.59802 5.92977 8.59802H17.0075C17.6167 8.59802 18.1152 9.12421 18.1152 9.76734V19.1218ZM23.6541 19.7942L19.223 16.7832V12.106L23.6541 9.09498V19.7942Z" fill="#7F8A8E"/>
</svg>
