<svg width="71" height="71" viewBox="0 0 71 71" fill="none" xmlns="http://www.w3.org/2000/svg">
<path d="M4.13225 68.376C5.3914 69.7406 10.5777 67.361 14.6713 65.4528C17.7387 64.0273 30.014 58.9907 36.1155 56.3781C37.763 55.6737 40.1592 54.7529 41.8843 52.4842C43.4152 50.4652 47.4755 41.8897 39.2994 33.2033C31.0013 24.3838 22.4536 26.8188 19.2586 29.082C17.3782 30.4132 15.8473 33.4141 15.1594 34.9395C12.2529 41.3849 8.10936 53.1942 6.42311 57.837C5.18616 61.2594 2.88421 67.0226 4.13225 68.376Z" fill="#FFC107"/>
<path d="M14.3386 36.8809C14.4162 37.846 14.6104 39.4158 15.276 42.4388C15.7308 44.5134 16.4741 46.6877 17.0787 48.1244C18.8926 52.4454 21.4386 54.1871 24.0179 55.5849C28.3999 57.959 31.3786 58.4027 31.3786 58.4027L27.8064 59.8616C27.8064 59.8616 25.6431 59.4123 22.6922 57.959C19.8799 56.5723 16.9512 54.2259 14.8101 49.6331C13.8837 47.6418 13.3457 45.7115 13.0351 44.1805C12.6523 42.2835 12.5913 41.2074 12.5913 41.2074L14.3386 36.8809Z" fill="#FF8F00"/>
<path d="M9.95135 48.1299C9.95135 48.1299 10.3951 51.7298 13.3682 56.2727C16.8517 61.5866 21.7163 62.4575 21.7163 62.4575L18.4824 63.7887C18.4824 63.7887 14.8714 62.6849 11.4379 57.9978C9.29682 55.0746 8.69775 51.58 8.69775 51.58L9.95135 48.1299Z" fill="#FF8F00"/>
<path d="M6.87271 56.6611C6.87271 56.6611 7.68256 59.7674 9.45756 62.086C11.5709 64.8539 14.2612 65.6582 14.2612 65.6582L11.7817 66.7564C11.7817 66.7564 9.90131 66.3626 7.84342 63.7556C6.2792 61.7754 5.83545 59.5011 5.83545 59.5011L6.87271 56.6611Z" fill="#FF8F00"/>
<path opacity="0.44" d="M5.52491 64.5488C5.41397 64.2992 5.41397 64.0163 5.53045 63.7722L19.6583 34.4736L21.9825 43.21L7.11686 64.6819C6.71748 65.281 5.81889 65.2033 5.52491 64.5488Z" fill="#FFFDE7"/>
<path d="M23.1027 46.1444C29.7034 53.8656 37.2194 52.9005 39.7211 50.948C42.2283 48.9899 44.2085 42.2616 37.6355 34.6679C30.7462 26.7137 22.9473 28.9823 21.1446 30.7019C19.3419 32.4214 17.0455 39.061 23.1027 46.1444Z" fill="url(#paint0_linear_8602_5169)"/>
<path d="M45.7729 49.3231C43.3655 47.3041 42.0842 47.6646 40.3647 48.3802C38.1459 49.3009 34.657 49.9832 29.9199 48.3802L31.3455 44.9466C34.1577 45.8952 36.1934 45.4348 37.9518 44.3975C40.2149 43.0663 43.3101 41.2413 48.1248 45.285C50.1327 46.9713 52.1906 48.0917 53.6994 47.5814C54.7977 47.2153 55.3801 45.579 55.6741 44.2755C55.7018 44.159 55.7462 43.8262 55.7795 43.5322C56.0457 41.4965 56.4895 37.1034 59.7621 34.8569C63.2622 32.4551 66.9398 32.4551 66.9398 32.4551L67.6054 39.067C65.9136 38.8173 64.7377 39.1612 63.7448 39.7104C60.0062 41.7905 63.2622 49.778 57.4435 52.4627C51.8467 55.0641 47.2705 50.5767 45.7729 49.3231Z" fill="#03A9F4"/>
<path d="M25.1826 40.8916L22.7753 38.7338C27.1961 33.7971 26.0313 30.1695 25.1826 27.5291C25.0107 26.9966 24.8498 26.4919 24.7444 26.0093C24.3672 24.3009 24.2896 22.8143 24.406 21.5163C22.7087 19.403 21.9599 17.1898 21.91 17.04C20.8782 13.9171 21.6548 10.8719 23.4353 8.01523C27.0353 2.21875 33.5528 2.21875 33.5528 2.21875L35.7272 8.03742C34.0743 7.97086 28.655 8.05406 26.9909 10.6777C24.8886 13.9837 26.2698 16.0249 26.3696 16.2579C26.7746 15.7309 27.185 15.3094 27.5511 14.9821C30.2081 12.6247 32.5156 12.2863 33.9855 12.4195C35.6385 12.5692 37.1361 13.4013 38.2067 14.7658C39.3771 16.2634 39.8596 18.2104 39.488 19.9798C39.1275 21.7049 37.9793 23.1637 36.2542 24.0901C33.2422 25.7098 30.735 25.4879 29.0543 24.9277C29.0654 24.9665 29.071 25.0109 29.0821 25.0497C29.1431 25.327 29.2651 25.7153 29.4093 26.1646C30.3911 29.2043 32.2161 34.0301 25.1826 40.8916ZM29.2596 20.0741C29.5813 20.3071 29.9196 20.5012 30.2691 20.6399C31.4339 21.1059 32.7042 20.9505 34.1464 20.174C34.995 19.7191 35.0949 19.231 35.1282 19.0702C35.228 18.5876 35.0616 17.9719 34.7011 17.5115C34.3849 17.1066 34.0188 16.8958 33.5806 16.8514C32.7486 16.7793 31.6225 17.3062 30.4965 18.3102C29.9585 18.7928 29.548 19.3863 29.2596 20.0741Z" fill="#F44336"/>
<path d="M34.8177 41.7952L31.373 41.7009C31.373 41.7009 33.0094 32.4598 38.3066 30.9067C39.2995 30.6183 40.3867 30.3243 41.4795 30.1634C42.1284 30.0636 43.1546 29.9138 43.6594 29.7252C43.7759 28.8544 43.4098 27.745 42.9993 26.4859C42.6776 25.5096 42.3448 24.5056 42.1673 23.4073C41.8234 21.2663 42.3947 19.3748 43.7759 18.0713C45.4621 16.4904 48.1856 15.9856 51.2586 16.6845C53.0114 17.0839 54.3038 17.9437 55.4409 18.698C57.0662 19.7797 58.0147 20.3288 60.0005 18.992C62.4023 17.3723 59.2627 11.0323 57.5931 7.37133L63.8223 4.77539C64.6598 6.60586 68.7035 16.0245 66.0355 21.3994C65.1369 23.2077 63.5893 24.4058 61.5591 24.8551C57.1438 25.8424 54.559 24.1229 52.673 22.8693C51.78 22.2758 50.9979 21.8098 50.1492 21.5658C44.2529 19.8851 52.4845 28.5604 48.6294 32.4598C46.3163 34.7951 40.6641 35.4108 40.298 35.4995C36.6592 36.3759 34.8177 41.7952 34.8177 41.7952Z" fill="#F48FB1"/>
<path d="M24.4008 21.5166C24.2954 22.7369 24.2455 23.4636 24.5617 25.05C26.0871 26.1704 29.4096 26.1704 29.4096 26.1704C29.2654 25.7211 29.1378 25.3329 29.0824 25.0555C29.0713 25.0167 29.0657 24.9723 29.0546 24.9335C25.6766 23.2472 24.4008 21.5166 24.4008 21.5166Z" fill="#C92B27"/>
<path d="M17.4894 26.9802L11.7539 24.1679L14.6105 20.041L19.1091 23.0197L17.4894 26.9802Z" fill="#FFC107"/>
<path d="M9.03565 19.1921C6.10689 18.7983 3.12268 16.3133 2.79541 16.0304L5.67424 12.6523C6.5451 13.3901 8.39221 14.627 9.62916 14.7934L9.03565 19.1921Z" fill="#FB8C00"/>
<path d="M14.2054 11.7979L9.98975 10.4168C10.4723 8.94129 10.5999 7.34934 10.3503 5.81285L14.7323 5.1084C15.0929 7.33824 14.9098 9.65129 14.2054 11.7979Z" fill="#03A9F4"/>
<path d="M40.5327 8.50098L44.8677 7.55268L46.1195 13.2749L41.7845 14.2232L40.5327 8.50098Z" fill="#FB8C00"/>
<path d="M51.2866 9.85664L48.2358 6.63391C49.8333 5.11961 50.1994 3.13937 50.1994 3.11719L54.5815 3.83273C54.526 4.18219 53.9658 7.32172 51.2866 9.85664Z" fill="#FFC107"/>
<path d="M52.9814 26.9473L56.857 25.7361L58.1807 29.9717L54.3052 31.1829L52.9814 26.9473Z" fill="#FB8C00"/>
<path d="M54.1098 62.6964L49.7 62.175C49.8886 60.6052 48.7182 58.6804 48.3965 58.2533L51.9465 55.5908C52.2127 55.9403 54.5258 59.1408 54.1098 62.6964Z" fill="#F44336"/>
<path d="M66.7677 57.0718C65.1092 56.8222 63.4118 56.7223 61.7367 56.7833L61.5869 52.3458C63.5339 52.2793 65.503 52.3902 67.4278 52.6842L66.7677 57.0718Z" fill="#FB8C00"/>
<path d="M60.8013 63.1797L63.9191 60.022L68.2096 64.2583L65.0918 67.416L60.8013 63.1797Z" fill="#F48FB1"/>
<path d="M51.6406 35.1289L54.8466 38.7947L51.1809 42.0007L47.9749 38.3349L51.6406 35.1289Z" fill="#F44336"/>
<defs>
<linearGradient id="paint0_linear_8602_5169" x1="41.26" y1="34.301" x2="24.7484" y2="44.2079" gradientUnits="userSpaceOnUse">
<stop offset="0.0235" stop-color="#8F4700"/>
<stop offset="1" stop-color="#703E2D"/>
</linearGradient>
</defs>
</svg>
