<svg width="20" height="17" viewBox="0 0 20 17" fill="none" xmlns="http://www.w3.org/2000/svg">
<path d="M17.3059 2.76156H14.4559L14.1627 1.56753C14.0534 1.11953 13.8005 0.721811 13.4445 0.437737C13.0884 0.153663 12.6495 -0.000430721 12.1978 1.33538e-06H7.55607C7.10431 -0.000523258 6.66538 0.153528 6.30921 0.437609C5.95304 0.721691 5.70012 1.11946 5.59076 1.56753L5.29799 2.76156H2.44796C1.91079 2.76216 1.39579 2.98057 1.01595 3.36885C0.636117 3.75714 0.422465 4.2836 0.421875 4.83272V14.4982C0.422465 15.0473 0.636117 15.5738 1.01595 15.962C1.39579 16.3503 1.91079 16.5687 2.44796 16.5693H17.3059C17.8431 16.5687 18.3581 16.3503 18.738 15.962C19.1178 15.5738 19.3314 15.0473 19.332 14.4982V4.83272C19.3314 4.2836 19.1178 3.75714 18.738 3.36885C18.3581 2.98057 17.8431 2.76216 17.3059 2.76156ZM17.9813 14.4982C17.9811 14.6812 17.9098 14.8567 17.7832 14.9861C17.6566 15.1155 17.485 15.1883 17.3059 15.1886H2.44796C2.26892 15.1883 2.09727 15.1155 1.97067 14.9861C1.84406 14.8567 1.77283 14.6812 1.7726 14.4982V4.83272C1.77283 4.64969 1.84406 4.47423 1.97067 4.34481C2.09727 4.21539 2.26892 4.14257 2.44796 4.14233H5.82478C5.97532 4.14234 6.12154 4.09093 6.24023 3.99626C6.35892 3.9016 6.44327 3.76912 6.47988 3.61985L6.90103 1.90327C6.9375 1.75393 7.0218 1.62137 7.14051 1.52668C7.25922 1.43199 7.4055 1.38063 7.55607 1.38078H12.1978C12.3484 1.38062 12.4947 1.43197 12.6134 1.52666C12.7322 1.62135 12.8165 1.75392 12.8529 1.90327L13.274 3.61985C13.3106 3.76912 13.395 3.9016 13.5137 3.99626C13.6324 4.09093 13.7786 4.14234 13.9291 4.14233H17.3059C17.485 4.14257 17.6566 4.21539 17.7832 4.34481C17.9098 4.47423 17.9811 4.64969 17.9813 4.83272V14.4982Z" fill="black"/>
<path d="M8.52958 4.14152H11.231C11.4101 4.14152 11.5819 4.06878 11.7086 3.93931C11.8352 3.80984 11.9064 3.63423 11.9064 3.45113C11.9064 3.26803 11.8352 3.09243 11.7086 2.96295C11.5819 2.83348 11.4101 2.76074 11.231 2.76074H8.52958C8.35046 2.76074 8.17868 2.83348 8.05202 2.96295C7.92537 3.09243 7.85421 3.26803 7.85421 3.45113C7.85421 3.63423 7.92537 3.80984 8.05202 3.93931C8.17868 4.06878 8.35046 4.14152 8.52958 4.14152ZM9.8803 5.5223C9.07886 5.5223 8.29541 5.76524 7.62903 6.22041C6.96266 6.67557 6.44328 7.32252 6.13658 8.07943C5.82988 8.83634 5.74963 9.66923 5.90599 10.4728C6.06234 11.2763 6.44827 12.0144 7.01498 12.5937C7.58169 13.173 8.30372 13.5675 9.08976 13.7274C9.87581 13.8872 10.6906 13.8052 11.431 13.4916C12.1714 13.1781 12.8043 12.6472 13.2496 11.966C13.6948 11.2848 13.9325 10.4839 13.9325 9.66463C13.9313 8.56639 13.504 7.51347 12.7443 6.73689C11.9846 5.96031 10.9546 5.5235 9.8803 5.5223ZM9.8803 12.4262C9.34601 12.4262 8.82371 12.2642 8.37946 11.9608C7.93521 11.6573 7.58895 11.226 7.38449 10.7214C7.18002 10.2168 7.12652 9.66157 7.23076 9.12588C7.335 8.59019 7.59228 8.09813 7.97009 7.71192C8.34789 7.32571 8.82925 7.06269 9.35328 6.95614C9.87731 6.84958 10.4205 6.90427 10.9141 7.11329C11.4077 7.3223 11.8296 7.67626 12.1265 8.13039C12.4233 8.58453 12.5818 9.11845 12.5818 9.66463C12.5809 10.3968 12.2961 11.0987 11.7896 11.6164C11.2832 12.1342 10.5965 12.4254 9.8803 12.4262ZM16.6339 5.5223H15.2832C15.1041 5.5223 14.9323 5.59504 14.8056 5.72451C14.679 5.85398 14.6078 6.02958 14.6078 6.21269C14.6078 6.39579 14.679 6.57139 14.8056 6.70087C14.9323 6.83034 15.1041 6.90308 15.2832 6.90308H16.6339C16.813 6.90308 16.9848 6.83034 17.1115 6.70087C17.2381 6.57139 17.3093 6.39579 17.3093 6.21269C17.3093 6.02958 17.2381 5.85398 17.1115 5.72451C16.9848 5.59504 16.813 5.5223 16.6339 5.5223Z" fill="black"/>
</svg>
