<svg width="18" height="19" viewBox="0 0 18 19" fill="none" xmlns="http://www.w3.org/2000/svg">
<path d="M15.5325 14.9675L12.9825 12.425C13.8052 11.3768 14.2517 10.0825 14.25 8.75C14.25 7.56332 13.8981 6.40328 13.2388 5.41658C12.5795 4.42989 11.6425 3.66085 10.5461 3.20673C9.44975 2.7526 8.24335 2.63378 7.07946 2.86529C5.91558 3.0968 4.84648 3.66825 4.00736 4.50736C3.16825 5.34648 2.5968 6.41558 2.36529 7.57946C2.13378 8.74335 2.2526 9.94975 2.70673 11.0461C3.16085 12.1425 3.92989 13.0795 4.91658 13.7388C5.90328 14.3981 7.06332 14.75 8.25 14.75C9.58249 14.7517 10.8768 14.3052 11.925 13.4825L14.4675 16.0325C14.5372 16.1028 14.6202 16.1586 14.7116 16.1967C14.803 16.2347 14.901 16.2544 15 16.2544C15.099 16.2544 15.197 16.2347 15.2884 16.1967C15.3798 16.1586 15.4628 16.1028 15.5325 16.0325C15.6028 15.9628 15.6586 15.8798 15.6967 15.7884C15.7347 15.697 15.7544 15.599 15.7544 15.5C15.7544 15.401 15.7347 15.303 15.6967 15.2116C15.6586 15.1202 15.6028 15.0372 15.5325 14.9675ZM3.75 8.75C3.75 7.85999 4.01392 6.98996 4.50839 6.24994C5.00286 5.50992 5.70566 4.93314 6.52793 4.59254C7.3502 4.25195 8.255 4.16284 9.12791 4.33647C10.0008 4.5101 10.8026 4.93869 11.432 5.56802C12.0613 6.19736 12.4899 6.99918 12.6635 7.8721C12.8372 8.74501 12.7481 9.64981 12.4075 10.4721C12.0669 11.2943 11.4901 11.9972 10.7501 12.4916C10.01 12.9861 9.14002 13.25 8.25 13.25C7.05653 13.25 5.91194 12.7759 5.06802 11.932C4.22411 11.0881 3.75 9.94348 3.75 8.75Z" fill="white"/>
</svg>
