<svg width="22" height="22" viewBox="0 0 22 22" fill="none" xmlns="http://www.w3.org/2000/svg">
<path d="M10.6257 13.5246C12.1319 13.5246 13.353 12.3036 13.353 10.7973C13.353 9.29111 12.1319 8.07007 10.6257 8.07007C9.11948 8.07007 7.89844 9.29111 7.89844 10.7973C7.89844 12.3036 9.11948 13.5246 10.6257 13.5246Z" stroke="black" stroke-linecap="round" stroke-linejoin="round"/>
<path fill-rule="evenodd" clip-rule="evenodd" d="M17.3523 13.5246C17.2313 13.7988 17.1952 14.103 17.2486 14.3979C17.3021 14.6928 17.4427 14.9649 17.6523 15.1792L17.7068 15.2337C18.048 15.5749 18.2396 16.0376 18.2396 16.5201C18.2396 17.0026 18.048 17.4653 17.7068 17.8065C17.3657 18.1476 16.9029 18.3393 16.4205 18.3393C15.938 18.3393 15.4753 18.1476 15.1341 17.8065L15.0795 17.7519C14.8653 17.5423 14.5932 17.4017 14.2983 17.3483C14.0034 17.2948 13.6992 17.3309 13.425 17.4519C13.1561 17.5671 12.9268 17.7585 12.7653 18.0024C12.6038 18.2463 12.5171 18.5321 12.5159 18.8246V18.9792C12.5159 19.4614 12.3244 19.9239 11.9834 20.2648C11.6424 20.6058 11.1799 20.7974 10.6977 20.7974C10.2155 20.7974 9.75305 20.6058 9.41208 20.2648C9.0711 19.9239 8.87955 19.4614 8.87955 18.9792V18.8974C8.87251 18.5965 8.77511 18.3046 8.60001 18.0598C8.42491 17.815 8.18021 17.6285 7.89773 17.5246C7.62353 17.4036 7.31937 17.3675 7.02446 17.421C6.72956 17.4745 6.45744 17.6151 6.24318 17.8246L6.18864 17.8792C5.84747 18.2203 5.38475 18.412 4.90227 18.412C4.41979 18.412 3.95707 18.2203 3.61591 17.8792C3.27474 17.538 3.08308 17.0753 3.08308 16.5928C3.08308 16.1103 3.27474 15.6476 3.61591 15.3065L3.67045 15.2519C3.88003 15.0377 4.02062 14.7655 4.0741 14.4706C4.12757 14.1757 4.09147 13.8716 3.97045 13.5974C3.85522 13.3285 3.66387 13.0992 3.41997 12.9376C3.17607 12.7761 2.89026 12.6894 2.59773 12.6883H2.44318C1.96097 12.6883 1.49851 12.4967 1.15753 12.1557C0.816558 11.8148 0.625 11.3523 0.625 10.8701C0.625 10.3879 0.816558 9.92542 1.15753 9.58444C1.49851 9.24347 1.96097 9.05191 2.44318 9.05191H2.525C2.8259 9.04487 3.11773 8.94747 3.36254 8.77237C3.60736 8.59727 3.79383 8.35258 3.89773 8.07009C4.01874 7.79589 4.05484 7.49173 4.00137 7.19683C3.9479 6.90192 3.80731 6.6298 3.59773 6.41555L3.54318 6.361C3.20202 6.01983 3.01035 5.55712 3.01035 5.07464C3.01035 4.59216 3.20202 4.12944 3.54318 3.78827C3.88435 3.44711 4.34707 3.25544 4.82955 3.25544C5.31203 3.25544 5.77474 3.44711 6.11591 3.78827L6.17045 3.84282C6.38471 4.0524 6.65683 4.19299 6.95174 4.24646C7.24664 4.29993 7.5508 4.26383 7.825 4.14282H7.89773C8.16661 4.02758 8.39592 3.83623 8.55745 3.59233C8.71897 3.34843 8.80565 3.06262 8.80682 2.77009V2.61555C8.80682 2.13333 8.99838 1.67087 9.33935 1.3299C9.68033 0.988921 10.1428 0.797363 10.625 0.797363C11.1072 0.797363 11.5697 0.988921 11.9106 1.3299C12.2516 1.67087 12.4432 2.13333 12.4432 2.61555V2.69736C12.4443 2.9899 12.531 3.2757 12.6926 3.5196C12.8541 3.7635 13.0834 3.95485 13.3523 4.07009C13.6265 4.1911 13.9306 4.2272 14.2255 4.17373C14.5204 4.12026 14.7926 3.97967 15.0068 3.77009L15.0614 3.71555C15.4025 3.37438 15.8652 3.18272 16.3477 3.18272C16.8302 3.18272 17.2929 3.37438 17.6341 3.71555C17.9753 4.05671 18.1669 4.51943 18.1669 5.00191C18.1669 5.48439 17.9753 5.94711 17.6341 6.28827L17.5795 6.34282C17.37 6.55707 17.2294 6.8292 17.1759 7.1241C17.1224 7.41901 17.1585 7.72317 17.2795 7.99736V8.07009C17.5159 8.61918 18.0541 8.97645 18.6523 8.97918H18.8068C19.289 8.97918 19.7515 9.17074 20.0925 9.51172C20.4334 9.85269 20.625 10.3152 20.625 10.7974C20.625 11.2796 20.4334 11.742 20.0925 12.083C19.7515 12.424 19.289 12.6155 18.8068 12.6155H18.725C18.4325 12.6167 18.1467 12.7034 17.9028 12.8649C17.6589 13.0264 17.4675 13.2558 17.3523 13.5246Z" stroke="black" stroke-linecap="round" stroke-linejoin="round"/>
</svg>
