<svg width="157" height="168" viewBox="0 0 157 168" fill="none" xmlns="http://www.w3.org/2000/svg">
<mask id="path-1-inside-1_26_76" fill="white">
<path fill-rule="evenodd" clip-rule="evenodd" d="M8 0C3.58172 0 0 3.58172 0 8V160C0 164.418 3.58172 168 8 168H142C146.418 168 150 164.418 150 160V160C150 153.701 142.016 149.53 135.731 149.943C135.159 149.981 134.582 150 134 150C119.641 150 108 138.359 108 124C108 109.641 119.641 98 134 98V98C141.003 98 150 93.2709 150 86.2683V8C150 3.58172 146.418 0 142 0H8Z"/>
</mask>
<path d="M135.731 149.943L135.681 149.195L135.731 149.943ZM0.75 8C0.75 3.99594 3.99594 0.75 8 0.75V-0.75C3.16751 -0.75 -0.75 3.16751 -0.75 8H0.75ZM0.75 160V8H-0.75V160H0.75ZM8 167.25C3.99594 167.25 0.75 164.004 0.75 160H-0.75C-0.75 164.832 3.16751 168.75 8 168.75V167.25ZM142 167.25H8V168.75H142V167.25ZM149.25 160C149.25 164.004 146.004 167.25 142 167.25V168.75C146.832 168.75 150.75 164.832 150.75 160H149.25ZM135.681 149.195C135.126 149.231 134.565 149.25 134 149.25V150.75C134.598 150.75 135.191 150.73 135.78 150.692L135.681 149.195ZM134 149.25C120.055 149.25 108.75 137.945 108.75 124H107.25C107.25 138.774 119.226 150.75 134 150.75V149.25ZM108.75 124C108.75 110.055 120.055 98.75 134 98.75V97.25C119.226 97.25 107.25 109.226 107.25 124H108.75ZM149.25 8V86.2683H150.75V8H149.25ZM142 0.75C146.004 0.75 149.25 3.99594 149.25 8H150.75C150.75 3.16751 146.832 -0.75 142 -0.75V0.75ZM8 0.75H142V-0.75H8V0.75ZM134 98.75C137.65 98.75 141.793 97.5233 145.038 95.3865C148.277 93.2541 150.75 90.1194 150.75 86.2683H149.25C149.25 89.4199 147.225 92.151 144.214 94.1338C141.209 96.1121 137.352 97.25 134 97.25V98.75ZM150.75 160C150.75 156.503 148.534 153.681 145.626 151.823C142.716 149.962 138.991 148.977 135.681 149.195L135.78 150.692C138.756 150.496 142.165 151.39 144.818 153.087C147.474 154.785 149.25 157.197 149.25 160H150.75Z" fill="black" mask="url(#path-1-inside-1_26_76)"/>
<ellipse cx="133.5" cy="124" rx="23.5" ry="24" fill="#202020"/>
<path fill-rule="evenodd" clip-rule="evenodd" d="M130.543 129.957C130.152 129.567 130.152 128.933 130.543 128.543L135.336 123.75L130.543 118.957C130.152 118.567 130.152 117.933 130.543 117.543C130.933 117.152 131.567 117.152 131.957 117.543L137.457 123.043C137.848 123.433 137.848 124.067 137.457 124.457L131.957 129.957C131.567 130.348 130.933 130.348 130.543 129.957Z" fill="white"/>
</svg>
