<svg width="12" height="20" viewBox="0 0 12 20" fill="none" xmlns="http://www.w3.org/2000/svg">
<path d="M3.4614 19.0892C3.60784 19.2357 3.84528 19.2357 3.99173 19.0892L6.37821 16.7027C6.52466 16.5563 6.52466 16.3189 6.37821 16.1724C6.23177 16.026 5.99433 16.026 5.84788 16.1724L3.72656 18.2937L1.60524 16.1724C1.4588 16.026 1.22136 16.026 1.07491 16.1724C0.928465 16.3189 0.928465 16.5563 1.07491 16.7027L3.4614 19.0892ZM3.35156 5.81445L3.35156 18.8241L4.10156 18.8241L4.10156 5.81445L3.35156 5.81445Z" fill="white"/>
<path d="M8.7114 0.299441C8.85784 0.152995 9.09528 0.152995 9.24173 0.299441L11.6282 2.68593C11.7747 2.83237 11.7747 3.06981 11.6282 3.21626C11.4818 3.3627 11.2443 3.3627 11.0979 3.21626L8.97656 1.09494L6.85524 3.21626C6.7088 3.3627 6.47136 3.3627 6.32491 3.21626C6.17846 3.06981 6.17846 2.83237 6.32491 2.68593L8.7114 0.299441ZM8.60156 13.5742L8.60156 0.564607L9.35156 0.564607L9.35156 13.5742L8.60156 13.5742Z" fill="white"/>
</svg>
