<svg width="9" height="9" viewBox="0 0 9 9" fill="none" xmlns="http://www.w3.org/2000/svg">
<path id="Vector" d="M6.69174 8.49865C6.40495 8.70293 4.56476 7.40803 4.21232 7.40518C3.85988 7.40236 1.99898 8.66747 1.71553 8.45861C1.43208 8.24974 2.09845 6.10444 1.99226 5.76935C1.88606 5.43425 0.10436 4.06037 0.215967 3.72702C0.327599 3.39366 2.57963 3.3627 2.86642 3.15842C3.15321 2.95417 3.91298 0.839955 4.26545 0.842776C4.61786 0.845622 5.3433 2.97179 5.62675 3.18065C5.9102 3.38949 8.16146 3.45672 8.26768 3.79181C8.37388 4.12691 6.5702 5.47193 6.45856 5.80529C6.34696 6.13864 6.97854 8.29438 6.69174 8.49865Z" fill="" />
</svg>
