<svg width="15" height="16" viewBox="0 0 15 16" fill="none" xmlns="http://www.w3.org/2000/svg">
<circle cx="7.48291" cy="7.76416" r="7.26416" fill="#D9D9D9"/>
<path d="M10.4149 7.34546H7.89896V4.82948C7.89896 4.71827 7.85478 4.61161 7.77614 4.53297C7.6975 4.45434 7.59084 4.41016 7.47963 4.41016C7.36842 4.41016 7.26176 4.45434 7.18312 4.53297C7.10448 4.61161 7.0603 4.71827 7.0603 4.82948V7.34546H4.54433C4.43312 7.34546 4.32646 7.38964 4.24782 7.46828C4.16918 7.54691 4.125 7.65357 4.125 7.76479C4.125 7.876 4.16918 7.98266 4.24782 8.0613C4.32646 8.13994 4.43312 8.18411 4.54433 8.18411H7.0603V10.7001C7.0603 10.8113 7.10448 10.918 7.18312 10.9966C7.26176 11.0752 7.36842 11.1194 7.47963 11.1194C7.59084 11.1194 7.6975 11.0752 7.77614 10.9966C7.85478 10.918 7.89896 10.8113 7.89896 10.7001V8.18411H10.4149C10.5261 8.18411 10.6328 8.13994 10.7114 8.0613C10.7901 7.98266 10.8343 7.876 10.8343 7.76479C10.8343 7.65357 10.7901 7.54691 10.7114 7.46828C10.6328 7.38964 10.5261 7.34546 10.4149 7.34546Z" fill="#F4F4F4"/>
</svg>
