<svg width="16" height="4" viewBox="0 0 16 4" fill="none" xmlns="http://www.w3.org/2000/svg">
<path d="M2.88125 2.325C2.88125 2.11283 2.79696 1.90934 2.64694 1.75931C2.49691 1.60929 2.29342 1.525 2.08125 1.525C1.86908 1.525 1.66559 1.60929 1.51556 1.75931C1.36554 1.90934 1.28125 2.11283 1.28125 2.325C1.28125 2.53717 1.36554 2.74066 1.51556 2.89069C1.66559 3.04071 1.86908 3.125 2.08125 3.125C2.29342 3.125 2.49691 3.04071 2.64694 2.89069C2.79696 2.74066 2.88125 2.53717 2.88125 2.325ZM8.74792 2.325C8.74792 2.11283 8.66363 1.90934 8.5136 1.75931C8.36357 1.60929 8.16009 1.525 7.94792 1.525C7.73574 1.525 7.53226 1.60929 7.38223 1.75931C7.2322 1.90934 7.14792 2.11283 7.14792 2.325C7.14792 2.53717 7.2322 2.74066 7.38223 2.89069C7.53226 3.04071 7.73574 3.125 7.94792 3.125C8.16009 3.125 8.36357 3.04071 8.5136 2.89069C8.66363 2.74066 8.74792 2.53717 8.74792 2.325ZM14.6146 2.325C14.6146 2.11283 14.5303 1.90934 14.3803 1.75931C14.2302 1.60929 14.0268 1.525 13.8146 1.525C13.6024 1.525 13.3989 1.60929 13.2489 1.75931C13.0989 1.90934 13.0146 2.11283 13.0146 2.325C13.0146 2.53717 13.0989 2.74066 13.2489 2.89069C13.3989 3.04071 13.6024 3.125 13.8146 3.125C14.0268 3.125 14.2302 3.04071 14.3803 2.89069C14.5303 2.74066 14.6146 2.53717 14.6146 2.325Z" stroke="black" stroke-width="1.5" stroke-linecap="round" stroke-linejoin="round"/>
</svg>
