<svg width="22" height="20" viewBox="0 0 22 20" fill="none" xmlns="http://www.w3.org/2000/svg">
<path d="M5.41552 8.69565H1.0676C0.95229 8.69565 0.841699 8.74146 0.76016 8.823C0.678621 8.90453 0.632813 9.01512 0.632812 9.13043L0.632813 19.5652C0.632813 19.6805 0.678621 19.7911 0.76016 19.8727C0.841699 19.9542 0.95229 20 1.0676 20H5.41552C5.53084 20 5.64143 19.9542 5.72297 19.8727C5.8045 19.7911 5.85031 19.6805 5.85031 19.5652V9.13043C5.85031 9.01512 5.8045 8.90453 5.72297 8.823C5.64143 8.74146 5.53084 8.69565 5.41552 8.69565ZM21.5028 9.13043C21.5028 7.93217 20.5271 6.95652 19.3289 6.95652H13.8548C14.1201 6.1487 14.5461 4.66783 14.5461 3.47826C14.5461 1.59217 12.9435 0 11.9374 0C11.0339 0 10.3887 0.507826 10.3608 0.529565C10.3102 0.570573 10.2693 0.622375 10.2411 0.681193C10.213 0.740012 10.1983 0.804366 10.1982 0.869565V3.81739L7.69383 9.24435L6.96077 9.61043C6.88854 9.64676 6.82779 9.7024 6.78526 9.77117C6.74274 9.83994 6.72012 9.91915 6.7199 10V17.8261C6.7199 17.9417 6.76598 18.0522 6.84686 18.1339C7.49817 18.7843 8.95907 19.1304 9.76344 19.1304H17.8071C18.1399 19.1299 18.467 19.0445 18.7576 18.8824C19.0483 18.7204 19.2928 18.4869 19.4682 18.2041C19.6435 17.9212 19.7439 17.5984 19.7598 17.266C19.7758 16.9336 19.7068 16.6027 19.5593 16.3043C20.0199 16.073 20.37 15.6686 20.533 15.1796C20.696 14.6907 20.6586 14.1571 20.4289 13.6957C20.7514 13.5337 21.0227 13.2854 21.2123 12.9783C21.4019 12.6712 21.5025 12.3174 21.5028 11.9565C21.5028 11.4348 21.295 10.947 20.9376 10.587C21.2985 10.1939 21.5028 9.67913 21.5028 9.13043Z" fill="#46A76F"/>
</svg>
