<svg width="21" height="20" viewBox="0 0 21 20" fill="none" xmlns="http://www.w3.org/2000/svg">
<path d="M6.52174 19.9997H0.434783C0.319471 19.9997 0.208882 19.9539 0.127345 19.8723C0.0458073 19.7908 0 19.6802 0 19.5649V9.1301C0 9.01478 0.0458073 8.90419 0.127345 8.82266C0.208882 8.74112 0.319471 8.69531 0.434783 8.69531H6.52174C6.63705 8.69531 6.74764 8.74112 6.82918 8.82266C6.91071 8.90419 6.95652 9.01478 6.95652 9.1301V19.5649C6.95652 19.6802 6.91071 19.7908 6.82918 19.8723C6.74764 19.9539 6.63705 19.9997 6.52174 19.9997ZM0.869565 19.1301H6.08696V9.56488H0.869565V19.1301Z" fill="black"/>
<path d="M17.1726 19.1304H9.12916C8.32481 19.1304 6.86394 18.7843 6.21264 18.1339C6.13344 18.0519 6.08962 17.9421 6.09061 17.8281C6.0916 17.7141 6.13732 17.605 6.21794 17.5244C6.29855 17.4438 6.4076 17.3981 6.5216 17.3971C6.6356 17.3961 6.74542 17.4399 6.82742 17.5191C7.23873 17.9304 8.42221 18.2617 9.12829 18.2617H17.1718C17.7709 18.2617 18.2587 17.7739 18.2587 17.1748C18.2587 16.8757 18.137 16.5957 17.9152 16.3861C17.855 16.3293 17.8123 16.2566 17.7921 16.1763C17.7718 16.0961 17.775 16.0117 17.8011 15.9332C17.8273 15.8547 17.8753 15.7853 17.9396 15.7332C18.0039 15.6811 18.0817 15.6485 18.1639 15.6391C18.4285 15.6095 18.6729 15.4838 18.8509 15.2858C19.0288 15.0878 19.1278 14.8314 19.1292 14.5652C19.1292 14.2661 19.0074 13.9861 18.7857 13.7765C18.7255 13.7198 18.6827 13.647 18.6625 13.5667C18.6423 13.4865 18.6454 13.4022 18.6716 13.3236C18.6977 13.2451 18.7457 13.1757 18.81 13.1236C18.8743 13.0715 18.9522 13.0389 19.0344 13.0296C19.2988 13.0001 19.5431 12.8745 19.7209 12.6767C19.8987 12.4788 19.9976 12.2225 19.9987 11.9565C19.9987 11.5513 19.7709 11.1826 19.4039 10.9948C19.3348 10.9601 19.2762 10.9076 19.2343 10.8426C19.1924 10.7776 19.1687 10.7025 19.1657 10.6253C19.1626 10.548 19.1804 10.4713 19.2171 10.4032C19.2538 10.3352 19.3081 10.2782 19.3744 10.2383C19.7648 9.99652 19.9987 9.58261 19.9987 9.13043C19.9987 8.4113 19.4135 7.82609 18.6944 7.82609H12.6074C12.5372 7.82574 12.468 7.80844 12.4059 7.77565C12.3438 7.74287 12.2905 7.69558 12.2505 7.63779C12.2106 7.58001 12.1852 7.51343 12.1765 7.44372C12.1677 7.37402 12.176 7.30323 12.2005 7.23739C12.2092 7.21391 13.0422 5.00783 13.0422 3.47826C13.0422 2.05478 11.7796 0.869565 11.3031 0.869565C10.9283 0.869565 10.6144 1.00609 10.4335 1.10609V3.91304C10.4334 3.9758 10.4198 4.03779 10.3935 4.09478L7.78482 9.74696C7.74323 9.83641 7.6728 9.9093 7.58481 9.95391L6.71525 10.3887C6.66415 10.4142 6.60852 10.4294 6.55154 10.4334C6.49456 10.4375 6.43735 10.4302 6.38317 10.4121C6.32899 10.3941 6.2789 10.3655 6.23577 10.328C6.19263 10.2906 6.15729 10.245 6.13177 10.1939C6.10625 10.1428 6.09104 10.0872 6.08702 10.0302C6.08299 9.97323 6.09023 9.91601 6.10832 9.86183C6.12641 9.80765 6.15499 9.75756 6.19243 9.71443C6.22988 9.67129 6.27545 9.63596 6.32655 9.61043L7.0596 9.24435L9.56395 3.81739V0.869565C9.56395 0.737391 9.62394 0.613043 9.72742 0.529565C10.1846 0.193054 10.7355 0.00789411 11.3031 0C12.3092 0 13.9118 1.59217 13.9118 3.47826C13.9118 4.66783 13.4857 6.1487 13.2205 6.95652H18.6944C19.8926 6.95652 20.8683 7.93217 20.8683 9.13043C20.8683 9.67913 20.6639 10.1939 20.3031 10.587C20.6605 10.9461 20.8683 11.4339 20.8683 11.9565C20.868 12.3174 20.7674 12.6712 20.5778 12.9783C20.3882 13.2854 20.1169 13.5337 19.7944 13.6957C20.0241 14.1571 20.0615 14.6907 19.8985 15.1796C19.7355 15.6686 19.3854 16.073 18.9248 16.3043C19.072 16.6027 19.1409 16.9336 19.1248 17.2659C19.1087 17.5982 19.0083 17.9209 18.833 18.2037C18.6577 18.4864 18.4133 18.7198 18.1228 18.882C17.8323 19.0441 17.5053 19.1296 17.1726 19.1304Z" fill="black"/>
</svg>
