<svg width="22" height="20" viewBox="0 0 22 20" fill="none" xmlns="http://www.w3.org/2000/svg">
<path d="M16.5923 11.3043H20.9402C21.0555 11.3043 21.1661 11.2585 21.2477 11.177C21.3292 11.0955 21.375 10.9849 21.375 10.8696V0.434784C21.375 0.319471 21.3292 0.208883 21.2477 0.127346C21.1661 0.0458069 21.0555 0 20.9402 0H16.5923C16.477 0 16.3664 0.0458069 16.2848 0.127346C16.2033 0.208883 16.1575 0.319471 16.1575 0.434784V10.8696C16.1575 10.9849 16.2033 11.0955 16.2848 11.177C16.3664 11.2585 16.477 11.3043 16.5923 11.3043ZM0.504999 10.8696C0.504999 12.0678 1.48067 13.0435 2.67896 13.0435H8.15298C7.88776 13.8513 7.46167 15.3322 7.46167 16.5217C7.46167 18.4078 9.06431 20 10.0704 20C10.9739 20 11.6191 19.4922 11.647 19.4704C11.6977 19.4294 11.7386 19.3776 11.7667 19.3188C11.7948 19.26 11.8095 19.1956 11.8096 19.1304V16.1826L14.314 10.7557L15.047 10.3896C15.1193 10.3532 15.18 10.2976 15.2225 10.2288C15.2651 10.1601 15.2877 10.0809 15.2879 10V2.17391C15.2879 2.05826 15.2418 1.94783 15.161 1.86609C14.5096 1.21565 13.0487 0.869566 12.2444 0.869566H4.20073C3.86795 0.870125 3.54081 0.955475 3.25017 1.11756C2.95954 1.27964 2.71501 1.51312 2.53965 1.79594C2.3643 2.07876 2.26391 2.4016 2.24797 2.73399C2.23202 3.06638 2.30104 3.39734 2.44852 3.69565C1.98792 3.92696 1.63777 4.33139 1.47478 4.82035C1.31179 5.30932 1.34924 5.84295 1.57894 6.30435C1.25637 6.46628 0.985146 6.71464 0.795515 7.02173C0.605883 7.32882 0.505304 7.68256 0.504999 8.04348C0.504999 8.56522 0.71283 9.05304 1.07023 9.41304C0.709351 9.80609 0.504999 10.3209 0.504999 10.8696Z" fill="#FF4C00"/>
</svg>
