<svg width="22" height="20" viewBox="0 0 22 20" fill="none" xmlns="http://www.w3.org/2000/svg">
<path d="M15.2204 0.000340462H21.3074C21.4227 0.000340462 21.5333 0.0461473 21.6148 0.127685C21.6964 0.209222 21.7422 0.319811 21.7422 0.435122V10.8699C21.7422 10.9852 21.6964 11.0958 21.6148 11.1773C21.5333 11.2589 21.4227 11.3047 21.3074 11.3047H15.2204C15.1051 11.3047 14.9945 11.2589 14.913 11.1773C14.8315 11.0958 14.7857 10.9852 14.7857 10.8699V0.435122C14.7857 0.319811 14.8315 0.209222 14.913 0.127685C14.9945 0.0461473 15.1051 0.000340462 15.2204 0.000340462ZM20.8726 0.869905H15.6552V10.4351H20.8726V0.869905Z" fill="black"/>
<path d="M4.56955 0.869566H12.613C13.4174 0.869566 14.8782 1.21565 15.5295 1.86609C15.6087 1.94809 15.6526 2.05791 15.6516 2.17191C15.6506 2.28591 15.6049 2.39496 15.5243 2.47557C15.4436 2.55618 15.3346 2.60191 15.2206 2.6029C15.1066 2.60389 14.9968 2.56007 14.9148 2.48087C14.5035 2.06956 13.32 1.73826 12.6139 1.73826H4.57042C3.97129 1.73826 3.48346 2.22609 3.48346 2.82522C3.48346 3.12435 3.6052 3.40435 3.82694 3.61391C3.88716 3.67066 3.92991 3.74345 3.95013 3.82369C3.97035 3.90393 3.9672 3.98828 3.94106 4.06679C3.91492 4.1453 3.86688 4.2147 3.80259 4.26681C3.73831 4.31891 3.66047 4.35155 3.57824 4.36087C3.31371 4.39049 3.06927 4.51623 2.89133 4.7142C2.71339 4.91217 2.61436 5.1686 2.61302 5.43478C2.61302 5.73391 2.73476 6.01391 2.9565 6.22348C3.01673 6.28023 3.05947 6.35301 3.07969 6.43325C3.09991 6.51349 3.09677 6.59784 3.07063 6.67636C3.04449 6.75487 2.99644 6.82427 2.93216 6.87637C2.86787 6.92848 2.79003 6.96111 2.70781 6.97044C2.44343 6.99987 2.1991 7.12546 2.02129 7.32331C1.84348 7.52116 1.7446 7.77747 1.74346 8.04348C1.74346 8.4487 1.97129 8.81739 2.33824 9.00522C2.40739 9.03986 2.46598 9.09242 2.50789 9.15741C2.5498 9.22241 2.5735 9.29747 2.57652 9.37475C2.57954 9.45202 2.56177 9.5287 2.52506 9.59677C2.48835 9.66484 2.43404 9.72181 2.36781 9.76174C1.97737 10.0035 1.74346 10.4174 1.74346 10.8696C1.74346 11.5887 2.32868 12.1739 3.04781 12.1739H9.13476C9.20501 12.1743 9.27414 12.1916 9.33628 12.2243C9.39841 12.2571 9.45171 12.3044 9.49166 12.3622C9.53161 12.42 9.55702 12.4866 9.56573 12.5563C9.57445 12.626 9.56621 12.6968 9.54172 12.7626C9.53303 12.7861 8.69998 14.9922 8.69998 16.5217C8.69998 17.9452 9.96259 19.1304 10.4391 19.1304C10.8139 19.1304 11.1278 18.9939 11.3087 18.8939V16.087C11.3088 16.0242 11.3224 15.9622 11.3487 15.9052L13.9574 10.253C13.999 10.1636 14.0694 10.0907 14.1574 10.0461L15.0269 9.61131C15.078 9.58578 15.1337 9.57058 15.1906 9.56655C15.2476 9.56253 15.3048 9.56977 15.359 9.58785C15.4132 9.60594 15.4633 9.63452 15.5064 9.67197C15.5496 9.70941 15.5849 9.75499 15.6104 9.80609C15.6359 9.85719 15.6511 9.91282 15.6552 9.9698C15.6592 10.0268 15.652 10.084 15.6339 10.1382C15.6158 10.1923 15.5872 10.2424 15.5498 10.2856C15.5123 10.3287 15.4667 10.364 15.4156 10.3896L14.6826 10.7557L12.1782 16.1826V19.1304C12.1782 19.2626 12.1182 19.387 12.0148 19.4704C11.5576 19.8069 11.0067 19.9921 10.4391 20C9.43302 20 7.83042 18.4078 7.83042 16.5217C7.83042 15.3322 8.2565 13.8513 8.52172 13.0435H3.04781C1.84955 13.0435 0.873895 12.0678 0.873895 10.8696C0.873895 10.3209 1.07824 9.80609 1.43911 9.41304C1.08172 9.05391 0.873895 8.56609 0.873895 8.04348C0.8742 7.68256 0.974775 7.32882 1.1644 7.02173C1.35403 6.71464 1.62525 6.46628 1.94781 6.30435C1.71812 5.84295 1.68066 5.30932 1.84365 4.82035C2.00664 4.33139 2.35678 3.92696 2.81737 3.69565C2.67015 3.39732 2.60133 3.06641 2.61739 2.73412C2.63345 2.40182 2.73386 2.07909 2.90917 1.79635C3.08447 1.5136 3.32889 1.28015 3.61938 1.11801C3.90987 0.955862 4.23687 0.870361 4.56955 0.869566Z" fill="black"/>
</svg>
