<svg xmlns="http://www.w3.org/2000/svg" xmlns:xlink="http://www.w3.org/1999/xlink" width="1080" zoomAndPan="magnify" viewBox="0 0 810 809.999993" height="1080" preserveAspectRatio="xMidYMid meet" version="1.0"><defs><clipPath id="4e32196372"><path d="M 10.253906 10.253906 L 800 10.253906 L 800 800 L 10.253906 800 Z M 10.253906 10.253906 " clip-rule="nonzero"/></clipPath></defs><g clip-path="url(#4e32196372)"><path fill="#b9e4a6" d="M 799.847656 405.089844 C 799.847656 623.105469 623.105469 799.847656 405.089844 799.847656 C 187.074219 799.847656 10.332031 623.105469 10.332031 405.089844 C 10.332031 187.074219 187.074219 10.332031 405.089844 10.332031 C 623.105469 10.332031 799.847656 187.074219 799.847656 405.089844 " fill-opacity="1" fill-rule="nonzero"/></g><path fill="#ffffff" d="M 391.433594 588.074219 C 378.289062 604.476562 354.398438 607.261719 337.828125 594.335938 L 160.308594 455.8125 C 138.820312 439.039062 134.996094 408.027344 151.769531 386.527344 C 168.535156 365.039062 199.554688 361.210938 221.042969 377.988281 L 340.03125 470.828125 C 346.453125 475.847656 355.710938 474.761719 360.804688 468.398438 L 580.980469 193.601562 C 598.027344 172.328125 629.089844 168.898438 650.363281 185.941406 C 671.640625 202.988281 675.066406 234.054688 658.019531 255.332031 L 391.433594 588.074219 " fill-opacity="1" fill-rule="nonzero"/></svg>