<svg width="16" height="16" viewBox="0 0 16 16" fill="none" xmlns="http://www.w3.org/2000/svg">
<path d="M5.28906 1.41797H5.13281C5.21875 1.41797 5.28906 1.34766 5.28906 1.26172V1.41797ZM5.28906 1.41797H11.2266V1.26172C11.2266 1.34766 11.2969 1.41797 11.3828 1.41797H11.2266V2.82422H12.6328V1.26172C12.6328 0.572266 12.0723 0.0117188 11.3828 0.0117188H5.13281C4.44336 0.0117188 3.88281 0.572266 3.88281 1.26172V2.82422H5.28906V1.41797ZM15.1328 2.82422H1.38281C1.03711 2.82422 0.757812 3.10352 0.757812 3.44922V4.07422C0.757812 4.16016 0.828125 4.23047 0.914062 4.23047H2.09375L2.57617 14.4453C2.60742 15.1113 3.1582 15.6367 3.82422 15.6367H12.6914C13.3594 15.6367 13.9082 15.1133 13.9395 14.4453L14.4219 4.23047H15.6016C15.6875 4.23047 15.7578 4.16016 15.7578 4.07422V3.44922C15.7578 3.10352 15.4785 2.82422 15.1328 2.82422ZM12.541 14.2305H3.97461L3.50195 4.23047H13.0137L12.541 14.2305Z" fill="white"/>
</svg>
