<svg width="21" height="14" viewBox="0 0 21 14" fill="none" xmlns="http://www.w3.org/2000/svg">
<path d="M20.1522 3.6316L20.1522 10.3688C20.1522 10.369 20.1522 10.3693 20.1522 10.3696C20.1516 10.5681 20.092 10.7621 19.9808 10.9266C19.8695 11.0914 19.7115 11.2192 19.5272 11.2938L19.5157 11.2984L19.5044 11.3036C19.3656 11.3665 19.2151 11.3994 19.0628 11.4C18.7835 11.3982 18.5146 11.294 18.307 11.1071L16.1498 9.10974L15.1422 8.17674V9.55V11C15.1422 11.6365 14.8893 12.247 14.4392 12.6971C13.9892 13.1471 13.3787 13.4 12.7422 13.4H3.74219C3.10567 13.4 2.49522 13.1471 2.04513 12.6971C1.59504 12.247 1.34219 11.6365 1.34219 11V3C1.34219 2.36348 1.59504 1.75303 2.04513 1.30294C2.49522 0.852856 3.10567 0.6 3.74219 0.6H12.7422C13.3787 0.6 13.9892 0.852857 14.4392 1.30294C14.8893 1.75303 15.1422 2.36348 15.1422 3V4.45V5.8276L16.1509 4.88931L18.2988 2.89122C18.2991 2.89091 18.2995 2.8906 18.2998 2.8903C18.4582 2.7447 18.6558 2.64874 18.8682 2.6143C19.081 2.57979 19.2993 2.60858 19.4958 2.6971L19.5083 2.70269L19.5209 2.70772C19.7065 2.78131 19.8657 2.90872 19.9782 3.07357C20.0905 3.23811 20.1511 3.43242 20.1522 3.6316ZM20.1522 3.6316V3.63H20.7522M20.1522 3.6316C20.1522 3.63197 20.1522 3.63235 20.1522 3.63272L20.7522 3.63M20.7522 3.63C20.7507 3.31069 20.6538 2.99911 20.4738 2.73536C20.2938 2.47161 20.039 2.26774 19.7422 2.15L19.7522 11.85C20.0471 11.7307 20.2998 11.5262 20.4779 11.2625C20.6561 10.9989 20.7515 10.6882 20.7522 10.37V3.63Z" stroke="black" stroke-width="1.2"/>
</svg>
