<svg width="52" height="53" viewBox="0 0 52 53" fill="none" xmlns="http://www.w3.org/2000/svg">
<rect y="0.5" width="52" height="52" rx="24" fill="white" fill-opacity="0.65"/>
<path d="M35.0002 13.0001H17.0002C16.4077 12.9947 15.8202 13.1075 15.2718 13.3317C14.7234 13.556 14.2252 13.8873 13.8063 14.3062C13.3874 14.7251 13.0561 15.2233 12.8319 15.7717C12.6076 16.3201 12.4948 16.9076 12.5002 17.5001V35.5001C12.4948 36.0925 12.6076 36.6801 12.8319 37.2284C13.0561 37.7768 13.3874 38.275 13.8063 38.6939C14.2252 39.1129 14.7234 39.4441 15.2718 39.6684C15.8202 39.8926 16.4077 40.0054 17.0002 40.0001H35.0002C35.5926 40.0054 36.1802 39.8926 36.7286 39.6684C37.2769 39.4441 37.7751 39.1129 38.1941 38.6939C38.613 38.275 38.9443 37.7768 39.1685 37.2284C39.3928 36.6801 39.5055 36.0925 39.5002 35.5001V17.5001C39.5055 16.9076 39.3928 16.3201 39.1685 15.7717C38.9443 15.2233 38.613 14.7251 38.1941 14.3062C37.7751 13.8873 37.2769 13.556 36.7286 13.3317C36.1802 13.1075 35.5926 12.9947 35.0002 13.0001ZM38.5002 17.5001V18.0001H36.2102L38.2102 16.0001C38.4181 16.472 38.5172 16.9846 38.5002 17.5001ZM37.6202 15.2201L34.7902 18.0001H31.2102L35.2102 14.0001C35.6707 14.0241 36.1216 14.141 36.5357 14.3438C36.9499 14.5466 37.3188 14.8311 37.6202 15.1801V15.2201ZM26.2102 18.0001L30.2102 14.0001H33.7902L29.7902 18.0001H26.2102ZM21.2102 18.0001L25.2102 14.0001H28.7902L24.7902 18.0001H21.2102ZM16.2102 18.0001L20.2102 14.0001H23.7902L19.7902 18.0001H16.2102ZM17.0002 14.0001H18.7902L14.7902 18.0001H13.5002V17.5001C13.4948 17.0389 13.5817 16.5814 13.7557 16.1543C13.9297 15.7273 14.1873 15.3393 14.5134 15.0132C14.8394 14.6872 15.2274 14.4295 15.6545 14.2556C16.0815 14.0816 16.5391 13.9947 17.0002 14.0001ZM35.0002 39.0001H17.0002C16.5391 39.0054 16.0815 38.9186 15.6545 38.7446C15.2274 38.5706 14.8394 38.313 14.5134 37.9869C14.1873 37.6608 13.9297 37.2728 13.7557 36.8458C13.5817 36.4187 13.4948 35.9612 13.5002 35.5001V19.0001H38.5002V35.5001C38.5055 35.9612 38.4187 36.4187 38.2447 36.8458C38.0707 37.2728 37.8131 37.6608 37.487 37.9869C37.1609 38.313 36.773 38.5706 36.3459 38.7446C35.9188 38.9186 35.4613 39.0054 35.0002 39.0001Z" fill="#FF8C6B"/>
<path d="M16.8494 37C16.6529 37 16.4583 36.9611 16.2769 36.8856C16.0954 36.8101 15.9307 36.6994 15.7923 36.56C15.6538 36.4206 15.5442 36.2552 15.4699 36.0732C15.3956 35.8913 15.3581 35.6965 15.3594 35.5V27.29C15.3594 27.1574 15.3067 27.0302 15.2129 26.9364C15.1192 26.8426 14.992 26.79 14.8594 26.79C14.7268 26.79 14.5996 26.8426 14.5058 26.9364C14.4121 27.0302 14.3594 27.1574 14.3594 27.29V35.5C14.3581 35.8278 14.4215 36.1527 14.5461 36.4559C14.6706 36.7592 14.8538 37.0348 15.0852 37.2671C15.3165 37.4994 15.5914 37.6837 15.8942 37.8095C16.197 37.9352 16.5216 38 16.8494 38C16.982 38 17.1092 37.9473 17.2029 37.8535C17.2967 37.7597 17.3494 37.6326 17.3494 37.5C17.3494 37.3673 17.2967 37.2402 17.2029 37.1464C17.1092 37.0526 16.982 37 16.8494 37ZM19.4994 37H18.5694C18.4368 37 18.3096 37.0526 18.2158 37.1464C18.1221 37.2402 18.0694 37.3673 18.0694 37.5C18.0694 37.6326 18.1221 37.7597 18.2158 37.8535C18.3096 37.9473 18.4368 38 18.5694 38H19.4994C19.632 38 19.7592 37.9473 19.8529 37.8535C19.9467 37.7597 19.9994 37.6326 19.9994 37.5C19.9994 37.3673 19.9467 37.2402 19.8529 37.1464C19.7592 37.0526 19.632 37 19.4994 37ZM30.7694 27L23.9994 22.84C23.7671 22.6975 23.501 22.6196 23.2285 22.6144C22.956 22.6092 22.6871 22.6769 22.4496 22.8105C22.212 22.944 22.0144 23.1386 21.8773 23.3741C21.7401 23.6096 21.6684 23.8774 21.6694 24.15V32.5C21.6694 32.9084 21.8316 33.3001 22.1205 33.5889C22.4093 33.8777 22.801 34.04 23.2094 34.04C23.4897 34.0429 23.7645 33.9629 23.9994 33.81L30.8094 29.66C31.0327 29.522 31.217 29.3292 31.3448 29.0999C31.4727 28.8706 31.5398 28.6125 31.5398 28.35C31.5398 28.0875 31.4727 27.8293 31.3448 27.6C31.217 27.3708 31.0327 27.178 30.8094 27.04L30.7694 27ZM30.2394 28.76L23.4394 32.92C23.3584 32.9705 23.2649 32.9973 23.1694 32.9973C23.0739 32.9973 22.9804 32.9705 22.8994 32.92C22.8163 32.8732 22.7473 32.8048 22.6998 32.7221C22.6522 32.6394 22.6279 32.5453 22.6294 32.45V24.15C22.6276 24.0558 22.6518 23.963 22.6995 23.8818C22.7471 23.8007 22.8163 23.7342 22.8994 23.69C22.9819 23.6438 23.0749 23.6197 23.1694 23.62C23.2651 23.6208 23.3587 23.6485 23.4394 23.7L30.2394 27.85C30.3185 27.8979 30.384 27.9654 30.4295 28.046C30.475 28.1265 30.4991 28.2174 30.4994 28.31C30.5015 28.4016 30.4783 28.492 30.4325 28.5714C30.3866 28.6508 30.3198 28.716 30.2394 28.76Z" fill="#FF8C6B"/>
</svg>
