<svg width="12" height="9" viewBox="0 0 12 9" fill="none" xmlns="http://www.w3.org/2000/svg">
<path d="M6.25 0.582031C3.63636 0.582031 1.40432 2.20771 0.5 4.50249C1.40432 6.79726 3.63636 8.42294 6.25 8.42294C8.86625 8.42294 11.0957 6.79726 12 4.50249C11.0957 2.20771 8.86625 0.582031 6.25 0.582031ZM6.25 7.11612C4.80727 7.11612 3.63636 5.94521 3.63636 4.50249C3.63636 3.05976 4.80727 1.88885 6.25 1.88885C7.69273 1.88885 8.86364 3.05976 8.86364 4.50249C8.86364 5.94521 7.69273 7.11612 6.25 7.11612ZM6.25 2.9343C5.38489 2.9343 4.68182 3.63737 4.68182 4.50249C4.68182 5.3676 5.38489 6.07067 6.25 6.07067C7.11511 6.07067 7.81818 5.3676 7.81818 4.50249C7.81818 3.63737 7.11511 2.9343 6.25 2.9343Z" fill="white"/>
</svg>
