<svg width="26" height="26" viewBox="0 0 26 26" fill="none" xmlns="http://www.w3.org/2000/svg">
<g clip-path="url(#clip0_6975_35832)">
<path d="M22.0422 6.71925C21.3894 6.263 20.4054 6.3505 19.8193 6.83453L20.4915 5.85745C21.0325 5.08592 20.8387 4.2512 20.0665 3.70953C19.2943 3.16995 17.1061 4.62064 17.1061 4.62064C17.6519 3.84147 17.5498 2.85397 16.7707 2.30744C16.396 2.0457 15.9329 1.94336 15.4828 2.02292C15.0328 2.10248 14.6328 2.35743 14.3707 2.73175L7.13455 12.954L8.05677 21.8949L15.7533 19.088L22.4665 9.13453C22.5974 8.94814 22.6903 8.73777 22.7398 8.51546C22.7893 8.29314 22.7945 8.06324 22.7551 7.83891C22.7157 7.61458 22.6325 7.40023 22.5101 7.2081C22.3878 7.01598 22.2288 6.84986 22.0422 6.71925Z" fill="#D2A077"/>
<path d="M23.5418 12.406C23.5418 12.406 24.3279 11.2601 23.1814 10.4747C22.0362 9.6893 21.2508 10.8344 21.2508 10.8344L17.6043 16.1525C17.4786 15.9428 17.3411 15.7358 17.1876 15.5317L22.2487 8.1518C22.2487 8.1518 23.0342 7.00666 21.8883 6.22125C20.7432 5.43583 19.9578 6.58097 19.9578 6.58097L15.1974 13.5233C15.0203 13.3789 14.839 13.2337 14.6522 13.0914L20.171 5.04208C20.171 5.04208 20.9564 3.89694 19.8105 3.11152C18.6654 2.32611 17.88 3.47125 17.88 3.47125L12.3612 11.5192C12.1585 11.3949 11.9578 11.2872 11.7564 11.1733L16.9147 3.65111C16.9147 3.65111 17.7001 2.50597 16.555 1.72055C15.4099 0.935136 14.6244 2.08028 14.6244 2.08028L9.17027 10.0344L8.3411 11.2442C11.7772 13.6011 12.1043 18.0351 10.1411 20.8983C9.74874 21.4712 9.17583 21.0789 9.17583 21.0789C11.5321 17.6421 10.8126 13.7803 7.37583 11.424L8.38902 6.35319C8.38902 6.35319 8.76749 5.01708 7.43208 4.63791C6.09596 4.25944 5.7168 5.59555 5.7168 5.59555L4.54666 9.07055C4.08277 10.4483 3.58902 11.8212 2.93555 13.1199C1.09041 16.7865 2.19249 21.3435 5.67166 23.7303C9.4668 26.3324 14.655 25.365 17.2578 21.5706L23.5418 12.406Z" fill="#F3D2A2"/>
<path d="M17.0811 22.6185C19.8589 22.6185 22.6658 19.8116 22.6658 17.0338C22.6658 16.6498 22.947 16.3394 23.3311 16.3394C23.7151 16.3394 24.0547 16.6498 24.0547 17.0338C24.0547 21.2005 21.2477 24.0074 17.0811 24.0074C16.697 24.0074 16.3866 23.6678 16.3866 23.2838C16.3866 22.8998 16.697 22.6185 17.0811 22.6185Z" fill="#FFD439"/>
<path d="M20.553 23.9781C22.6363 23.9781 24.0252 22.5892 24.0252 20.5059C24.0252 20.3217 24.0983 20.145 24.2286 20.0148C24.3588 19.8846 24.5354 19.8114 24.7196 19.8114C24.9038 19.8114 25.0804 19.8846 25.2107 20.0148C25.3409 20.145 25.4141 20.3217 25.4141 20.5059C25.4141 23.2836 23.3307 25.367 20.553 25.367C20.3688 25.367 20.1921 25.2938 20.0619 25.1636C19.9317 25.0333 19.8585 24.8567 19.8585 24.6725C19.8585 24.4883 19.9317 24.3117 20.0619 24.1815C20.1921 24.0512 20.3688 23.9781 20.553 23.9781ZM8.7474 1.75586C8.93157 1.75586 9.10821 1.82902 9.23844 1.95926C9.36868 2.08949 9.44184 2.26613 9.44184 2.4503C9.44184 2.63448 9.36868 2.81112 9.23844 2.94135C9.10821 3.07158 8.93157 3.14475 8.7474 3.14475C5.96962 3.14475 3.19184 5.63711 3.19184 8.7003C3.19184 8.88448 3.11868 9.06112 2.98844 9.19135C2.85821 9.32158 2.68158 9.39475 2.4974 9.39475C2.31322 9.39475 2.13658 9.32158 2.00635 9.19135C1.87612 9.06112 1.80295 8.88448 1.80295 8.7003C1.80295 4.87114 4.58073 1.75586 8.7474 1.75586Z" fill="#FFD439"/>
<path d="M5.27431 0.39624C5.65764 0.39624 5.96875 0.678185 5.96875 1.06152C5.96875 1.44485 5.65764 1.78513 5.27431 1.78513C3.19097 1.78513 1.83125 3.33027 1.83125 5.22818C1.83125 5.61152 1.49167 5.92263 1.10764 5.92263C0.723611 5.92263 0.442361 5.61152 0.442361 5.22818C0.442361 2.5636 2.49653 0.39624 5.27431 0.39624Z" fill="#FFD439"/>
</g>
<defs>
<clipPath id="clip0_6975_35832">
<rect width="25" height="25" fill="white" transform="matrix(-1 0 0 1 25.4141 0.367188)"/>
</clipPath>
</defs>
</svg>
