<svg width="157" height="168" viewBox="0 0 157 168" fill="none" xmlns="http://www.w3.org/2000/svg">
<mask id="path-1-inside-1_26_87" fill="white">
<path fill-rule="evenodd" clip-rule="evenodd" d="M8 168C3.58172 168 0 164.418 0 160V8C0 3.58173 3.58172 0 8 0H142C146.418 0 150 3.58173 150 8V46.2683C150 53.2709 141.003 58 134 58V58C119.641 58 108 69.6406 108 84C108 98.3594 119.641 110 134 110V110C141.003 110 150 114.729 150 121.732V160C150 164.418 146.418 168 142 168H8Z"/>
</mask>
<path fill-rule="evenodd" clip-rule="evenodd" d="M8 168C3.58172 168 0 164.418 0 160V8C0 3.58173 3.58172 0 8 0H142C146.418 0 150 3.58173 150 8V46.2683C150 53.2709 141.003 58 134 58V58C119.641 58 108 69.6406 108 84C108 98.3594 119.641 110 134 110V110C141.003 110 150 114.729 150 121.732V160C150 164.418 146.418 168 142 168H8Z" fill="white"/>
<path d="M0.75 160C0.75 164.004 3.99594 167.25 8 167.25V168.75C3.16751 168.75 -0.75 164.832 -0.75 160H0.75ZM0.75 8V160H-0.75V8H0.75ZM8 0.75C3.99594 0.75 0.75 3.99594 0.75 8H-0.75C-0.75 3.16751 3.16751 -0.75 8 -0.75V0.75ZM142 0.75H8V-0.75H142V0.75ZM149.25 8C149.25 3.99594 146.004 0.75 142 0.75V-0.75C146.832 -0.75 150.75 3.16751 150.75 8H149.25ZM149.25 46.2683V8H150.75V46.2683H149.25ZM134 58.75C120.055 58.75 108.75 70.0548 108.75 84H107.25C107.25 69.2264 119.226 57.25 134 57.25V58.75ZM108.75 84C108.75 97.9452 120.055 109.25 134 109.25V110.75C119.226 110.75 107.25 98.7736 107.25 84H108.75ZM149.25 160V121.732H150.75V160H149.25ZM142 167.25C146.004 167.25 149.25 164.004 149.25 160H150.75C150.75 164.832 146.832 168.75 142 168.75V167.25ZM8 167.25H142V168.75H8V167.25ZM134 109.25C137.65 109.25 141.793 110.477 145.038 112.613C148.277 114.746 150.75 117.881 150.75 121.732H149.25C149.25 118.58 147.225 115.849 144.214 113.866C141.209 111.888 137.352 110.75 134 110.75V109.25ZM150.75 46.2683C150.75 50.1194 148.277 53.2541 145.038 55.3865C141.793 57.5233 137.65 58.75 134 58.75V57.25C137.352 57.25 141.209 56.1121 144.214 54.1338C147.225 52.151 149.25 49.4199 149.25 46.2683H150.75Z" fill="black" mask="url(#path-1-inside-1_26_87)"/>
<ellipse cx="133.5" cy="84" rx="23.5" ry="24" fill="#202020"/>
<path fill-rule="evenodd" clip-rule="evenodd" d="M130.543 89.9571C130.152 89.5666 130.152 88.9334 130.543 88.5429L135.336 83.75L130.543 78.9571C130.152 78.5666 130.152 77.9334 130.543 77.5429C130.933 77.1524 131.567 77.1524 131.957 77.5429L137.457 83.0429C137.848 83.4334 137.848 84.0666 137.457 84.4571L131.957 89.9571C131.567 90.3476 130.933 90.3476 130.543 89.9571Z" fill="white"/>
</svg>
