<svg width="21" height="21" viewBox="0 0 21 21" fill="none" xmlns="http://www.w3.org/2000/svg">
<path d="M17.1953 2.5H16.1953V1.5C16.1953 0.9 15.7953 0.5 15.1953 0.5C14.5953 0.5 14.1953 0.9 14.1953 1.5V2.5H6.19531V1.5C6.19531 0.9 5.79531 0.5 5.19531 0.5C4.59531 0.5 4.19531 0.9 4.19531 1.5V2.5H3.19531C1.49531 2.5 0.195312 3.8 0.195312 5.5V6.5H20.1953V5.5C20.1953 3.8 18.8953 2.5 17.1953 2.5ZM0.195312 17.5C0.195312 19.2 1.49531 20.5 3.19531 20.5H17.1953C18.8953 20.5 20.1953 19.2 20.1953 17.5V8.5H0.195312V17.5ZM15.1953 10.5C15.7953 10.5 16.1953 10.9 16.1953 11.5C16.1953 12.1 15.7953 12.5 15.1953 12.5C14.5953 12.5 14.1953 12.1 14.1953 11.5C14.1953 10.9 14.5953 10.5 15.1953 10.5ZM15.1953 14.5C15.7953 14.5 16.1953 14.9 16.1953 15.5C16.1953 16.1 15.7953 16.5 15.1953 16.5C14.5953 16.5 14.1953 16.1 14.1953 15.5C14.1953 14.9 14.5953 14.5 15.1953 14.5ZM10.1953 10.5C10.7953 10.5 11.1953 10.9 11.1953 11.5C11.1953 12.1 10.7953 12.5 10.1953 12.5C9.59531 12.5 9.19531 12.1 9.19531 11.5C9.19531 10.9 9.59531 10.5 10.1953 10.5ZM10.1953 14.5C10.7953 14.5 11.1953 14.9 11.1953 15.5C11.1953 16.1 10.7953 16.5 10.1953 16.5C9.59531 16.5 9.19531 16.1 9.19531 15.5C9.19531 14.9 9.59531 14.5 10.1953 14.5ZM5.19531 10.5C5.79531 10.5 6.19531 10.9 6.19531 11.5C6.19531 12.1 5.79531 12.5 5.19531 12.5C4.59531 12.5 4.19531 12.1 4.19531 11.5C4.19531 10.9 4.59531 10.5 5.19531 10.5ZM5.19531 14.5C5.79531 14.5 6.19531 14.9 6.19531 15.5C6.19531 16.1 5.79531 16.5 5.19531 16.5C4.59531 16.5 4.19531 16.1 4.19531 15.5C4.19531 14.9 4.59531 14.5 5.19531 14.5Z" fill="black"/>
</svg>
