<svg width="294" height="100" viewBox="0 0 294 100" fill="none" xmlns="http://www.w3.org/2000/svg">
<g filter="url(#filter0_d_2540_9631)">
<path d="M55.4929 77.1C50.2929 77.1 45.4596 76.2 40.9929 74.4C36.5263 72.5333 32.5929 69.9667 29.1929 66.7C25.8596 63.3667 23.2263 59.5333 21.2929 55.2C19.4263 50.8 18.4929 46.0667 18.4929 41C18.4929 35.9333 19.4263 31.2333 21.2929 26.9C23.2263 22.5 25.8596 18.6667 29.1929 15.4C32.5929 12.0667 36.5263 9.5 40.9929 7.7C45.4596 5.83333 50.2929 4.9 55.4929 4.9C60.6929 4.9 65.5263 5.83333 69.9929 7.7C74.5263 9.5 78.4596 12.0667 81.7929 15.4C85.1929 18.6667 87.8263 22.5 89.6929 26.9C91.5596 31.2333 92.4929 35.9333 92.4929 41C92.4929 46.0667 91.5596 50.8 89.6929 55.2C87.8263 59.5333 85.1929 63.3667 81.7929 66.7C78.4596 69.9667 74.5263 72.5333 69.9929 74.4C65.5263 76.2 60.6929 77.1 55.4929 77.1ZM55.4929 63.8C58.6929 63.8 61.6263 63.2333 64.2929 62.1C66.9596 60.9 69.2929 59.3 71.2929 57.3C73.2929 55.2333 74.8596 52.8 75.9929 50C77.1263 47.2 77.6929 44.2 77.6929 41C77.6929 37.7333 77.1263 34.7333 75.9929 32C74.8596 29.2 73.2929 26.8 71.2929 24.8C69.2929 22.7333 66.9596 21.1333 64.2929 20C61.6263 18.8 58.6929 18.2 55.4929 18.2C52.3596 18.2 49.4596 18.8 46.7929 20C44.1263 21.1333 41.7929 22.7333 39.7929 24.8C37.7929 26.8 36.2263 29.2 35.0929 32C33.9596 34.7333 33.3929 37.7 33.3929 40.9C33.3929 44.1667 33.9596 47.2 35.0929 50C36.2263 52.8 37.7929 55.2333 39.7929 57.3C41.7929 59.3 44.1263 60.9 46.7929 62.1C49.4596 63.2333 52.3596 63.8 55.4929 63.8ZM145.558 77C139.224 77 133.724 75.7333 129.058 73.2C124.458 70.6667 120.891 67.0667 118.358 62.4C115.824 57.6667 114.558 52.1333 114.558 45.8V6H129.058V45.8C129.058 49.4 129.724 52.5667 131.058 55.3C132.458 57.9667 134.391 60.0333 136.858 61.5C139.391 62.9 142.324 63.6 145.658 63.6C148.991 63.6 151.891 62.9 154.358 61.5C156.824 60.0333 158.724 57.9667 160.058 55.3C161.458 52.5667 162.158 49.4 162.158 45.8V6H176.558V45.8C176.558 52.0667 175.291 57.5667 172.758 62.3C170.224 66.9667 166.624 70.6 161.958 73.2C157.358 75.7333 151.891 77 145.558 77ZM220.336 76V18.8H196.736V6H258.336V18.8H234.836V76H220.336Z" fill="black"/>
</g>
<path d="M55.5878 47.0298C55.5878 48.3297 54.4462 49.4062 53.0088 49.4062C51.5713 49.4062 50.4298 48.3297 50.4298 47.0298C50.4298 45.73 51.5713 44.6534 53.0088 44.6534C54.4462 44.6534 55.5878 45.73 55.5878 47.0298Z" fill="black" stroke="black" stroke-width="0.357605"/>
<path d="M53.1153 51.5026C55.7012 51.5026 57.7974 49.5603 57.7974 47.1644C57.7974 44.7685 55.7012 42.8262 53.1153 42.8262C50.5294 42.8262 48.4331 44.7685 48.4331 47.1644C48.4331 49.5603 50.5294 51.5026 53.1153 51.5026Z" stroke="black" stroke-width="0.71521"/>
<path d="M59.1948 60.1768C67.7282 60.1768 74.646 53.9615 74.646 46.2945C74.646 38.6275 67.7282 32.4121 59.1948 32.4121C50.6614 32.4121 43.7437 38.6275 43.7437 46.2945C43.7437 53.9615 50.6614 60.1768 59.1948 60.1768Z" stroke="black" stroke-width="0.71521"/>
<path d="M60.6014 81C78.1855 81 92.4402 67.7924 92.4402 51.5C92.4402 35.2076 78.1855 22 60.6014 22C43.0174 22 28.7627 35.2076 28.7627 51.5C28.7627 67.7924 43.0174 81 60.6014 81Z" stroke="black" stroke-width="0.71521"/>
<path d="M56.3829 74.9291C70.0881 74.9291 81.1983 64.4407 81.1983 51.5026C81.1983 38.5646 70.0881 28.0762 56.3829 28.0762C42.6777 28.0762 31.5674 38.5646 31.5674 51.5026C31.5674 64.4407 42.6777 74.9291 56.3829 74.9291Z" stroke="black" stroke-width="0.71521"/>
<line x1="211.387" y1="25" x2="211.387" y2="47" stroke="black" stroke-width="1.25"/>
<path d="M189.664 94.2018C185.491 94.2018 182.863 95.9977 174.208 94.2018C165.552 92.4059 168.489 85.8209 174.208 85.8209C179.927 85.8209 183.635 77.2239 189.664 85.8209C195.719 88.6053 193.837 94.2018 189.664 94.2018Z" stroke="black" stroke-width="1.25"/>
<ellipse cx="4.4084" cy="3.5" rx="3.6457" ry="3.5" fill="black"/>
<path d="M273.439 11.6201L287.834 11.5734L280.679 23.5646L273.439 11.6201Z" stroke="black" stroke-width="1.25"/>
<defs>
<filter id="filter0_d_2540_9631" x="8.49316" y="4.90039" width="259.843" height="94.1992" filterUnits="userSpaceOnUse" color-interpolation-filters="sRGB">
<feFlood flood-opacity="0" result="BackgroundImageFix"/>
<feColorMatrix in="SourceAlpha" type="matrix" values="0 0 0 0 0 0 0 0 0 0 0 0 0 0 0 0 0 0 127 0" result="hardAlpha"/>
<feOffset dy="12"/>
<feGaussianBlur stdDeviation="5"/>
<feComposite in2="hardAlpha" operator="out"/>
<feColorMatrix type="matrix" values="0 0 0 0 0 0 0 0 0 0 0 0 0 0 0 0 0 0 0.4 0"/>
<feBlend mode="normal" in2="BackgroundImageFix" result="effect1_dropShadow_2540_9631"/>
<feBlend mode="normal" in="SourceGraphic" in2="effect1_dropShadow_2540_9631" result="shape"/>
</filter>
</defs>
</svg>
