<svg width="61" height="61" viewBox="0 0 61 61" fill="none" xmlns="http://www.w3.org/2000/svg">
<path d="M25.896 26.0318C25.896 27.3439 24.8299 28.4082 23.5139 28.4082C22.198 28.4082 21.1319 27.3439 21.1319 26.0318C21.1319 24.7197 22.198 23.6554 23.5139 23.6554C24.8299 23.6554 25.896 24.7197 25.896 26.0318Z" fill="black" stroke="black" stroke-width="0.357605"/>
<path d="M23.6134 30.5046C26.0145 30.5046 27.9611 28.5623 27.9611 26.1664C27.9611 23.7704 26.0145 21.8281 23.6134 21.8281C21.2122 21.8281 19.2656 23.7704 19.2656 26.1664C19.2656 28.5623 21.2122 30.5046 23.6134 30.5046Z" stroke="black" stroke-width="0.71521"/>
<path d="M29.2616 39.1788C37.1855 39.1788 43.6091 32.9634 43.6091 25.2964C43.6091 17.6294 37.1855 11.4141 29.2616 11.4141C21.3377 11.4141 14.9141 17.6294 14.9141 25.2964C14.9141 32.9634 21.3377 39.1788 29.2616 39.1788Z" stroke="black" stroke-width="0.71521"/>
<path d="M30.5646 60C46.8927 60 60.1292 46.7924 60.1292 30.5C60.1292 14.2076 46.8927 1 30.5646 1C14.2365 1 1 14.2076 1 30.5C1 46.7924 14.2365 60 30.5646 60Z" stroke="black" stroke-width="0.71521"/>
<path d="M26.6446 53.9311C39.3709 53.9311 49.6876 43.4427 49.6876 30.5046C49.6876 17.5665 39.3709 7.07812 26.6446 7.07812C13.9183 7.07812 3.60156 17.5665 3.60156 30.5046C3.60156 43.4427 13.9183 53.9311 26.6446 53.9311Z" stroke="black" stroke-width="0.71521"/>
</svg>
